<svg class="rich-terminal" viewBox="0 0 665 708.8" xmlns="http://www.w3.org/2000/svg">
    <!-- Generated with Rich https://www.textualize.io -->
    <style>

    @font-face {
        font-family: "Fira Code";
        src: local("FiraCode-Regular"),
                url("https://cdnjs.cloudflare.com/ajax/libs/firacode/6.2.0/woff2/FiraCode-Regular.woff2") format("woff2"),
                url("https://cdnjs.cloudflare.com/ajax/libs/firacode/6.2.0/woff/FiraCode-Regular.woff") format("woff");
        font-style: normal;
        font-weight: 400;
    }
    @font-face {
        font-family: "Fira Code";
        src: local("FiraCode-Bold"),
                url("https://cdnjs.cloudflare.com/ajax/libs/firacode/6.2.0/woff2/FiraCode-Bold.woff2") format("woff2"),
                url("https://cdnjs.cloudflare.com/ajax/libs/firacode/6.2.0/woff/FiraCode-Bold.woff") format("woff");
        font-style: bold;
        font-weight: 700;
    }

    .terminal-620031838-matrix {
        font-family: Fira Code, monospace;
        font-size: 20px;
        line-height: 24.4px;
        font-variant-east-asian: full-width;
    }

    .terminal-620031838-title {
        font-size: 18px;
        font-weight: bold;
        font-family: arial;
    }

    .terminal-620031838-r1 { fill: #f2f2f2 }
.terminal-620031838-r2 { fill: #c5c8c6 }
.terminal-620031838-r3 { fill: #f5f7fa }
.terminal-620031838-r4 { fill: #507bb3 }
.terminal-620031838-r5 { fill: #ffcf56 }
.terminal-620031838-r6 { fill: #f2f5f8;font-weight: bold }
.terminal-620031838-r7 { fill: #0c0802;font-weight: bold }
.terminal-620031838-r8 { fill: #001541 }
.terminal-620031838-r9 { fill: #b86b00 }
.terminal-620031838-r10 { fill: #323d44 }
.terminal-620031838-r11 { fill: #f3f4f4;font-weight: bold }
.terminal-620031838-r12 { fill: #09151c }
    </style>

    <defs>
    <clipPath id="terminal-620031838-clip-terminal">
      <rect x="0" y="0" width="645.5999999999999" height="657.8" />
    </clipPath>
    <clipPath id="terminal-620031838-line-0">
    <rect x="0" y="1.5" width="646.6" height="24.65"/>
            </clipPath>
<clipPath id="terminal-620031838-line-1">
    <rect x="0" y="25.9" width="646.6" height="24.65"/>
            </clipPath>
<clipPath id="terminal-620031838-line-2">
    <rect x="0" y="50.3" width="646.6" height="24.65"/>
            </clipPath>
<clipPath id="terminal-620031838-line-3">
    <rect x="0" y="74.7" width="646.6" height="24.65"/>
            </clipPath>
<clipPath id="terminal-620031838-line-4">
    <rect x="0" y="99.1" width="646.6" height="24.65"/>
            </clipPath>
<clipPath id="terminal-620031838-line-5">
    <rect x="0" y="123.5" width="646.6" height="24.65"/>
            </clipPath>
<clipPath id="terminal-620031838-line-6">
    <rect x="0" y="147.9" width="646.6" height="24.65"/>
            </clipPath>
<clipPath id="terminal-620031838-line-7">
    <rect x="0" y="172.3" width="646.6" height="24.65"/>
            </clipPath>
<clipPath id="terminal-620031838-line-8">
    <rect x="0" y="196.7" width="646.6" height="24.65"/>
            </clipPath>
<clipPath id="terminal-620031838-line-9">
    <rect x="0" y="221.1" width="646.6" height="24.65"/>
            </clipPath>
<clipPath id="terminal-620031838-line-10">
    <rect x="0" y="245.5" width="646.6" height="24.65"/>
            </clipPath>
<clipPath id="terminal-620031838-line-11">
    <rect x="0" y="269.9" width="646.6" height="24.65"/>
            </clipPath>
<clipPath id="terminal-620031838-line-12">
    <rect x="0" y="294.3" width="646.6" height="24.65"/>
            </clipPath>
<clipPath id="terminal-620031838-line-13">
    <rect x="0" y="318.7" width="646.6" height="24.65"/>
            </clipPath>
<clipPath id="terminal-620031838-line-14">
    <rect x="0" y="343.1" width="646.6" height="24.65"/>
            </clipPath>
<clipPath id="terminal-620031838-line-15">
    <rect x="0" y="367.5" width="646.6" height="24.65"/>
            </clipPath>
<clipPath id="terminal-620031838-line-16">
    <rect x="0" y="391.9" width="646.6" height="24.65"/>
            </clipPath>
<clipPath id="terminal-620031838-line-17">
    <rect x="0" y="416.3" width="646.6" height="24.65"/>
            </clipPath>
<clipPath id="terminal-620031838-line-18">
    <rect x="0" y="440.7" width="646.6" height="24.65"/>
            </clipPath>
<clipPath id="terminal-620031838-line-19">
    <rect x="0" y="465.1" width="646.6" height="24.65"/>
            </clipPath>
<clipPath id="terminal-620031838-line-20">
    <rect x="0" y="489.5" width="646.6" height="24.65"/>
            </clipPath>
<clipPath id="terminal-620031838-line-21">
    <rect x="0" y="513.9" width="646.6" height="24.65"/>
            </clipPath>
<clipPath id="terminal-620031838-line-22">
    <rect x="0" y="538.3" width="646.6" height="24.65"/>
            </clipPath>
<clipPath id="terminal-620031838-line-23">
    <rect x="0" y="562.7" width="646.6" height="24.65"/>
            </clipPath>
<clipPath id="terminal-620031838-line-24">
    <rect x="0" y="587.1" width="646.6" height="24.65"/>
            </clipPath>
<clipPath id="terminal-620031838-line-25">
    <rect x="0" y="611.5" width="646.6" height="24.65"/>
            </clipPath>
    </defs>

    <rect fill="#292929" stroke="rgba(255,255,255,0.35)" stroke-width="1" x="1" y="1" width="663" height="706.8" rx="8"/><text class="terminal-620031838-title" fill="#c5c8c6" text-anchor="middle" x="331" y="27">CalculatorApp</text>
            <g transform="translate(26,22)">
            <circle cx="0" cy="0" r="7" fill="#ff5f57"/>
            <circle cx="22" cy="0" r="7" fill="#febc2e"/>
            <circle cx="44" cy="0" r="7" fill="#28c840"/>
            </g>
        
    <g transform="translate(9, 41)" clip-path="url(#terminal-620031838-clip-terminal)">
    <rect fill="#000000" x="0" y="1.5" width="646.6" height="24.65" shape-rendering="crispEdges"/><rect fill="#000000" x="0" y="25.9" width="24.4" height="24.65" shape-rendering="crispEdges"/><rect fill="#3b689f" x="24.4" y="25.9" width="597.8" height="24.65" shape-rendering="crispEdges"/><rect fill="#000000" x="622.2" y="25.9" width="24.4" height="24.65" shape-rendering="crispEdges"/><rect fill="#000000" x="0" y="50.3" width="24.4" height="24.65" shape-rendering="crispEdges"/><rect fill="#3b689f" x="24.4" y="50.3" width="597.8" height="24.65" shape-rendering="crispEdges"/><rect fill="#000000" x="622.2" y="50.3" width="24.4" height="24.65" shape-rendering="crispEdges"/><rect fill="#000000" x="0" y="74.7" width="24.4" height="24.65" shape-rendering="crispEdges"/><rect fill="#3b689f" x="24.4" y="74.7" width="573.4" height="24.65" shape-rendering="crispEdges"/><rect fill="#3b689f" x="597.8" y="74.7" width="12.2" height="24.65" shape-rendering="crispEdges"/><rect fill="#3b689f" x="610" y="74.7" width="12.2" height="24.65" shape-rendering="crispEdges"/><rect fill="#000000" x="622.2" y="74.7" width="24.4" height="24.65" shape-rendering="crispEdges"/><rect fill="#000000" x="0" y="99.1" width="24.4" height="24.65" shape-rendering="crispEdges"/><rect fill="#3b689f" x="24.4" y="99.1" width="597.8" height="24.65" shape-rendering="crispEdges"/><rect fill="#000000" x="622.2" y="99.1" width="24.4" height="24.65" shape-rendering="crispEdges"/><rect fill="#000000" x="0" y="123.5" width="24.4" height="24.65" shape-rendering="crispEdges"/><rect fill="#3b689f" x="24.4" y="123.5" width="597.8" height="24.65" shape-rendering="crispEdges"/><rect fill="#000000" x="622.2" y="123.5" width="24.4" height="24.65" shape-rendering="crispEdges"/><rect fill="#000000" x="0" y="147.9" width="24.4" height="24.65" shape-rendering="crispEdges"/><rect fill="#000000" x="24.4" y="147.9" width="597.8" height="24.65" shape-rendering="crispEdges"/><rect fill="#000000" x="622.2" y="147.9" width="24.4" height="24.65" shape-rendering="crispEdges"/><rect fill="#000000" x="0" y="172.3" width="24.4" height="24.65" shape-rendering="crispEdges"/><rect fill="#004578" x="24.4" y="172.3" width="122" height="24.65" shape-rendering="crispEdges"/><rect fill="#000000" x="146.4" y="172.3" width="24.4" height="24.65" shape-rendering="crispEdges"/><rect fill="#004578" x="170.8" y="172.3" width="134.2" height="24.65" shape-rendering="crispEdges"/><rect fill="#000000" x="305" y="172.3" width="24.4" height="24.65" shape-rendering="crispEdges"/><rect fill="#004578" x="329.4" y="172.3" width="134.2" height="24.65" shape-rendering="crispEdges"/><rect fill="#000000" x="463.6" y="172.3" width="24.4" height="24.65" shape-rendering="crispEdges"/><rect fill="#fea62b" x="488" y="172.3" width="134.2" height="24.65" shape-rendering="crispEdges"/><rect fill="#000000" x="622.2" y="172.3" width="24.4" height="24.65" shape-rendering="crispEdges"/><rect fill="#000000" x="0" y="196.7" width="24.4" height="24.65" shape-rendering="crispEdges"/><rect fill="#004578" x="24.4" y="196.7" width="36.6" height="24.65" shape-rendering="crispEdges"/><rect fill="#004578" x="61" y="196.7" width="48.8" height="24.65" shape-rendering="crispEdges"/><rect fill="#004578" x="109.8" y="196.7" width="36.6" height="24.65" shape-rendering="crispEdges"/><rect fill="#000000" x="146.4" y="196.7" width="24.4" height="24.65" shape-rendering="crispEdges"/><rect fill="#004578" x="170.8" y="196.7" width="36.6" height="24.65" shape-rendering="crispEdges"/><rect fill="#004578" x="207.4" y="196.7" width="61" height="24.65" shape-rendering="crispEdges"/><rect fill="#004578" x="268.4" y="196.7" width="36.6" height="24.65" shape-rendering="crispEdges"/><rect fill="#000000" x="305" y="196.7" width="24.4" height="24.65" shape-rendering="crispEdges"/><rect fill="#004578" x="329.4" y="196.7" width="48.8" height="24.65" shape-rendering="crispEdges"/><rect fill="#004578" x="378.2" y="196.7" width="36.6" height="24.65" shape-rendering="crispEdges"/><rect fill="#004578" x="414.8" y="196.7" width="48.8" height="24.65" shape-rendering="crispEdges"/><rect fill="#000000" x="463.6" y="196.7" width="24.4" height="24.65" shape-rendering="crispEdges"/><rect fill="#fea62b" x="488" y="196.7" width="48.8" height="24.65" shape-rendering="crispEdges"/><rect fill="#fea62b" x="536.8" y="196.7" width="36.6" height="24.65" shape-rendering="crispEdges"/><rect fill="#fea62b" x="573.4" y="196.7" width="48.8" height="24.65" shape-rendering="crispEdges"/><rect fill="#000000" x="622.2" y="196.7" width="24.4" height="24.65" shape-rendering="crispEdges"/><rect fill="#000000" x="0" y="221.1" width="24.4" height="24.65" shape-rendering="crispEdges"/><rect fill="#004578" x="24.4" y="221.1" width="122" height="24.65" shape-rendering="crispEdges"/><rect fill="#000000" x="146.4" y="221.1" width="24.4" height="24.65" shape-rendering="crispEdges"/><rect fill="#004578" x="170.8" y="221.1" width="134.2" height="24.65" shape-rendering="crispEdges"/><rect fill="#000000" x="305" y="221.1" width="24.4" height="24.65" shape-rendering="crispEdges"/><rect fill="#004578" x="329.4" y="221.1" width="134.2" height="24.65" shape-rendering="crispEdges"/><rect fill="#000000" x="463.6" y="221.1" width="24.4" height="24.65" shape-rendering="crispEdges"/><rect fill="#fea62b" x="488" y="221.1" width="134.2" height="24.65" shape-rendering="crispEdges"/><rect fill="#000000" x="622.2" y="221.1" width="24.4" height="24.65" shape-rendering="crispEdges"/><rect fill="#000000" x="0" y="245.5" width="24.4" height="24.65" shape-rendering="crispEdges"/><rect fill="#000000" x="24.4" y="245.5" width="597.8" height="24.65" shape-rendering="crispEdges"/><rect fill="#000000" x="622.2" y="245.5" width="24.4" height="24.65" shape-rendering="crispEdges"/><rect fill="#000000" x="0" y="269.9" width="24.4" height="24.65" shape-rendering="crispEdges"/><rect fill="#222d34" x="24.4" y="269.9" width="122" height="24.65" shape-rendering="crispEdges"/><rect fill="#000000" x="146.4" y="269.9" width="24.4" height="24.65" shape-rendering="crispEdges"/><rect fill="#222d34" x="170.8" y="269.9" width="134.2" height="24.65" shape-rendering="crispEdges"/><rect fill="#000000" x="305" y="269.9" width="24.4" height="24.65" shape-rendering="crispEdges"/><rect fill="#222d34" x="329.4" y="269.9" width="134.2" height="24.65" shape-rendering="crispEdges"/><rect fill="#000000" x="463.6" y="269.9" width="24.4" height="24.65" shape-rendering="crispEdges"/><rect fill="#fea62b" x="488" y="269.9" width="134.2" height="24.65" shape-rendering="crispEdges"/><rect fill="#000000" x="622.2" y="269.9" width="24.4" height="24.65" shape-rendering="crispEdges"/><rect fill="#000000" x="0" y="294.3" width="24.4" height="24.65" shape-rendering="crispEdges"/><rect fill="#222d34" x="24.4" y="294.3" width="36.6" height="24.65" shape-rendering="crispEdges"/><rect fill="#222d34" x="61" y="294.3" width="36.6" height="24.65" shape-rendering="crispEdges"/><rect fill="#222d34" x="97.6" y="294.3" width="48.8" height="24.65" shape-rendering="crispEdges"/><rect fill="#000000" x="146.4" y="294.3" width="24.4" height="24.65" shape-rendering="crispEdges"/><rect fill="#222d34" x="170.8" y="294.3" width="48.8" height="24.65" shape-rendering="crispEdges"/><rect fill="#222d34" x="219.6" y="294.3" width="36.6" height="24.65" shape-rendering="crispEdges"/><rect fill="#222d34" x="256.2" y="294.3" width="48.8" height="24.65" shape-rendering="crispEdges"/><rect fill="#000000" x="305" y="294.3" width="24.4" height="24.65" shape-rendering="crispEdges"/><rect fill="#222d34" x="329.4" y="294.3" width="48.8" height="24.65" shape-rendering="crispEdges"/><rect fill="#222d34" x="378.2" y="294.3" width="36.6" height="24.65" shape-rendering="crispEdges"/><rect fill="#222d34" x="414.8" y="294.3" width="48.8" height="24.65" shape-rendering="crispEdges"/><rect fill="#000000" x="463.6" y="294.3" width="24.4" height="24.65" shape-rendering="crispEdges"/><rect fill="#fea62b" x="488" y="294.3" width="48.8" height="24.65" shape-rendering="crispEdges"/><rect fill="#fea62b" x="536.8" y="294.3" width="36.6" height="24.65" shape-rendering="crispEdges"/><rect fill="#fea62b" x="573.4" y="294.3" width="48.8" height="24.65" shape-rendering="crispEdges"/><rect fill="#000000" x="622.2" y="294.3" width="24.4" height="24.65" shape-rendering="crispEdges"/><rect fill="#000000" x="0" y="318.7" width="24.4" height="24.65" shape-rendering="crispEdges"/><rect fill="#222d34" x="24.4" y="318.7" width="122" height="24.65" shape-rendering="crispEdges"/><rect fill="#000000" x="146.4" y="318.7" width="24.4" height="24.65" shape-rendering="crispEdges"/><rect fill="#222d34" x="170.8" y="318.7" width="134.2" height="24.65" shape-rendering="crispEdges"/><rect fill="#000000" x="305" y="318.7" width="24.4" height="24.65" shape-rendering="crispEdges"/><rect fill="#222d34" x="329.4" y="318.7" width="134.2" height="24.65" shape-rendering="crispEdges"/><rect fill="#000000" x="463.6" y="318.7" width="24.4" height="24.65" shape-rendering="crispEdges"/><rect fill="#fea62b" x="488" y="318.7" width="134.2" height="24.65" shape-rendering="crispEdges"/><rect fill="#000000" x="622.2" y="318.7" width="24.4" height="24.65" shape-rendering="crispEdges"/><rect fill="#000000" x="0" y="343.1" width="24.4" height="24.65" shape-rendering="crispEdges"/><rect fill="#000000" x="24.4" y="343.1" width="597.8" height="24.65" shape-rendering="crispEdges"/><rect fill="#000000" x="622.2" y="343.1" width="24.4" height="24.65" shape-rendering="crispEdges"/><rect fill="#000000" x="0" y="367.5" width="24.4" height="24.65" shape-rendering="crispEdges"/><rect fill="#222d34" x="24.4" y="367.5" width="122" height="24.65" shape-rendering="crispEdges"/><rect fill="#000000" x="146.4" y="367.5" width="24.4" height="24.65" shape-rendering="crispEdges"/><rect fill="#222d34" x="170.8" y="367.5" width="134.2" height="24.65" shape-rendering="crispEdges"/><rect fill="#000000" x="305" y="367.5" width="24.4" height="24.65" shape-rendering="crispEdges"/><rect fill="#222d34" x="329.4" y="367.5" width="134.2" height="24.65" shape-rendering="crispEdges"/><rect fill="#000000" x="463.6" y="367.5" width="24.4" height="24.65" shape-rendering="crispEdges"/><rect fill="#fea62b" x="488" y="367.5" width="134.2" height="24.65" shape-rendering="crispEdges"/><rect fill="#000000" x="622.2" y="367.5" width="24.4" height="24.65" shape-rendering="crispEdges"/><rect fill="#000000" x="0" y="391.9" width="24.4" height="24.65" shape-rendering="crispEdges"/><rect fill="#222d34" x="24.4" y="391.9" width="36.6" height="24.65" shape-rendering="crispEdges"/><rect fill="#222d34" x="61" y="391.9" width="36.6" height="24.65" shape-rendering="crispEdges"/><rect fill="#222d34" x="97.6" y="391.9" width="48.8" height="24.65" shape-rendering="crispEdges"/><rect fill="#000000" x="146.4" y="391.9" width="24.4" height="24.65" shape-rendering="crispEdges"/><rect fill="#222d34" x="170.8" y="391.9" width="48.8" height="24.65" shape-rendering="crispEdges"/><rect fill="#222d34" x="219.6" y="391.9" width="36.6" height="24.65" shape-rendering="crispEdges"/><rect fill="#222d34" x="256.2" y="391.9" width="48.8" height="24.65" shape-rendering="crispEdges"/><rect fill="#000000" x="305" y="391.9" width="24.4" height="24.65" shape-rendering="crispEdges"/><rect fill="#222d34" x="329.4" y="391.9" width="48.8" height="24.65" shape-rendering="crispEdges"/><rect fill="#222d34" x="378.2" y="391.9" width="36.6" height="24.65" shape-rendering="crispEdges"/><rect fill="#222d34" x="414.8" y="391.9" width="48.8" height="24.65" shape-rendering="crispEdges"/><rect fill="#000000" x="463.6" y="391.9" width="24.4" height="24.65" shape-rendering="crispEdges"/><rect fill="#fea62b" x="488" y="391.9" width="48.8" height="24.65" shape-rendering="crispEdges"/><rect fill="#fea62b" x="536.8" y="391.9" width="36.6" height="24.65" shape-rendering="crispEdges"/><rect fill="#fea62b" x="573.4" y="391.9" width="48.8" height="24.65" shape-rendering="crispEdges"/><rect fill="#000000" x="622.2" y="391.9" width="24.4" height="24.65" shape-rendering="crispEdges"/><rect fill="#000000" x="0" y="416.3" width="24.4" height="24.65" shape-rendering="crispEdges"/><rect fill="#222d34" x="24.4" y="416.3" width="122" height="24.65" shape-rendering="crispEdges"/><rect fill="#000000" x="146.4" y="416.3" width="24.4" height="24.65" shape-rendering="crispEdges"/><rect fill="#222d34" x="170.8" y="416.3" width="134.2" height="24.65" shape-rendering="crispEdges"/><rect fill="#000000" x="305" y="416.3" width="24.4" height="24.65" shape-rendering="crispEdges"/><rect fill="#222d34" x="329.4" y="416.3" width="134.2" height="24.65" shape-rendering="crispEdges"/><rect fill="#000000" x="463.6" y="416.3" width="24.4" height="24.65" shape-rendering="crispEdges"/><rect fill="#fea62b" x="488" y="416.3" width="134.2" height="24.65" shape-rendering="crispEdges"/><rect fill="#000000" x="622.2" y="416.3" width="24.4" height="24.65" shape-rendering="crispEdges"/><rect fill="#000000" x="0" y="440.7" width="24.4" height="24.65" shape-rendering="crispEdges"/><rect fill="#000000" x="24.4" y="440.7" width="597.8" height="24.65" shape-rendering="crispEdges"/><rect fill="#000000" x="622.2" y="440.7" width="24.4" height="24.65" shape-rendering="crispEdges"/><rect fill="#000000" x="0" y="465.1" width="24.4" height="24.65" shape-rendering="crispEdges"/><rect fill="#222d34" x="24.4" y="465.1" width="122" height="24.65" shape-rendering="crispEdges"/><rect fill="#000000" x="146.4" y="465.1" width="24.4" height="24.65" shape-rendering="crispEdges"/><rect fill="#222d34" x="170.8" y="465.1" width="134.2" height="24.65" shape-rendering="crispEdges"/><rect fill="#000000" x="305" y="465.1" width="24.4" height="24.65" shape-rendering="crispEdges"/><rect fill="#222d34" x="329.4" y="465.1" width="134.2" height="24.65" shape-rendering="crispEdges"/><rect fill="#000000" x="463.6" y="465.1" width="24.4" height="24.65" shape-rendering="crispEdges"/><rect fill="#fea62b" x="488" y="465.1" width="134.2" height="24.65" shape-rendering="crispEdges"/><rect fill="#000000" x="622.2" y="465.1" width="24.4" height="24.65" shape-rendering="crispEdges"/><rect fill="#000000" x="0" y="489.5" width="24.4" height="24.65" shape-rendering="crispEdges"/><rect fill="#222d34" x="24.4" y="489.5" width="36.6" height="24.65" shape-rendering="crispEdges"/><rect fill="#222d34" x="61" y="489.5" width="36.6" height="24.65" shape-rendering="crispEdges"/><rect fill="#222d34" x="97.6" y="489.5" width="48.8" height="24.65" shape-rendering="crispEdges"/><rect fill="#000000" x="146.4" y="489.5" width="24.4" height="24.65" shape-rendering="crispEdges"/><rect fill="#222d34" x="170.8" y="489.5" width="48.8" height="24.65" shape-rendering="crispEdges"/><rect fill="#222d34" x="219.6" y="489.5" width="36.6" height="24.65" shape-rendering="crispEdges"/><rect fill="#222d34" x="256.2" y="489.5" width="48.8" height="24.65" shape-rendering="crispEdges"/><rect fill="#000000" x="305" y="489.5" width="24.4" height="24.65" shape-rendering="crispEdges"/><rect fill="#222d34" x="329.4" y="489.5" width="48.8" height="24.65" shape-rendering="crispEdges"/><rect fill="#222d34" x="378.2" y="489.5" width="36.6" height="24.65" shape-rendering="crispEdges"/><rect fill="#222d34" x="414.8" y="489.5" width="48.8" height="24.65" shape-rendering="crispEdges"/><rect fill="#000000" x="463.6" y="489.5" width="24.4" height="24.65" shape-rendering="crispEdges"/><rect fill="#fea62b" x="488" y="489.5" width="48.8" height="24.65" shape-rendering="crispEdges"/><rect fill="#fea62b" x="536.8" y="489.5" width="36.6" height="24.65" shape-rendering="crispEdges"/><rect fill="#fea62b" x="573.4" y="489.5" width="48.8" height="24.65" shape-rendering="crispEdges"/><rect fill="#000000" x="622.2" y="489.5" width="24.4" height="24.65" shape-rendering="crispEdges"/><rect fill="#000000" x="0" y="513.9" width="24.4" height="24.65" shape-rendering="crispEdges"/><rect fill="#222d34" x="24.4" y="513.9" width="122" height="24.65" shape-rendering="crispEdges"/><rect fill="#000000" x="146.4" y="513.9" width="24.4" height="24.65" shape-rendering="crispEdges"/><rect fill="#222d34" x="170.8" y="513.9" width="134.2" height="24.65" shape-rendering="crispEdges"/><rect fill="#000000" x="305" y="513.9" width="24.4" height="24.65" shape-rendering="crispEdges"/><rect fill="#222d34" x="329.4" y="513.9" width="134.2" height="24.65" shape-rendering="crispEdges"/><rect fill="#000000" x="463.6" y="513.9" width="24.4" height="24.65" shape-rendering="crispEdges"/><rect fill="#fea62b" x="488" y="513.9" width="134.2" height="24.65" shape-rendering="crispEdges"/><rect fill="#000000" x="622.2" y="513.9" width="24.4" height="24.65" shape-rendering="crispEdges"/><rect fill="#000000" x="0" y="538.3" width="24.4" height="24.65" shape-rendering="crispEdges"/><rect fill="#000000" x="24.4" y="538.3" width="597.8" height="24.65" shape-rendering="crispEdges"/><rect fill="#000000" x="622.2" y="538.3" width="24.4" height="24.65" shape-rendering="crispEdges"/><rect fill="#000000" x="0" y="562.7" width="24.4" height="24.65" shape-rendering="crispEdges"/><rect fill="#222d34" x="24.4" y="562.7" width="280.6" height="24.65" shape-rendering="crispEdges"/><rect fill="#000000" x="305" y="562.7" width="24.4" height="24.65" shape-rendering="crispEdges"/><rect fill="#222d34" x="329.4" y="562.7" width="134.2" height="24.65" shape-rendering="crispEdges"/><rect fill="#000000" x="463.6" y="562.7" width="24.4" height="24.65" shape-rendering="crispEdges"/><rect fill="#fea62b" x="488" y="562.7" width="134.2" height="24.65" shape-rendering="crispEdges"/><rect fill="#000000" x="622.2" y="562.7" width="24.4" height="24.65" shape-rendering="crispEdges"/><rect fill="#000000" x="0" y="587.1" width="24.4" height="24.65" shape-rendering="crispEdges"/><rect fill="#222d34" x="24.4" y="587.1" width="122" height="24.65" shape-rendering="crispEdges"/><rect fill="#222d34" x="146.4" y="587.1" width="36.6" height="24.65" shape-rendering="crispEdges"/><rect fill="#222d34" x="183" y="587.1" width="122" height="24.65" shape-rendering="crispEdges"/><rect fill="#000000" x="305" y="587.1" width="24.4" height="24.65" shape-rendering="crispEdges"/><rect fill="#222d34" x="329.4" y="587.1" width="48.8" height="24.65" shape-rendering="crispEdges"/><rect fill="#222d34" x="378.2" y="587.1" width="36.6" height="24.65" shape-rendering="crispEdges"/><rect fill="#222d34" x="414.8" y="587.1" width="48.8" height="24.65" shape-rendering="crispEdges"/><rect fill="#000000" x="463.6" y="587.1" width="24.4" height="24.65" shape-rendering="crispEdges"/><rect fill="#fea62b" x="488" y="587.1" width="48.8" height="24.65" shape-rendering="crispEdges"/><rect fill="#fea62b" x="536.8" y="587.1" width="36.6" height="24.65" shape-rendering="crispEdges"/><rect fill="#fea62b" x="573.4" y="587.1" width="48.8" height="24.65" shape-rendering="crispEdges"/><rect fill="#000000" x="622.2" y="587.1" width="24.4" height="24.65" shape-rendering="crispEdges"/><rect fill="#000000" x="0" y="611.5" width="24.4" height="24.65" shape-rendering="crispEdges"/><rect fill="#222d34" x="24.4" y="611.5" width="280.6" height="24.65" shape-rendering="crispEdges"/><rect fill="#000000" x="305" y="611.5" width="24.4" height="24.65" shape-rendering="crispEdges"/><rect fill="#222d34" x="329.4" y="611.5" width="134.2" height="24.65" shape-rendering="crispEdges"/><rect fill="#000000" x="463.6" y="611.5" width="24.4" height="24.65" shape-rendering="crispEdges"/><rect fill="#fea62b" x="488" y="611.5" width="134.2" height="24.65" shape-rendering="crispEdges"/><rect fill="#000000" x="622.2" y="611.5" width="24.4" height="24.65" shape-rendering="crispEdges"/><rect fill="#000000" x="0" y="635.9" width="646.6" height="24.65" shape-rendering="crispEdges"/>
    <g class="terminal-620031838-matrix">
    <text class="terminal-620031838-r2" x="646.6" y="20" textLength="12.2" clip-path="url(#terminal-620031838-line-0)">
</text><text class="terminal-620031838-r2" x="646.6" y="44.4" textLength="12.2" clip-path="url(#terminal-620031838-line-1)">
</text><text class="terminal-620031838-r2" x="646.6" y="68.8" textLength="12.2" clip-path="url(#terminal-620031838-line-2)">
</text><text class="terminal-620031838-r3" x="597.8" y="93.2" textLength="12.2" clip-path="url(#terminal-620031838-line-3)">0</text><text class="terminal-620031838-r2" x="646.6" y="93.2" textLength="12.2" clip-path="url(#terminal-620031838-line-3)">
</text><text class="terminal-620031838-r2" x="646.6" y="117.6" textLength="12.2" clip-path="url(#terminal-620031838-line-4)">
</text><text class="terminal-620031838-r2" x="646.6" y="142" textLength="12.2" clip-path="url(#terminal-620031838-line-5)">
</text><text class="terminal-620031838-r2" x="646.6" y="166.4" textLength="12.2" clip-path="url(#terminal-620031838-line-6)">
</text><text class="terminal-620031838-r4" x="24.4" y="190.8" textLength="122" clip-path="url(#terminal-620031838-line-7)">▔▔▔▔▔▔▔▔▔▔</text><text class="terminal-620031838-r4" x="170.8" y="190.8" textLength="134.2" clip-path="url(#terminal-620031838-line-7)">▔▔▔▔▔▔▔▔▔▔▔</text><text class="terminal-620031838-r4" x="329.4" y="190.8" textLength="134.2" clip-path="url(#terminal-620031838-line-7)">▔▔▔▔▔▔▔▔▔▔▔</text><text class="terminal-620031838-r5" x="488" y="190.8" textLength="134.2" clip-path="url(#terminal-620031838-line-7)">▔▔▔▔▔▔▔▔▔▔▔</text><text class="terminal-620031838-r2" x="646.6" y="190.8" textLength="12.2" clip-path="url(#terminal-620031838-line-7)">
</text><text class="terminal-620031838-r6" x="61" y="215.2" textLength="48.8" clip-path="url(#terminal-620031838-line-8)">&#160;AC&#160;</text><text class="terminal-620031838-r6" x="207.4" y="215.2" textLength="61" clip-path="url(#terminal-620031838-line-8)">&#160;+/-&#160;</text><text class="terminal-620031838-r6" x="378.2" y="215.2" textLength="36.6" clip-path="url(#terminal-620031838-line-8)">&#160;%&#160;</text><text class="terminal-620031838-r7" x="536.8" y="215.2" textLength="36.6" clip-path="url(#terminal-620031838-line-8)">&#160;÷&#160;</text><text class="terminal-620031838-r2" x="646.6" y="215.2" textLength="12.2" clip-path="url(#terminal-620031838-line-8)">
</text><text class="terminal-620031838-r8" x="24.4" y="239.6" textLength="122" clip-path="url(#terminal-620031838-line-9)">▁▁▁▁▁▁▁▁▁▁</text><text class="terminal-620031838-r8" x="170.8" y="239.6" textLength="134.2" clip-path="url(#terminal-620031838-line-9)">▁▁▁▁▁▁▁▁▁▁▁</text><text class="terminal-620031838-r8" x="329.4" y="239.6" textLength="134.2" clip-path="url(#terminal-620031838-line-9)">▁▁▁▁▁▁▁▁▁▁▁</text><text class="terminal-620031838-r9" x="488" y="239.6" textLength="134.2" clip-path="url(#terminal-620031838-line-9)">▁▁▁▁▁▁▁▁▁▁▁</text><text class="terminal-620031838-r2" x="646.6" y="239.6" textLength="12.2" clip-path="url(#terminal-620031838-line-9)">
</text><text class="terminal-620031838-r2" x="646.6" y="264" textLength="12.2" clip-path="url(#terminal-620031838-line-10)">
</text><text class="terminal-620031838-r10" x="24.4" y="288.4" textLength="122" clip-path="url(#terminal-620031838-line-11)">▔▔▔▔▔▔▔▔▔▔</text><text class="terminal-620031838-r10" x="170.8" y="288.4" textLength="134.2" clip-path="url(#terminal-620031838-line-11)">▔▔▔▔▔▔▔▔▔▔▔</text><text class="terminal-620031838-r10" x="329.4" y="288.4" textLength="134.2" clip-path="url(#terminal-620031838-line-11)">▔▔▔▔▔▔▔▔▔▔▔</text><text class="terminal-620031838-r5" x="488" y="288.4" textLength="134.2" clip-path="url(#terminal-620031838-line-11)">▔▔▔▔▔▔▔▔▔▔▔</text><text class="terminal-620031838-r2" x="646.6" y="288.4" textLength="12.2" clip-path="url(#terminal-620031838-line-11)">
</text><text class="terminal-620031838-r11" x="61" y="312.8" textLength="36.6" clip-path="url(#terminal-620031838-line-12)">&#160;7&#160;</text><text class="terminal-620031838-r11" x="219.6" y="312.8" textLength="36.6" clip-path="url(#terminal-620031838-line-12)">&#160;8&#160;</text><text class="terminal-620031838-r11" x="378.2" y="312.8" textLength="36.6" clip-path="url(#terminal-620031838-line-12)">&#160;9&#160;</text><text class="terminal-620031838-r7" x="536.8" y="312.8" textLength="36.6" clip-path="url(#terminal-620031838-line-12)">&#160;×&#160;</text><text class="terminal-620031838-r2" x="646.6" y="312.8" textLength="12.2" clip-path="url(#terminal-620031838-line-12)">
</text><text class="terminal-620031838-r12" x="24.4" y="337.2" textLength="122" clip-path="url(#terminal-620031838-line-13)">▁▁▁▁▁▁▁▁▁▁</text><text class="terminal-620031838-r12" x="170.8" y="337.2" textLength="134.2" clip-path="url(#terminal-620031838-line-13)">▁▁▁▁▁▁▁▁▁▁▁</text><text class="terminal-620031838-r12" x="329.4" y="337.2" textLength="134.2" clip-path="url(#terminal-620031838-line-13)">▁▁▁▁▁▁▁▁▁▁▁</text><text class="terminal-620031838-r9" x="488" y="337.2" textLength="134.2" clip-path="url(#terminal-620031838-line-13)">▁▁▁▁▁▁▁▁▁▁▁</text><text class="terminal-620031838-r2" x="646.6" y="337.2" textLength="12.2" clip-path="url(#terminal-620031838-line-13)">
</text><text class="terminal-620031838-r2" x="646.6" y="361.6" textLength="12.2" clip-path="url(#terminal-620031838-line-14)">
</text><text class="terminal-620031838-r10" x="24.4" y="386" textLength="122" clip-path="url(#terminal-620031838-line-15)">▔▔▔▔▔▔▔▔▔▔</text><text class="terminal-620031838-r10" x="170.8" y="386" textLength="134.2" clip-path="url(#terminal-620031838-line-15)">▔▔▔▔▔▔▔▔▔▔▔</text><text class="terminal-620031838-r10" x="329.4" y="386" textLength="134.2" clip-path="url(#terminal-620031838-line-15)">▔▔▔▔▔▔▔▔▔▔▔</text><text class="terminal-620031838-r5" x="488" y="386" textLength="134.2" clip-path="url(#terminal-620031838-line-15)">▔▔▔▔▔▔▔▔▔▔▔</text><text class="terminal-620031838-r2" x="646.6" y="386" textLength="12.2" clip-path="url(#terminal-620031838-line-15)">
</text><text class="terminal-620031838-r11" x="61" y="410.4" textLength="36.6" clip-path="url(#terminal-620031838-line-16)">&#160;4&#160;</text><text class="terminal-620031838-r11" x="219.6" y="410.4" textLength="36.6" clip-path="url(#terminal-620031838-line-16)">&#160;5&#160;</text><text class="terminal-620031838-r11" x="378.2" y="410.4" textLength="36.6" clip-path="url(#terminal-620031838-line-16)">&#160;6&#160;</text><text class="terminal-620031838-r7" x="536.8" y="410.4" textLength="36.6" clip-path="url(#terminal-620031838-line-16)">&#160;-&#160;</text><text class="terminal-620031838-r2" x="646.6" y="410.4" textLength="12.2" clip-path="url(#terminal-620031838-line-16)">
</text><text class="terminal-620031838-r12" x="24.4" y="434.8" textLength="122" clip-path="url(#terminal-620031838-line-17)">▁▁▁▁▁▁▁▁▁▁</text><text class="terminal-620031838-r12" x="170.8" y="434.8" textLength="134.2" clip-path="url(#terminal-620031838-line-17)">▁▁▁▁▁▁▁▁▁▁▁</text><text class="terminal-620031838-r12" x="329.4" y="434.8" textLength="134.2" clip-path="url(#terminal-620031838-line-17)">▁▁▁▁▁▁▁▁▁▁▁</text><text class="terminal-620031838-r9" x="488" y="434.8" textLength="134.2" clip-path="url(#terminal-620031838-line-17)">▁▁▁▁▁▁▁▁▁▁▁</text><text class="terminal-620031838-r2" x="646.6" y="434.8" textLength="12.2" clip-path="url(#terminal-620031838-line-17)">
</text><text class="terminal-620031838-r2" x="646.6" y="459.2" textLength="12.2" clip-path="url(#terminal-620031838-line-18)">
</text><text class="terminal-620031838-r10" x="24.4" y="483.6" textLength="122" clip-path="url(#terminal-620031838-line-19)">▔▔▔▔▔▔▔▔▔▔</text><text class="terminal-620031838-r10" x="170.8" y="483.6" textLength="134.2" clip-path="url(#terminal-620031838-line-19)">▔▔▔▔▔▔▔▔▔▔▔</text><text class="terminal-620031838-r10" x="329.4" y="483.6" textLength="134.2" clip-path="url(#terminal-620031838-line-19)">▔▔▔▔▔▔▔▔▔▔▔</text><text class="terminal-620031838-r5" x="488" y="483.6" textLength="134.2" clip-path="url(#terminal-620031838-line-19)">▔▔▔▔▔▔▔▔▔▔▔</text><text class="terminal-620031838-r2" x="646.6" y="483.6" textLength="12.2" clip-path="url(#terminal-620031838-line-19)">
</text><text class="terminal-620031838-r11" x="61" y="508" textLength="36.6" clip-path="url(#terminal-620031838-line-20)">&#160;1&#160;</text><text class="terminal-620031838-r11" x="219.6" y="508" textLength="36.6" clip-path="url(#terminal-620031838-line-20)">&#160;2&#160;</text><text class="terminal-620031838-r11" x="378.2" y="508" textLength="36.6" clip-path="url(#terminal-620031838-line-20)">&#160;3&#160;</text><text class="terminal-620031838-r7" x="536.8" y="508" textLength="36.6" clip-path="url(#terminal-620031838-line-20)">&#160;+&#160;</text><text class="terminal-620031838-r2" x="646.6" y="508" textLength="12.2" clip-path="url(#terminal-620031838-line-20)">
</text><text class="terminal-620031838-r12" x="24.4" y="532.4" textLength="122" clip-path="url(#terminal-620031838-line-21)">▁▁▁▁▁▁▁▁▁▁</text><text class="terminal-620031838-r12" x="170.8" y="532.4" textLength="134.2" clip-path="url(#terminal-620031838-line-21)">▁▁▁▁▁▁▁▁▁▁▁</text><text class="terminal-620031838-r12" x="329.4" y="532.4" textLength="134.2" clip-path="url(#terminal-620031838-line-21)">▁▁▁▁▁▁▁▁▁▁▁</text><text class="terminal-620031838-r9" x="488" y="532.4" textLength="134.2" clip-path="url(#terminal-620031838-line-21)">▁▁▁▁▁▁▁▁▁▁▁</text><text class="terminal-620031838-r2" x="646.6" y="532.4" textLength="12.2" clip-path="url(#terminal-620031838-line-21)">
</text><text class="terminal-620031838-r2" x="646.6" y="556.8" textLength="12.2" clip-path="url(#terminal-620031838-line-22)">
</text><text class="terminal-620031838-r10" x="24.4" y="581.2" textLength="280.6" clip-path="url(#terminal-620031838-line-23)">▔▔▔▔▔▔▔▔▔▔▔▔▔▔▔▔▔▔▔▔▔▔▔</text><text class="terminal-620031838-r10" x="329.4" y="581.2" textLength="134.2" clip-path="url(#terminal-620031838-line-23)">▔▔▔▔▔▔▔▔▔▔▔</text><text class="terminal-620031838-r5" x="488" y="581.2" textLength="134.2" clip-path="url(#terminal-620031838-line-23)">▔▔▔▔▔▔▔▔▔▔▔</text><text class="terminal-620031838-r2" x="646.6" y="581.2" textLength="12.2" clip-path="url(#terminal-620031838-line-23)">
</text><text class="terminal-620031838-r11" x="146.4" y="605.6" textLength="36.6" clip-path="url(#terminal-620031838-line-24)">&#160;0&#160;</text><text class="terminal-620031838-r11" x="378.2" y="605.6" textLength="36.6" clip-path="url(#terminal-620031838-line-24)">&#160;.&#160;</text><text class="terminal-620031838-r7" x="536.8" y="605.6" textLength="36.6" clip-path="url(#terminal-620031838-line-24)">&#160;=&#160;</text><text class="terminal-620031838-r2" x="646.6" y="605.6" textLength="12.2" clip-path="url(#terminal-620031838-line-24)">
</text><text class="terminal-620031838-r12" x="24.4" y="630" textLength="280.6" clip-path="url(#terminal-620031838-line-25)">▁▁▁▁▁▁▁▁▁▁▁▁▁▁▁▁▁▁▁▁▁▁▁</text><text class="terminal-620031838-r12" x="329.4" y="630" textLength="134.2" clip-path="url(#terminal-620031838-line-25)">▁▁▁▁▁▁▁▁▁▁▁</text><text class="terminal-620031838-r9" x="488" y="630" textLength="134.2" clip-path="url(#terminal-620031838-line-25)">▁▁▁▁▁▁▁▁▁▁▁</text><text class="terminal-620031838-r2" x="646.6" y="630" textLength="12.2" clip-path="url(#terminal-620031838-line-25)">
</text>
    </g>
    </g>
</svg>
