<svg class="rich-terminal" viewBox="0 0 1043 708.8" xmlns="http://www.w3.org/2000/svg">
    <!-- Generated with Rich https://www.textualize.io -->
    <style>

    @font-face {
        font-family: "Fira Code";
        src: local("FiraCode-Regular"),
                url("https://cdnjs.cloudflare.com/ajax/libs/firacode/6.2.0/woff2/FiraCode-Regular.woff2") format("woff2"),
                url("https://cdnjs.cloudflare.com/ajax/libs/firacode/6.2.0/woff/FiraCode-Regular.woff") format("woff");
        font-style: normal;
        font-weight: 400;
    }
    @font-face {
        font-family: "Fira Code";
        src: local("FiraCode-Bold"),
                url("https://cdnjs.cloudflare.com/ajax/libs/firacode/6.2.0/woff2/FiraCode-Bold.woff2") format("woff2"),
                url("https://cdnjs.cloudflare.com/ajax/libs/firacode/6.2.0/woff/FiraCode-Bold.woff") format("woff");
        font-style: bold;
        font-weight: 700;
    }

    .terminal-2623053938-matrix {
        font-family: Fira Code, monospace;
        font-size: 20px;
        line-height: 24.4px;
        font-variant-east-asian: full-width;
    }

    .terminal-2623053938-title {
        font-size: 18px;
        font-weight: bold;
        font-family: arial;
    }

    .terminal-2623053938-r1 { fill: #f2f2f2 }
.terminal-2623053938-r2 { fill: #c5c8c6 }
.terminal-2623053938-r3 { fill: #f5f7fa }
.terminal-2623053938-r4 { fill: #507bb3 }
.terminal-2623053938-r5 { fill: #ffcf56 }
.terminal-2623053938-r6 { fill: #f2f5f8;font-weight: bold }
.terminal-2623053938-r7 { fill: #0c0802;font-weight: bold }
.terminal-2623053938-r8 { fill: #001541 }
.terminal-2623053938-r9 { fill: #b86b00 }
.terminal-2623053938-r10 { fill: #323d44 }
.terminal-2623053938-r11 { fill: #f3f4f4;font-weight: bold }
.terminal-2623053938-r12 { fill: #09151c }
    </style>

    <defs>
    <clipPath id="terminal-2623053938-clip-terminal">
      <rect x="0" y="0" width="1023.8" height="657.8" />
    </clipPath>
    <clipPath id="terminal-2623053938-line-0">
    <rect x="0" y="1.5" width="1024.8" height="24.65"/>
            </clipPath>
<clipPath id="terminal-2623053938-line-1">
    <rect x="0" y="25.9" width="1024.8" height="24.65"/>
            </clipPath>
<clipPath id="terminal-2623053938-line-2">
    <rect x="0" y="50.3" width="1024.8" height="24.65"/>
            </clipPath>
<clipPath id="terminal-2623053938-line-3">
    <rect x="0" y="74.7" width="1024.8" height="24.65"/>
            </clipPath>
<clipPath id="terminal-2623053938-line-4">
    <rect x="0" y="99.1" width="1024.8" height="24.65"/>
            </clipPath>
<clipPath id="terminal-2623053938-line-5">
    <rect x="0" y="123.5" width="1024.8" height="24.65"/>
            </clipPath>
<clipPath id="terminal-2623053938-line-6">
    <rect x="0" y="147.9" width="1024.8" height="24.65"/>
            </clipPath>
<clipPath id="terminal-2623053938-line-7">
    <rect x="0" y="172.3" width="1024.8" height="24.65"/>
            </clipPath>
<clipPath id="terminal-2623053938-line-8">
    <rect x="0" y="196.7" width="1024.8" height="24.65"/>
            </clipPath>
<clipPath id="terminal-2623053938-line-9">
    <rect x="0" y="221.1" width="1024.8" height="24.65"/>
            </clipPath>
<clipPath id="terminal-2623053938-line-10">
    <rect x="0" y="245.5" width="1024.8" height="24.65"/>
            </clipPath>
<clipPath id="terminal-2623053938-line-11">
    <rect x="0" y="269.9" width="1024.8" height="24.65"/>
            </clipPath>
<clipPath id="terminal-2623053938-line-12">
    <rect x="0" y="294.3" width="1024.8" height="24.65"/>
            </clipPath>
<clipPath id="terminal-2623053938-line-13">
    <rect x="0" y="318.7" width="1024.8" height="24.65"/>
            </clipPath>
<clipPath id="terminal-2623053938-line-14">
    <rect x="0" y="343.1" width="1024.8" height="24.65"/>
            </clipPath>
<clipPath id="terminal-2623053938-line-15">
    <rect x="0" y="367.5" width="1024.8" height="24.65"/>
            </clipPath>
<clipPath id="terminal-2623053938-line-16">
    <rect x="0" y="391.9" width="1024.8" height="24.65"/>
            </clipPath>
<clipPath id="terminal-2623053938-line-17">
    <rect x="0" y="416.3" width="1024.8" height="24.65"/>
            </clipPath>
<clipPath id="terminal-2623053938-line-18">
    <rect x="0" y="440.7" width="1024.8" height="24.65"/>
            </clipPath>
<clipPath id="terminal-2623053938-line-19">
    <rect x="0" y="465.1" width="1024.8" height="24.65"/>
            </clipPath>
<clipPath id="terminal-2623053938-line-20">
    <rect x="0" y="489.5" width="1024.8" height="24.65"/>
            </clipPath>
<clipPath id="terminal-2623053938-line-21">
    <rect x="0" y="513.9" width="1024.8" height="24.65"/>
            </clipPath>
<clipPath id="terminal-2623053938-line-22">
    <rect x="0" y="538.3" width="1024.8" height="24.65"/>
            </clipPath>
<clipPath id="terminal-2623053938-line-23">
    <rect x="0" y="562.7" width="1024.8" height="24.65"/>
            </clipPath>
<clipPath id="terminal-2623053938-line-24">
    <rect x="0" y="587.1" width="1024.8" height="24.65"/>
            </clipPath>
<clipPath id="terminal-2623053938-line-25">
    <rect x="0" y="611.5" width="1024.8" height="24.65"/>
            </clipPath>
    </defs>

    <rect fill="#292929" stroke="rgba(255,255,255,0.35)" stroke-width="1" x="1" y="1" width="1041" height="706.8" rx="8"/><text class="terminal-2623053938-title" fill="#c5c8c6" text-anchor="middle" x="520" y="27">CalculatorApp</text>
            <g transform="translate(26,22)">
            <circle cx="0" cy="0" r="7" fill="#ff5f57"/>
            <circle cx="22" cy="0" r="7" fill="#febc2e"/>
            <circle cx="44" cy="0" r="7" fill="#28c840"/>
            </g>
        
    <g transform="translate(9, 41)" clip-path="url(#terminal-2623053938-clip-terminal)">
    <rect fill="#000000" x="0" y="1.5" width="1024.8" height="24.65" shape-rendering="crispEdges"/><rect fill="#000000" x="0" y="25.9" width="24.4" height="24.65" shape-rendering="crispEdges"/><rect fill="#3b689f" x="24.4" y="25.9" width="976" height="24.65" shape-rendering="crispEdges"/><rect fill="#000000" x="1000.4" y="25.9" width="24.4" height="24.65" shape-rendering="crispEdges"/><rect fill="#000000" x="0" y="50.3" width="24.4" height="24.65" shape-rendering="crispEdges"/><rect fill="#3b689f" x="24.4" y="50.3" width="976" height="24.65" shape-rendering="crispEdges"/><rect fill="#000000" x="1000.4" y="50.3" width="24.4" height="24.65" shape-rendering="crispEdges"/><rect fill="#000000" x="0" y="74.7" width="24.4" height="24.65" shape-rendering="crispEdges"/><rect fill="#3b689f" x="24.4" y="74.7" width="951.6" height="24.65" shape-rendering="crispEdges"/><rect fill="#3b689f" x="976" y="74.7" width="12.2" height="24.65" shape-rendering="crispEdges"/><rect fill="#3b689f" x="988.2" y="74.7" width="12.2" height="24.65" shape-rendering="crispEdges"/><rect fill="#000000" x="1000.4" y="74.7" width="24.4" height="24.65" shape-rendering="crispEdges"/><rect fill="#000000" x="0" y="99.1" width="24.4" height="24.65" shape-rendering="crispEdges"/><rect fill="#3b689f" x="24.4" y="99.1" width="976" height="24.65" shape-rendering="crispEdges"/><rect fill="#000000" x="1000.4" y="99.1" width="24.4" height="24.65" shape-rendering="crispEdges"/><rect fill="#000000" x="0" y="123.5" width="24.4" height="24.65" shape-rendering="crispEdges"/><rect fill="#3b689f" x="24.4" y="123.5" width="976" height="24.65" shape-rendering="crispEdges"/><rect fill="#000000" x="1000.4" y="123.5" width="24.4" height="24.65" shape-rendering="crispEdges"/><rect fill="#000000" x="0" y="147.9" width="24.4" height="24.65" shape-rendering="crispEdges"/><rect fill="#000000" x="24.4" y="147.9" width="976" height="24.65" shape-rendering="crispEdges"/><rect fill="#000000" x="1000.4" y="147.9" width="24.4" height="24.65" shape-rendering="crispEdges"/><rect fill="#000000" x="0" y="172.3" width="24.4" height="24.65" shape-rendering="crispEdges"/><rect fill="#004578" x="24.4" y="172.3" width="219.6" height="24.65" shape-rendering="crispEdges"/><rect fill="#000000" x="244" y="172.3" width="24.4" height="24.65" shape-rendering="crispEdges"/><rect fill="#004578" x="268.4" y="172.3" width="231.8" height="24.65" shape-rendering="crispEdges"/><rect fill="#000000" x="500.2" y="172.3" width="24.4" height="24.65" shape-rendering="crispEdges"/><rect fill="#004578" x="524.6" y="172.3" width="219.6" height="24.65" shape-rendering="crispEdges"/><rect fill="#000000" x="744.2" y="172.3" width="24.4" height="24.65" shape-rendering="crispEdges"/><rect fill="#fea62b" x="768.6" y="172.3" width="231.8" height="24.65" shape-rendering="crispEdges"/><rect fill="#000000" x="1000.4" y="172.3" width="24.4" height="24.65" shape-rendering="crispEdges"/><rect fill="#000000" x="0" y="196.7" width="24.4" height="24.65" shape-rendering="crispEdges"/><rect fill="#004578" x="24.4" y="196.7" width="85.4" height="24.65" shape-rendering="crispEdges"/><rect fill="#004578" x="109.8" y="196.7" width="48.8" height="24.65" shape-rendering="crispEdges"/><rect fill="#004578" x="158.6" y="196.7" width="85.4" height="24.65" shape-rendering="crispEdges"/><rect fill="#000000" x="244" y="196.7" width="24.4" height="24.65" shape-rendering="crispEdges"/><rect fill="#004578" x="268.4" y="196.7" width="85.4" height="24.65" shape-rendering="crispEdges"/><rect fill="#004578" x="353.8" y="196.7" width="61" height="24.65" shape-rendering="crispEdges"/><rect fill="#004578" x="414.8" y="196.7" width="85.4" height="24.65" shape-rendering="crispEdges"/><rect fill="#000000" x="500.2" y="196.7" width="24.4" height="24.65" shape-rendering="crispEdges"/><rect fill="#004578" x="524.6" y="196.7" width="85.4" height="24.65" shape-rendering="crispEdges"/><rect fill="#004578" x="610" y="196.7" width="36.6" height="24.65" shape-rendering="crispEdges"/><rect fill="#004578" x="646.6" y="196.7" width="97.6" height="24.65" shape-rendering="crispEdges"/><rect fill="#000000" x="744.2" y="196.7" width="24.4" height="24.65" shape-rendering="crispEdges"/><rect fill="#fea62b" x="768.6" y="196.7" width="97.6" height="24.65" shape-rendering="crispEdges"/><rect fill="#fea62b" x="866.2" y="196.7" width="36.6" height="24.65" shape-rendering="crispEdges"/><rect fill="#fea62b" x="902.8" y="196.7" width="97.6" height="24.65" shape-rendering="crispEdges"/><rect fill="#000000" x="1000.4" y="196.7" width="24.4" height="24.65" shape-rendering="crispEdges"/><rect fill="#000000" x="0" y="221.1" width="24.4" height="24.65" shape-rendering="crispEdges"/><rect fill="#004578" x="24.4" y="221.1" width="219.6" height="24.65" shape-rendering="crispEdges"/><rect fill="#000000" x="244" y="221.1" width="24.4" height="24.65" shape-rendering="crispEdges"/><rect fill="#004578" x="268.4" y="221.1" width="231.8" height="24.65" shape-rendering="crispEdges"/><rect fill="#000000" x="500.2" y="221.1" width="24.4" height="24.65" shape-rendering="crispEdges"/><rect fill="#004578" x="524.6" y="221.1" width="219.6" height="24.65" shape-rendering="crispEdges"/><rect fill="#000000" x="744.2" y="221.1" width="24.4" height="24.65" shape-rendering="crispEdges"/><rect fill="#fea62b" x="768.6" y="221.1" width="231.8" height="24.65" shape-rendering="crispEdges"/><rect fill="#000000" x="1000.4" y="221.1" width="24.4" height="24.65" shape-rendering="crispEdges"/><rect fill="#000000" x="0" y="245.5" width="24.4" height="24.65" shape-rendering="crispEdges"/><rect fill="#000000" x="24.4" y="245.5" width="976" height="24.65" shape-rendering="crispEdges"/><rect fill="#000000" x="1000.4" y="245.5" width="24.4" height="24.65" shape-rendering="crispEdges"/><rect fill="#000000" x="0" y="269.9" width="24.4" height="24.65" shape-rendering="crispEdges"/><rect fill="#222d34" x="24.4" y="269.9" width="219.6" height="24.65" shape-rendering="crispEdges"/><rect fill="#000000" x="244" y="269.9" width="24.4" height="24.65" shape-rendering="crispEdges"/><rect fill="#222d34" x="268.4" y="269.9" width="231.8" height="24.65" shape-rendering="crispEdges"/><rect fill="#000000" x="500.2" y="269.9" width="24.4" height="24.65" shape-rendering="crispEdges"/><rect fill="#222d34" x="524.6" y="269.9" width="219.6" height="24.65" shape-rendering="crispEdges"/><rect fill="#000000" x="744.2" y="269.9" width="24.4" height="24.65" shape-rendering="crispEdges"/><rect fill="#fea62b" x="768.6" y="269.9" width="231.8" height="24.65" shape-rendering="crispEdges"/><rect fill="#000000" x="1000.4" y="269.9" width="24.4" height="24.65" shape-rendering="crispEdges"/><rect fill="#000000" x="0" y="294.3" width="24.4" height="24.65" shape-rendering="crispEdges"/><rect fill="#222d34" x="24.4" y="294.3" width="85.4" height="24.65" shape-rendering="crispEdges"/><rect fill="#222d34" x="109.8" y="294.3" width="36.6" height="24.65" shape-rendering="crispEdges"/><rect fill="#222d34" x="146.4" y="294.3" width="97.6" height="24.65" shape-rendering="crispEdges"/><rect fill="#000000" x="244" y="294.3" width="24.4" height="24.65" shape-rendering="crispEdges"/><rect fill="#222d34" x="268.4" y="294.3" width="97.6" height="24.65" shape-rendering="crispEdges"/><rect fill="#222d34" x="366" y="294.3" width="36.6" height="24.65" shape-rendering="crispEdges"/><rect fill="#222d34" x="402.6" y="294.3" width="97.6" height="24.65" shape-rendering="crispEdges"/><rect fill="#000000" x="500.2" y="294.3" width="24.4" height="24.65" shape-rendering="crispEdges"/><rect fill="#222d34" x="524.6" y="294.3" width="85.4" height="24.65" shape-rendering="crispEdges"/><rect fill="#222d34" x="610" y="294.3" width="36.6" height="24.65" shape-rendering="crispEdges"/><rect fill="#222d34" x="646.6" y="294.3" width="97.6" height="24.65" shape-rendering="crispEdges"/><rect fill="#000000" x="744.2" y="294.3" width="24.4" height="24.65" shape-rendering="crispEdges"/><rect fill="#fea62b" x="768.6" y="294.3" width="97.6" height="24.65" shape-rendering="crispEdges"/><rect fill="#fea62b" x="866.2" y="294.3" width="36.6" height="24.65" shape-rendering="crispEdges"/><rect fill="#fea62b" x="902.8" y="294.3" width="97.6" height="24.65" shape-rendering="crispEdges"/><rect fill="#000000" x="1000.4" y="294.3" width="24.4" height="24.65" shape-rendering="crispEdges"/><rect fill="#000000" x="0" y="318.7" width="24.4" height="24.65" shape-rendering="crispEdges"/><rect fill="#222d34" x="24.4" y="318.7" width="219.6" height="24.65" shape-rendering="crispEdges"/><rect fill="#000000" x="244" y="318.7" width="24.4" height="24.65" shape-rendering="crispEdges"/><rect fill="#222d34" x="268.4" y="318.7" width="231.8" height="24.65" shape-rendering="crispEdges"/><rect fill="#000000" x="500.2" y="318.7" width="24.4" height="24.65" shape-rendering="crispEdges"/><rect fill="#222d34" x="524.6" y="318.7" width="219.6" height="24.65" shape-rendering="crispEdges"/><rect fill="#000000" x="744.2" y="318.7" width="24.4" height="24.65" shape-rendering="crispEdges"/><rect fill="#fea62b" x="768.6" y="318.7" width="231.8" height="24.65" shape-rendering="crispEdges"/><rect fill="#000000" x="1000.4" y="318.7" width="24.4" height="24.65" shape-rendering="crispEdges"/><rect fill="#000000" x="0" y="343.1" width="24.4" height="24.65" shape-rendering="crispEdges"/><rect fill="#000000" x="24.4" y="343.1" width="976" height="24.65" shape-rendering="crispEdges"/><rect fill="#000000" x="1000.4" y="343.1" width="24.4" height="24.65" shape-rendering="crispEdges"/><rect fill="#000000" x="0" y="367.5" width="24.4" height="24.65" shape-rendering="crispEdges"/><rect fill="#222d34" x="24.4" y="367.5" width="219.6" height="24.65" shape-rendering="crispEdges"/><rect fill="#000000" x="244" y="367.5" width="24.4" height="24.65" shape-rendering="crispEdges"/><rect fill="#222d34" x="268.4" y="367.5" width="231.8" height="24.65" shape-rendering="crispEdges"/><rect fill="#000000" x="500.2" y="367.5" width="24.4" height="24.65" shape-rendering="crispEdges"/><rect fill="#222d34" x="524.6" y="367.5" width="219.6" height="24.65" shape-rendering="crispEdges"/><rect fill="#000000" x="744.2" y="367.5" width="24.4" height="24.65" shape-rendering="crispEdges"/><rect fill="#fea62b" x="768.6" y="367.5" width="231.8" height="24.65" shape-rendering="crispEdges"/><rect fill="#000000" x="1000.4" y="367.5" width="24.4" height="24.65" shape-rendering="crispEdges"/><rect fill="#000000" x="0" y="391.9" width="24.4" height="24.65" shape-rendering="crispEdges"/><rect fill="#222d34" x="24.4" y="391.9" width="85.4" height="24.65" shape-rendering="crispEdges"/><rect fill="#222d34" x="109.8" y="391.9" width="36.6" height="24.65" shape-rendering="crispEdges"/><rect fill="#222d34" x="146.4" y="391.9" width="97.6" height="24.65" shape-rendering="crispEdges"/><rect fill="#000000" x="244" y="391.9" width="24.4" height="24.65" shape-rendering="crispEdges"/><rect fill="#222d34" x="268.4" y="391.9" width="97.6" height="24.65" shape-rendering="crispEdges"/><rect fill="#222d34" x="366" y="391.9" width="36.6" height="24.65" shape-rendering="crispEdges"/><rect fill="#222d34" x="402.6" y="391.9" width="97.6" height="24.65" shape-rendering="crispEdges"/><rect fill="#000000" x="500.2" y="391.9" width="24.4" height="24.65" shape-rendering="crispEdges"/><rect fill="#222d34" x="524.6" y="391.9" width="85.4" height="24.65" shape-rendering="crispEdges"/><rect fill="#222d34" x="610" y="391.9" width="36.6" height="24.65" shape-rendering="crispEdges"/><rect fill="#222d34" x="646.6" y="391.9" width="97.6" height="24.65" shape-rendering="crispEdges"/><rect fill="#000000" x="744.2" y="391.9" width="24.4" height="24.65" shape-rendering="crispEdges"/><rect fill="#fea62b" x="768.6" y="391.9" width="97.6" height="24.65" shape-rendering="crispEdges"/><rect fill="#fea62b" x="866.2" y="391.9" width="36.6" height="24.65" shape-rendering="crispEdges"/><rect fill="#fea62b" x="902.8" y="391.9" width="97.6" height="24.65" shape-rendering="crispEdges"/><rect fill="#000000" x="1000.4" y="391.9" width="24.4" height="24.65" shape-rendering="crispEdges"/><rect fill="#000000" x="0" y="416.3" width="24.4" height="24.65" shape-rendering="crispEdges"/><rect fill="#222d34" x="24.4" y="416.3" width="219.6" height="24.65" shape-rendering="crispEdges"/><rect fill="#000000" x="244" y="416.3" width="24.4" height="24.65" shape-rendering="crispEdges"/><rect fill="#222d34" x="268.4" y="416.3" width="231.8" height="24.65" shape-rendering="crispEdges"/><rect fill="#000000" x="500.2" y="416.3" width="24.4" height="24.65" shape-rendering="crispEdges"/><rect fill="#222d34" x="524.6" y="416.3" width="219.6" height="24.65" shape-rendering="crispEdges"/><rect fill="#000000" x="744.2" y="416.3" width="24.4" height="24.65" shape-rendering="crispEdges"/><rect fill="#fea62b" x="768.6" y="416.3" width="231.8" height="24.65" shape-rendering="crispEdges"/><rect fill="#000000" x="1000.4" y="416.3" width="24.4" height="24.65" shape-rendering="crispEdges"/><rect fill="#000000" x="0" y="440.7" width="24.4" height="24.65" shape-rendering="crispEdges"/><rect fill="#000000" x="24.4" y="440.7" width="976" height="24.65" shape-rendering="crispEdges"/><rect fill="#000000" x="1000.4" y="440.7" width="24.4" height="24.65" shape-rendering="crispEdges"/><rect fill="#000000" x="0" y="465.1" width="24.4" height="24.65" shape-rendering="crispEdges"/><rect fill="#222d34" x="24.4" y="465.1" width="219.6" height="24.65" shape-rendering="crispEdges"/><rect fill="#000000" x="244" y="465.1" width="24.4" height="24.65" shape-rendering="crispEdges"/><rect fill="#222d34" x="268.4" y="465.1" width="231.8" height="24.65" shape-rendering="crispEdges"/><rect fill="#000000" x="500.2" y="465.1" width="24.4" height="24.65" shape-rendering="crispEdges"/><rect fill="#222d34" x="524.6" y="465.1" width="219.6" height="24.65" shape-rendering="crispEdges"/><rect fill="#000000" x="744.2" y="465.1" width="24.4" height="24.65" shape-rendering="crispEdges"/><rect fill="#fea62b" x="768.6" y="465.1" width="231.8" height="24.65" shape-rendering="crispEdges"/><rect fill="#000000" x="1000.4" y="465.1" width="24.4" height="24.65" shape-rendering="crispEdges"/><rect fill="#000000" x="0" y="489.5" width="24.4" height="24.65" shape-rendering="crispEdges"/><rect fill="#222d34" x="24.4" y="489.5" width="85.4" height="24.65" shape-rendering="crispEdges"/><rect fill="#222d34" x="109.8" y="489.5" width="36.6" height="24.65" shape-rendering="crispEdges"/><rect fill="#222d34" x="146.4" y="489.5" width="97.6" height="24.65" shape-rendering="crispEdges"/><rect fill="#000000" x="244" y="489.5" width="24.4" height="24.65" shape-rendering="crispEdges"/><rect fill="#222d34" x="268.4" y="489.5" width="97.6" height="24.65" shape-rendering="crispEdges"/><rect fill="#222d34" x="366" y="489.5" width="36.6" height="24.65" shape-rendering="crispEdges"/><rect fill="#222d34" x="402.6" y="489.5" width="97.6" height="24.65" shape-rendering="crispEdges"/><rect fill="#000000" x="500.2" y="489.5" width="24.4" height="24.65" shape-rendering="crispEdges"/><rect fill="#222d34" x="524.6" y="489.5" width="85.4" height="24.65" shape-rendering="crispEdges"/><rect fill="#222d34" x="610" y="489.5" width="36.6" height="24.65" shape-rendering="crispEdges"/><rect fill="#222d34" x="646.6" y="489.5" width="97.6" height="24.65" shape-rendering="crispEdges"/><rect fill="#000000" x="744.2" y="489.5" width="24.4" height="24.65" shape-rendering="crispEdges"/><rect fill="#fea62b" x="768.6" y="489.5" width="97.6" height="24.65" shape-rendering="crispEdges"/><rect fill="#fea62b" x="866.2" y="489.5" width="36.6" height="24.65" shape-rendering="crispEdges"/><rect fill="#fea62b" x="902.8" y="489.5" width="97.6" height="24.65" shape-rendering="crispEdges"/><rect fill="#000000" x="1000.4" y="489.5" width="24.4" height="24.65" shape-rendering="crispEdges"/><rect fill="#000000" x="0" y="513.9" width="24.4" height="24.65" shape-rendering="crispEdges"/><rect fill="#222d34" x="24.4" y="513.9" width="219.6" height="24.65" shape-rendering="crispEdges"/><rect fill="#000000" x="244" y="513.9" width="24.4" height="24.65" shape-rendering="crispEdges"/><rect fill="#222d34" x="268.4" y="513.9" width="231.8" height="24.65" shape-rendering="crispEdges"/><rect fill="#000000" x="500.2" y="513.9" width="24.4" height="24.65" shape-rendering="crispEdges"/><rect fill="#222d34" x="524.6" y="513.9" width="219.6" height="24.65" shape-rendering="crispEdges"/><rect fill="#000000" x="744.2" y="513.9" width="24.4" height="24.65" shape-rendering="crispEdges"/><rect fill="#fea62b" x="768.6" y="513.9" width="231.8" height="24.65" shape-rendering="crispEdges"/><rect fill="#000000" x="1000.4" y="513.9" width="24.4" height="24.65" shape-rendering="crispEdges"/><rect fill="#000000" x="0" y="538.3" width="24.4" height="24.65" shape-rendering="crispEdges"/><rect fill="#000000" x="24.4" y="538.3" width="976" height="24.65" shape-rendering="crispEdges"/><rect fill="#000000" x="1000.4" y="538.3" width="24.4" height="24.65" shape-rendering="crispEdges"/><rect fill="#000000" x="0" y="562.7" width="24.4" height="24.65" shape-rendering="crispEdges"/><rect fill="#222d34" x="24.4" y="562.7" width="475.8" height="24.65" shape-rendering="crispEdges"/><rect fill="#000000" x="500.2" y="562.7" width="24.4" height="24.65" shape-rendering="crispEdges"/><rect fill="#222d34" x="524.6" y="562.7" width="219.6" height="24.65" shape-rendering="crispEdges"/><rect fill="#000000" x="744.2" y="562.7" width="24.4" height="24.65" shape-rendering="crispEdges"/><rect fill="#fea62b" x="768.6" y="562.7" width="231.8" height="24.65" shape-rendering="crispEdges"/><rect fill="#000000" x="1000.4" y="562.7" width="24.4" height="24.65" shape-rendering="crispEdges"/><rect fill="#000000" x="0" y="587.1" width="24.4" height="24.65" shape-rendering="crispEdges"/><rect fill="#222d34" x="24.4" y="587.1" width="219.6" height="24.65" shape-rendering="crispEdges"/><rect fill="#222d34" x="244" y="587.1" width="36.6" height="24.65" shape-rendering="crispEdges"/><rect fill="#222d34" x="280.6" y="587.1" width="219.6" height="24.65" shape-rendering="crispEdges"/><rect fill="#000000" x="500.2" y="587.1" width="24.4" height="24.65" shape-rendering="crispEdges"/><rect fill="#222d34" x="524.6" y="587.1" width="85.4" height="24.65" shape-rendering="crispEdges"/><rect fill="#222d34" x="610" y="587.1" width="36.6" height="24.65" shape-rendering="crispEdges"/><rect fill="#222d34" x="646.6" y="587.1" width="97.6" height="24.65" shape-rendering="crispEdges"/><rect fill="#000000" x="744.2" y="587.1" width="24.4" height="24.65" shape-rendering="crispEdges"/><rect fill="#fea62b" x="768.6" y="587.1" width="97.6" height="24.65" shape-rendering="crispEdges"/><rect fill="#fea62b" x="866.2" y="587.1" width="36.6" height="24.65" shape-rendering="crispEdges"/><rect fill="#fea62b" x="902.8" y="587.1" width="97.6" height="24.65" shape-rendering="crispEdges"/><rect fill="#000000" x="1000.4" y="587.1" width="24.4" height="24.65" shape-rendering="crispEdges"/><rect fill="#000000" x="0" y="611.5" width="24.4" height="24.65" shape-rendering="crispEdges"/><rect fill="#222d34" x="24.4" y="611.5" width="475.8" height="24.65" shape-rendering="crispEdges"/><rect fill="#000000" x="500.2" y="611.5" width="24.4" height="24.65" shape-rendering="crispEdges"/><rect fill="#222d34" x="524.6" y="611.5" width="219.6" height="24.65" shape-rendering="crispEdges"/><rect fill="#000000" x="744.2" y="611.5" width="24.4" height="24.65" shape-rendering="crispEdges"/><rect fill="#fea62b" x="768.6" y="611.5" width="231.8" height="24.65" shape-rendering="crispEdges"/><rect fill="#000000" x="1000.4" y="611.5" width="24.4" height="24.65" shape-rendering="crispEdges"/><rect fill="#000000" x="0" y="635.9" width="1024.8" height="24.65" shape-rendering="crispEdges"/>
    <g class="terminal-2623053938-matrix">
    <text class="terminal-2623053938-r2" x="1024.8" y="20" textLength="12.2" clip-path="url(#terminal-2623053938-line-0)">
</text><text class="terminal-2623053938-r2" x="1024.8" y="44.4" textLength="12.2" clip-path="url(#terminal-2623053938-line-1)">
</text><text class="terminal-2623053938-r2" x="1024.8" y="68.8" textLength="12.2" clip-path="url(#terminal-2623053938-line-2)">
</text><text class="terminal-2623053938-r3" x="976" y="93.2" textLength="12.2" clip-path="url(#terminal-2623053938-line-3)">0</text><text class="terminal-2623053938-r2" x="1024.8" y="93.2" textLength="12.2" clip-path="url(#terminal-2623053938-line-3)">
</text><text class="terminal-2623053938-r2" x="1024.8" y="117.6" textLength="12.2" clip-path="url(#terminal-2623053938-line-4)">
</text><text class="terminal-2623053938-r2" x="1024.8" y="142" textLength="12.2" clip-path="url(#terminal-2623053938-line-5)">
</text><text class="terminal-2623053938-r2" x="1024.8" y="166.4" textLength="12.2" clip-path="url(#terminal-2623053938-line-6)">
</text><text class="terminal-2623053938-r4" x="24.4" y="190.8" textLength="219.6" clip-path="url(#terminal-2623053938-line-7)">▔▔▔▔▔▔▔▔▔▔▔▔▔▔▔▔▔▔</text><text class="terminal-2623053938-r4" x="268.4" y="190.8" textLength="231.8" clip-path="url(#terminal-2623053938-line-7)">▔▔▔▔▔▔▔▔▔▔▔▔▔▔▔▔▔▔▔</text><text class="terminal-2623053938-r4" x="524.6" y="190.8" textLength="219.6" clip-path="url(#terminal-2623053938-line-7)">▔▔▔▔▔▔▔▔▔▔▔▔▔▔▔▔▔▔</text><text class="terminal-2623053938-r5" x="768.6" y="190.8" textLength="231.8" clip-path="url(#terminal-2623053938-line-7)">▔▔▔▔▔▔▔▔▔▔▔▔▔▔▔▔▔▔▔</text><text class="terminal-2623053938-r2" x="1024.8" y="190.8" textLength="12.2" clip-path="url(#terminal-2623053938-line-7)">
</text><text class="terminal-2623053938-r6" x="109.8" y="215.2" textLength="48.8" clip-path="url(#terminal-2623053938-line-8)">&#160;AC&#160;</text><text class="terminal-2623053938-r6" x="353.8" y="215.2" textLength="61" clip-path="url(#terminal-2623053938-line-8)">&#160;+/-&#160;</text><text class="terminal-2623053938-r6" x="610" y="215.2" textLength="36.6" clip-path="url(#terminal-2623053938-line-8)">&#160;%&#160;</text><text class="terminal-2623053938-r7" x="866.2" y="215.2" textLength="36.6" clip-path="url(#terminal-2623053938-line-8)">&#160;÷&#160;</text><text class="terminal-2623053938-r2" x="1024.8" y="215.2" textLength="12.2" clip-path="url(#terminal-2623053938-line-8)">
</text><text class="terminal-2623053938-r8" x="24.4" y="239.6" textLength="219.6" clip-path="url(#terminal-2623053938-line-9)">▁▁▁▁▁▁▁▁▁▁▁▁▁▁▁▁▁▁</text><text class="terminal-2623053938-r8" x="268.4" y="239.6" textLength="231.8" clip-path="url(#terminal-2623053938-line-9)">▁▁▁▁▁▁▁▁▁▁▁▁▁▁▁▁▁▁▁</text><text class="terminal-2623053938-r8" x="524.6" y="239.6" textLength="219.6" clip-path="url(#terminal-2623053938-line-9)">▁▁▁▁▁▁▁▁▁▁▁▁▁▁▁▁▁▁</text><text class="terminal-2623053938-r9" x="768.6" y="239.6" textLength="231.8" clip-path="url(#terminal-2623053938-line-9)">▁▁▁▁▁▁▁▁▁▁▁▁▁▁▁▁▁▁▁</text><text class="terminal-2623053938-r2" x="1024.8" y="239.6" textLength="12.2" clip-path="url(#terminal-2623053938-line-9)">
</text><text class="terminal-2623053938-r2" x="1024.8" y="264" textLength="12.2" clip-path="url(#terminal-2623053938-line-10)">
</text><text class="terminal-2623053938-r10" x="24.4" y="288.4" textLength="219.6" clip-path="url(#terminal-2623053938-line-11)">▔▔▔▔▔▔▔▔▔▔▔▔▔▔▔▔▔▔</text><text class="terminal-2623053938-r10" x="268.4" y="288.4" textLength="231.8" clip-path="url(#terminal-2623053938-line-11)">▔▔▔▔▔▔▔▔▔▔▔▔▔▔▔▔▔▔▔</text><text class="terminal-2623053938-r10" x="524.6" y="288.4" textLength="219.6" clip-path="url(#terminal-2623053938-line-11)">▔▔▔▔▔▔▔▔▔▔▔▔▔▔▔▔▔▔</text><text class="terminal-2623053938-r5" x="768.6" y="288.4" textLength="231.8" clip-path="url(#terminal-2623053938-line-11)">▔▔▔▔▔▔▔▔▔▔▔▔▔▔▔▔▔▔▔</text><text class="terminal-2623053938-r2" x="1024.8" y="288.4" textLength="12.2" clip-path="url(#terminal-2623053938-line-11)">
</text><text class="terminal-2623053938-r11" x="109.8" y="312.8" textLength="36.6" clip-path="url(#terminal-2623053938-line-12)">&#160;7&#160;</text><text class="terminal-2623053938-r11" x="366" y="312.8" textLength="36.6" clip-path="url(#terminal-2623053938-line-12)">&#160;8&#160;</text><text class="terminal-2623053938-r11" x="610" y="312.8" textLength="36.6" clip-path="url(#terminal-2623053938-line-12)">&#160;9&#160;</text><text class="terminal-2623053938-r7" x="866.2" y="312.8" textLength="36.6" clip-path="url(#terminal-2623053938-line-12)">&#160;×&#160;</text><text class="terminal-2623053938-r2" x="1024.8" y="312.8" textLength="12.2" clip-path="url(#terminal-2623053938-line-12)">
</text><text class="terminal-2623053938-r12" x="24.4" y="337.2" textLength="219.6" clip-path="url(#terminal-2623053938-line-13)">▁▁▁▁▁▁▁▁▁▁▁▁▁▁▁▁▁▁</text><text class="terminal-2623053938-r12" x="268.4" y="337.2" textLength="231.8" clip-path="url(#terminal-2623053938-line-13)">▁▁▁▁▁▁▁▁▁▁▁▁▁▁▁▁▁▁▁</text><text class="terminal-2623053938-r12" x="524.6" y="337.2" textLength="219.6" clip-path="url(#terminal-2623053938-line-13)">▁▁▁▁▁▁▁▁▁▁▁▁▁▁▁▁▁▁</text><text class="terminal-2623053938-r9" x="768.6" y="337.2" textLength="231.8" clip-path="url(#terminal-2623053938-line-13)">▁▁▁▁▁▁▁▁▁▁▁▁▁▁▁▁▁▁▁</text><text class="terminal-2623053938-r2" x="1024.8" y="337.2" textLength="12.2" clip-path="url(#terminal-2623053938-line-13)">
</text><text class="terminal-2623053938-r2" x="1024.8" y="361.6" textLength="12.2" clip-path="url(#terminal-2623053938-line-14)">
</text><text class="terminal-2623053938-r10" x="24.4" y="386" textLength="219.6" clip-path="url(#terminal-2623053938-line-15)">▔▔▔▔▔▔▔▔▔▔▔▔▔▔▔▔▔▔</text><text class="terminal-2623053938-r10" x="268.4" y="386" textLength="231.8" clip-path="url(#terminal-2623053938-line-15)">▔▔▔▔▔▔▔▔▔▔▔▔▔▔▔▔▔▔▔</text><text class="terminal-2623053938-r10" x="524.6" y="386" textLength="219.6" clip-path="url(#terminal-2623053938-line-15)">▔▔▔▔▔▔▔▔▔▔▔▔▔▔▔▔▔▔</text><text class="terminal-2623053938-r5" x="768.6" y="386" textLength="231.8" clip-path="url(#terminal-2623053938-line-15)">▔▔▔▔▔▔▔▔▔▔▔▔▔▔▔▔▔▔▔</text><text class="terminal-2623053938-r2" x="1024.8" y="386" textLength="12.2" clip-path="url(#terminal-2623053938-line-15)">
</text><text class="terminal-2623053938-r11" x="109.8" y="410.4" textLength="36.6" clip-path="url(#terminal-2623053938-line-16)">&#160;4&#160;</text><text class="terminal-2623053938-r11" x="366" y="410.4" textLength="36.6" clip-path="url(#terminal-2623053938-line-16)">&#160;5&#160;</text><text class="terminal-2623053938-r11" x="610" y="410.4" textLength="36.6" clip-path="url(#terminal-2623053938-line-16)">&#160;6&#160;</text><text class="terminal-2623053938-r7" x="866.2" y="410.4" textLength="36.6" clip-path="url(#terminal-2623053938-line-16)">&#160;-&#160;</text><text class="terminal-2623053938-r2" x="1024.8" y="410.4" textLength="12.2" clip-path="url(#terminal-2623053938-line-16)">
</text><text class="terminal-2623053938-r12" x="24.4" y="434.8" textLength="219.6" clip-path="url(#terminal-2623053938-line-17)">▁▁▁▁▁▁▁▁▁▁▁▁▁▁▁▁▁▁</text><text class="terminal-2623053938-r12" x="268.4" y="434.8" textLength="231.8" clip-path="url(#terminal-2623053938-line-17)">▁▁▁▁▁▁▁▁▁▁▁▁▁▁▁▁▁▁▁</text><text class="terminal-2623053938-r12" x="524.6" y="434.8" textLength="219.6" clip-path="url(#terminal-2623053938-line-17)">▁▁▁▁▁▁▁▁▁▁▁▁▁▁▁▁▁▁</text><text class="terminal-2623053938-r9" x="768.6" y="434.8" textLength="231.8" clip-path="url(#terminal-2623053938-line-17)">▁▁▁▁▁▁▁▁▁▁▁▁▁▁▁▁▁▁▁</text><text class="terminal-2623053938-r2" x="1024.8" y="434.8" textLength="12.2" clip-path="url(#terminal-2623053938-line-17)">
</text><text class="terminal-2623053938-r2" x="1024.8" y="459.2" textLength="12.2" clip-path="url(#terminal-2623053938-line-18)">
</text><text class="terminal-2623053938-r10" x="24.4" y="483.6" textLength="219.6" clip-path="url(#terminal-2623053938-line-19)">▔▔▔▔▔▔▔▔▔▔▔▔▔▔▔▔▔▔</text><text class="terminal-2623053938-r10" x="268.4" y="483.6" textLength="231.8" clip-path="url(#terminal-2623053938-line-19)">▔▔▔▔▔▔▔▔▔▔▔▔▔▔▔▔▔▔▔</text><text class="terminal-2623053938-r10" x="524.6" y="483.6" textLength="219.6" clip-path="url(#terminal-2623053938-line-19)">▔▔▔▔▔▔▔▔▔▔▔▔▔▔▔▔▔▔</text><text class="terminal-2623053938-r5" x="768.6" y="483.6" textLength="231.8" clip-path="url(#terminal-2623053938-line-19)">▔▔▔▔▔▔▔▔▔▔▔▔▔▔▔▔▔▔▔</text><text class="terminal-2623053938-r2" x="1024.8" y="483.6" textLength="12.2" clip-path="url(#terminal-2623053938-line-19)">
</text><text class="terminal-2623053938-r11" x="109.8" y="508" textLength="36.6" clip-path="url(#terminal-2623053938-line-20)">&#160;1&#160;</text><text class="terminal-2623053938-r11" x="366" y="508" textLength="36.6" clip-path="url(#terminal-2623053938-line-20)">&#160;2&#160;</text><text class="terminal-2623053938-r11" x="610" y="508" textLength="36.6" clip-path="url(#terminal-2623053938-line-20)">&#160;3&#160;</text><text class="terminal-2623053938-r7" x="866.2" y="508" textLength="36.6" clip-path="url(#terminal-2623053938-line-20)">&#160;+&#160;</text><text class="terminal-2623053938-r2" x="1024.8" y="508" textLength="12.2" clip-path="url(#terminal-2623053938-line-20)">
</text><text class="terminal-2623053938-r12" x="24.4" y="532.4" textLength="219.6" clip-path="url(#terminal-2623053938-line-21)">▁▁▁▁▁▁▁▁▁▁▁▁▁▁▁▁▁▁</text><text class="terminal-2623053938-r12" x="268.4" y="532.4" textLength="231.8" clip-path="url(#terminal-2623053938-line-21)">▁▁▁▁▁▁▁▁▁▁▁▁▁▁▁▁▁▁▁</text><text class="terminal-2623053938-r12" x="524.6" y="532.4" textLength="219.6" clip-path="url(#terminal-2623053938-line-21)">▁▁▁▁▁▁▁▁▁▁▁▁▁▁▁▁▁▁</text><text class="terminal-2623053938-r9" x="768.6" y="532.4" textLength="231.8" clip-path="url(#terminal-2623053938-line-21)">▁▁▁▁▁▁▁▁▁▁▁▁▁▁▁▁▁▁▁</text><text class="terminal-2623053938-r2" x="1024.8" y="532.4" textLength="12.2" clip-path="url(#terminal-2623053938-line-21)">
</text><text class="terminal-2623053938-r2" x="1024.8" y="556.8" textLength="12.2" clip-path="url(#terminal-2623053938-line-22)">
</text><text class="terminal-2623053938-r10" x="24.4" y="581.2" textLength="475.8" clip-path="url(#terminal-2623053938-line-23)">▔▔▔▔▔▔▔▔▔▔▔▔▔▔▔▔▔▔▔▔▔▔▔▔▔▔▔▔▔▔▔▔▔▔▔▔▔▔▔</text><text class="terminal-2623053938-r10" x="524.6" y="581.2" textLength="219.6" clip-path="url(#terminal-2623053938-line-23)">▔▔▔▔▔▔▔▔▔▔▔▔▔▔▔▔▔▔</text><text class="terminal-2623053938-r5" x="768.6" y="581.2" textLength="231.8" clip-path="url(#terminal-2623053938-line-23)">▔▔▔▔▔▔▔▔▔▔▔▔▔▔▔▔▔▔▔</text><text class="terminal-2623053938-r2" x="1024.8" y="581.2" textLength="12.2" clip-path="url(#terminal-2623053938-line-23)">
</text><text class="terminal-2623053938-r11" x="244" y="605.6" textLength="36.6" clip-path="url(#terminal-2623053938-line-24)">&#160;0&#160;</text><text class="terminal-2623053938-r11" x="610" y="605.6" textLength="36.6" clip-path="url(#terminal-2623053938-line-24)">&#160;.&#160;</text><text class="terminal-2623053938-r7" x="866.2" y="605.6" textLength="36.6" clip-path="url(#terminal-2623053938-line-24)">&#160;=&#160;</text><text class="terminal-2623053938-r2" x="1024.8" y="605.6" textLength="12.2" clip-path="url(#terminal-2623053938-line-24)">
</text><text class="terminal-2623053938-r12" x="24.4" y="630" textLength="475.8" clip-path="url(#terminal-2623053938-line-25)">▁▁▁▁▁▁▁▁▁▁▁▁▁▁▁▁▁▁▁▁▁▁▁▁▁▁▁▁▁▁▁▁▁▁▁▁▁▁▁</text><text class="terminal-2623053938-r12" x="524.6" y="630" textLength="219.6" clip-path="url(#terminal-2623053938-line-25)">▁▁▁▁▁▁▁▁▁▁▁▁▁▁▁▁▁▁</text><text class="terminal-2623053938-r9" x="768.6" y="630" textLength="231.8" clip-path="url(#terminal-2623053938-line-25)">▁▁▁▁▁▁▁▁▁▁▁▁▁▁▁▁▁▁▁</text><text class="terminal-2623053938-r2" x="1024.8" y="630" textLength="12.2" clip-path="url(#terminal-2623053938-line-25)">
</text>
    </g>
    </g>
</svg>
