<svg class="rich-terminal" viewBox="0 0 1495 830.8" xmlns="http://www.w3.org/2000/svg">
    <!-- Generated with Rich https://www.textualize.io -->
    <style>

    @font-face {
        font-family: "Fira Code";
        src: local("FiraCode-Regular"),
                url("https://cdnjs.cloudflare.com/ajax/libs/firacode/6.2.0/woff2/FiraCode-Regular.woff2") format("woff2"),
                url("https://cdnjs.cloudflare.com/ajax/libs/firacode/6.2.0/woff/FiraCode-Regular.woff") format("woff");
        font-style: normal;
        font-weight: 400;
    }
    @font-face {
        font-family: "Fira Code";
        src: local("FiraCode-Bold"),
                url("https://cdnjs.cloudflare.com/ajax/libs/firacode/6.2.0/woff2/FiraCode-Bold.woff2") format("woff2"),
                url("https://cdnjs.cloudflare.com/ajax/libs/firacode/6.2.0/woff/FiraCode-Bold.woff") format("woff");
        font-style: bold;
        font-weight: 700;
    }

    .terminal-1048030815-matrix {
        font-family: Fira Code, monospace;
        font-size: 20px;
        line-height: 24.4px;
        font-variant-east-asian: full-width;
    }

    .terminal-1048030815-title {
        font-size: 18px;
        font-weight: bold;
        font-family: arial;
    }

    .terminal-1048030815-r1 { fill: #c5c8c6 }
.terminal-1048030815-r2 { fill: #0c0802 }
.terminal-1048030815-r3 { fill: #30220b }
.terminal-1048030815-r4 { fill: #0b0b0b }
.terminal-1048030815-r5 { fill: #030905;font-weight: bold }
.terminal-1048030815-r6 { fill: #55595c }
.terminal-1048030815-r7 { fill: #0a0a0b;font-weight: bold }
.terminal-1048030815-r8 { fill: #008139 }
.terminal-1048030815-r9 { fill: #b1bac2 }
.terminal-1048030815-r10 { fill: #e76580 }
.terminal-1048030815-r11 { fill: #fbf5f6;font-weight: bold }
.terminal-1048030815-r12 { fill: #780028 }
.terminal-1048030815-r13 { fill: #b93c5b;font-weight: bold }
.terminal-1048030815-r14 { fill: #23568b }
.terminal-1048030815-r15 { fill: #7ae998 }
.terminal-1048030815-r16 { fill: #e5eff7 }
.terminal-1048030815-r17 { fill: #f3f9f6;font-weight: bold }
.terminal-1048030815-r18 { fill: #f2f6fa;font-weight: bold }
.terminal-1048030815-r19 { fill: #f2f8fc }
    </style>

    <defs>
    <clipPath id="terminal-1048030815-clip-terminal">
      <rect x="0" y="0" width="1475.1999999999998" height="779.8" />
    </clipPath>
    <clipPath id="terminal-1048030815-line-0">
    <rect x="0" y="1.5" width="1476.2" height="24.65"/>
            </clipPath>
<clipPath id="terminal-1048030815-line-1">
    <rect x="0" y="25.9" width="1476.2" height="24.65"/>
            </clipPath>
<clipPath id="terminal-1048030815-line-2">
    <rect x="0" y="50.3" width="1476.2" height="24.65"/>
            </clipPath>
<clipPath id="terminal-1048030815-line-3">
    <rect x="0" y="74.7" width="1476.2" height="24.65"/>
            </clipPath>
<clipPath id="terminal-1048030815-line-4">
    <rect x="0" y="99.1" width="1476.2" height="24.65"/>
            </clipPath>
<clipPath id="terminal-1048030815-line-5">
    <rect x="0" y="123.5" width="1476.2" height="24.65"/>
            </clipPath>
<clipPath id="terminal-1048030815-line-6">
    <rect x="0" y="147.9" width="1476.2" height="24.65"/>
            </clipPath>
<clipPath id="terminal-1048030815-line-7">
    <rect x="0" y="172.3" width="1476.2" height="24.65"/>
            </clipPath>
<clipPath id="terminal-1048030815-line-8">
    <rect x="0" y="196.7" width="1476.2" height="24.65"/>
            </clipPath>
<clipPath id="terminal-1048030815-line-9">
    <rect x="0" y="221.1" width="1476.2" height="24.65"/>
            </clipPath>
<clipPath id="terminal-1048030815-line-10">
    <rect x="0" y="245.5" width="1476.2" height="24.65"/>
            </clipPath>
<clipPath id="terminal-1048030815-line-11">
    <rect x="0" y="269.9" width="1476.2" height="24.65"/>
            </clipPath>
<clipPath id="terminal-1048030815-line-12">
    <rect x="0" y="294.3" width="1476.2" height="24.65"/>
            </clipPath>
<clipPath id="terminal-1048030815-line-13">
    <rect x="0" y="318.7" width="1476.2" height="24.65"/>
            </clipPath>
<clipPath id="terminal-1048030815-line-14">
    <rect x="0" y="343.1" width="1476.2" height="24.65"/>
            </clipPath>
<clipPath id="terminal-1048030815-line-15">
    <rect x="0" y="367.5" width="1476.2" height="24.65"/>
            </clipPath>
<clipPath id="terminal-1048030815-line-16">
    <rect x="0" y="391.9" width="1476.2" height="24.65"/>
            </clipPath>
<clipPath id="terminal-1048030815-line-17">
    <rect x="0" y="416.3" width="1476.2" height="24.65"/>
            </clipPath>
<clipPath id="terminal-1048030815-line-18">
    <rect x="0" y="440.7" width="1476.2" height="24.65"/>
            </clipPath>
<clipPath id="terminal-1048030815-line-19">
    <rect x="0" y="465.1" width="1476.2" height="24.65"/>
            </clipPath>
<clipPath id="terminal-1048030815-line-20">
    <rect x="0" y="489.5" width="1476.2" height="24.65"/>
            </clipPath>
<clipPath id="terminal-1048030815-line-21">
    <rect x="0" y="513.9" width="1476.2" height="24.65"/>
            </clipPath>
<clipPath id="terminal-1048030815-line-22">
    <rect x="0" y="538.3" width="1476.2" height="24.65"/>
            </clipPath>
<clipPath id="terminal-1048030815-line-23">
    <rect x="0" y="562.7" width="1476.2" height="24.65"/>
            </clipPath>
<clipPath id="terminal-1048030815-line-24">
    <rect x="0" y="587.1" width="1476.2" height="24.65"/>
            </clipPath>
<clipPath id="terminal-1048030815-line-25">
    <rect x="0" y="611.5" width="1476.2" height="24.65"/>
            </clipPath>
<clipPath id="terminal-1048030815-line-26">
    <rect x="0" y="635.9" width="1476.2" height="24.65"/>
            </clipPath>
<clipPath id="terminal-1048030815-line-27">
    <rect x="0" y="660.3" width="1476.2" height="24.65"/>
            </clipPath>
<clipPath id="terminal-1048030815-line-28">
    <rect x="0" y="684.7" width="1476.2" height="24.65"/>
            </clipPath>
<clipPath id="terminal-1048030815-line-29">
    <rect x="0" y="709.1" width="1476.2" height="24.65"/>
            </clipPath>
<clipPath id="terminal-1048030815-line-30">
    <rect x="0" y="733.5" width="1476.2" height="24.65"/>
            </clipPath>
    </defs>

    <rect fill="#292929" stroke="rgba(255,255,255,0.35)" stroke-width="1" x="1" y="1" width="1493" height="828.8" rx="8"/><text class="terminal-1048030815-title" fill="#c5c8c6" text-anchor="middle" x="746" y="27">StopwatchApp</text>
            <g transform="translate(26,22)">
            <circle cx="0" cy="0" r="7" fill="#ff5f57"/>
            <circle cx="22" cy="0" r="7" fill="#febc2e"/>
            <circle cx="44" cy="0" r="7" fill="#28c840"/>
            </g>
        
    <g transform="translate(9, 41)" clip-path="url(#terminal-1048030815-clip-terminal)">
    <rect fill="#fea62b" x="0" y="1.5" width="97.6" height="24.65" shape-rendering="crispEdges"/><rect fill="#fea62b" x="97.6" y="1.5" width="1256.6" height="24.65" shape-rendering="crispEdges"/><rect fill="#ffba41" x="1354.2" y="1.5" width="122" height="24.65" shape-rendering="crispEdges"/><rect fill="#fea62b" x="0" y="25.9" width="12.2" height="24.65" shape-rendering="crispEdges"/><rect fill="#fea62b" x="12.2" y="25.9" width="12.2" height="24.65" shape-rendering="crispEdges"/><rect fill="#fea62b" x="24.4" y="25.9" width="73.2" height="24.65" shape-rendering="crispEdges"/><rect fill="#fea62b" x="97.6" y="25.9" width="549" height="24.65" shape-rendering="crispEdges"/><rect fill="#fea62b" x="646.6" y="25.9" width="146.4" height="24.65" shape-rendering="crispEdges"/><rect fill="#fea62b" x="793" y="25.9" width="561.2" height="24.65" shape-rendering="crispEdges"/><rect fill="#ffba41" x="1354.2" y="25.9" width="12.2" height="24.65" shape-rendering="crispEdges"/><rect fill="#ffba41" x="1366.4" y="25.9" width="97.6" height="24.65" shape-rendering="crispEdges"/><rect fill="#ffba41" x="1464" y="25.9" width="12.2" height="24.65" shape-rendering="crispEdges"/><rect fill="#fea62b" x="0" y="50.3" width="97.6" height="24.65" shape-rendering="crispEdges"/><rect fill="#fea62b" x="97.6" y="50.3" width="1256.6" height="24.65" shape-rendering="crispEdges"/><rect fill="#ffba41" x="1354.2" y="50.3" width="122" height="24.65" shape-rendering="crispEdges"/><rect fill="#efefef" x="0" y="74.7" width="12.2" height="24.65" shape-rendering="crispEdges"/><rect fill="#c5cfd7" x="12.2" y="74.7" width="12.2" height="24.65" shape-rendering="crispEdges"/><rect fill="#4ebf71" x="24.4" y="74.7" width="48.8" height="24.65" shape-rendering="crispEdges"/><rect fill="#4ebf71" x="73.2" y="74.7" width="85.4" height="24.65" shape-rendering="crispEdges"/><rect fill="#4ebf71" x="158.6" y="74.7" width="61" height="24.65" shape-rendering="crispEdges"/><rect fill="#c5cfd7" x="219.6" y="74.7" width="439.2" height="24.65" shape-rendering="crispEdges"/><rect fill="#c5cfd7" x="658.8" y="74.7" width="134.2" height="24.65" shape-rendering="crispEdges"/><rect fill="#c5cfd7" x="793" y="74.7" width="439.2" height="24.65" shape-rendering="crispEdges"/><rect fill="#d0dae2" x="1232.2" y="74.7" width="48.8" height="24.65" shape-rendering="crispEdges"/><rect fill="#d0dae2" x="1281" y="74.7" width="85.4" height="24.65" shape-rendering="crispEdges"/><rect fill="#d0dae2" x="1366.4" y="74.7" width="61" height="24.65" shape-rendering="crispEdges"/><rect fill="#c5cfd7" x="1427.4" y="74.7" width="12.2" height="24.65" shape-rendering="crispEdges"/><rect fill="#efefef" x="1439.6" y="74.7" width="12.2" height="24.65" shape-rendering="crispEdges"/><rect fill="#c5cfd7" x="1451.8" y="74.7" width="24.4" height="24.65" shape-rendering="crispEdges"/><rect fill="#efefef" x="0" y="99.1" width="12.2" height="24.65" shape-rendering="crispEdges"/><rect fill="#c5cfd7" x="12.2" y="99.1" width="12.2" height="24.65" shape-rendering="crispEdges"/><rect fill="#4ebf71" x="24.4" y="99.1" width="195.2" height="24.65" shape-rendering="crispEdges"/><rect fill="#c5cfd7" x="219.6" y="99.1" width="1012.6" height="24.65" shape-rendering="crispEdges"/><rect fill="#d0dae2" x="1232.2" y="99.1" width="195.2" height="24.65" shape-rendering="crispEdges"/><rect fill="#c5cfd7" x="1427.4" y="99.1" width="12.2" height="24.65" shape-rendering="crispEdges"/><rect fill="#efefef" x="1439.6" y="99.1" width="12.2" height="24.65" shape-rendering="crispEdges"/><rect fill="#c5cfd7" x="1451.8" y="99.1" width="24.4" height="24.65" shape-rendering="crispEdges"/><rect fill="#efefef" x="0" y="123.5" width="12.2" height="24.65" shape-rendering="crispEdges"/><rect fill="#c5cfd7" x="12.2" y="123.5" width="1427.4" height="24.65" shape-rendering="crispEdges"/><rect fill="#efefef" x="1439.6" y="123.5" width="12.2" height="24.65" shape-rendering="crispEdges"/><rect fill="#c5cfd7" x="1451.8" y="123.5" width="24.4" height="24.65" shape-rendering="crispEdges"/><rect fill="#efefef" x="0" y="147.9" width="1451.8" height="24.65" shape-rendering="crispEdges"/><rect fill="#c5cfd7" x="1451.8" y="147.9" width="24.4" height="24.65" shape-rendering="crispEdges"/><rect fill="#efefef" x="0" y="172.3" width="12.2" height="24.65" shape-rendering="crispEdges"/><rect fill="#4ebf71" x="12.2" y="172.3" width="1427.4" height="24.65" shape-rendering="crispEdges"/><rect fill="#efefef" x="1439.6" y="172.3" width="12.2" height="24.65" shape-rendering="crispEdges"/><rect fill="#c5cfd7" x="1451.8" y="172.3" width="24.4" height="24.65" shape-rendering="crispEdges"/><rect fill="#efefef" x="0" y="196.7" width="12.2" height="24.65" shape-rendering="crispEdges"/><rect fill="#4ebf71" x="12.2" y="196.7" width="12.2" height="24.65" shape-rendering="crispEdges"/><rect fill="#b93c5b" x="24.4" y="196.7" width="195.2" height="24.65" shape-rendering="crispEdges"/><rect fill="#4ebf71" x="219.6" y="196.7" width="1012.6" height="24.65" shape-rendering="crispEdges"/><rect fill="#4ebf71" x="1232.2" y="196.7" width="195.2" height="24.65" shape-rendering="crispEdges"/><rect fill="#4ebf71" x="1427.4" y="196.7" width="12.2" height="24.65" shape-rendering="crispEdges"/><rect fill="#efefef" x="1439.6" y="196.7" width="12.2" height="24.65" shape-rendering="crispEdges"/><rect fill="#c5cfd7" x="1451.8" y="196.7" width="24.4" height="24.65" shape-rendering="crispEdges"/><rect fill="#efefef" x="0" y="221.1" width="12.2" height="24.65" shape-rendering="crispEdges"/><rect fill="#4ebf71" x="12.2" y="221.1" width="12.2" height="24.65" shape-rendering="crispEdges"/><rect fill="#b93c5b" x="24.4" y="221.1" width="61" height="24.65" shape-rendering="crispEdges"/><rect fill="#b93c5b" x="85.4" y="221.1" width="73.2" height="24.65" shape-rendering="crispEdges"/><rect fill="#b93c5b" x="158.6" y="221.1" width="61" height="24.65" shape-rendering="crispEdges"/><rect fill="#4ebf71" x="219.6" y="221.1" width="439.2" height="24.65" shape-rendering="crispEdges"/><rect fill="#4ebf71" x="658.8" y="221.1" width="134.2" height="24.65" shape-rendering="crispEdges"/><rect fill="#4ebf71" x="793" y="221.1" width="439.2" height="24.65" shape-rendering="crispEdges"/><rect fill="#4ebf71" x="1232.2" y="221.1" width="195.2" height="24.65" shape-rendering="crispEdges"/><rect fill="#4ebf71" x="1427.4" y="221.1" width="12.2" height="24.65" shape-rendering="crispEdges"/><rect fill="#efefef" x="1439.6" y="221.1" width="12.2" height="24.65" shape-rendering="crispEdges"/><rect fill="#c5cfd7" x="1451.8" y="221.1" width="24.4" height="24.65" shape-rendering="crispEdges"/><rect fill="#efefef" x="0" y="245.5" width="12.2" height="24.65" shape-rendering="crispEdges"/><rect fill="#4ebf71" x="12.2" y="245.5" width="12.2" height="24.65" shape-rendering="crispEdges"/><rect fill="#b93c5b" x="24.4" y="245.5" width="195.2" height="24.65" shape-rendering="crispEdges"/><rect fill="#4ebf71" x="219.6" y="245.5" width="1012.6" height="24.65" shape-rendering="crispEdges"/><rect fill="#4ebf71" x="1232.2" y="245.5" width="195.2" height="24.65" shape-rendering="crispEdges"/><rect fill="#4ebf71" x="1427.4" y="245.5" width="12.2" height="24.65" shape-rendering="crispEdges"/><rect fill="#efefef" x="1439.6" y="245.5" width="12.2" height="24.65" shape-rendering="crispEdges"/><rect fill="#c5cfd7" x="1451.8" y="245.5" width="24.4" height="24.65" shape-rendering="crispEdges"/><rect fill="#efefef" x="0" y="269.9" width="12.2" height="24.65" shape-rendering="crispEdges"/><rect fill="#4ebf71" x="12.2" y="269.9" width="1427.4" height="24.65" shape-rendering="crispEdges"/><rect fill="#efefef" x="1439.6" y="269.9" width="12.2" height="24.65" shape-rendering="crispEdges"/><rect fill="#c5cfd7" x="1451.8" y="269.9" width="24.4" height="24.65" shape-rendering="crispEdges"/><rect fill="#efefef" x="0" y="294.3" width="1451.8" height="24.65" shape-rendering="crispEdges"/><rect fill="#c5cfd7" x="1451.8" y="294.3" width="24.4" height="24.65" shape-rendering="crispEdges"/><rect fill="#efefef" x="0" y="318.7" width="12.2" height="24.65" shape-rendering="crispEdges"/><rect fill="#4ebf71" x="12.2" y="318.7" width="1427.4" height="24.65" shape-rendering="crispEdges"/><rect fill="#efefef" x="1439.6" y="318.7" width="12.2" height="24.65" shape-rendering="crispEdges"/><rect fill="#c5cfd7" x="1451.8" y="318.7" width="24.4" height="24.65" shape-rendering="crispEdges"/><rect fill="#efefef" x="0" y="343.1" width="12.2" height="24.65" shape-rendering="crispEdges"/><rect fill="#4ebf71" x="12.2" y="343.1" width="12.2" height="24.65" shape-rendering="crispEdges"/><rect fill="#b93c5b" x="24.4" y="343.1" width="195.2" height="24.65" shape-rendering="crispEdges"/><rect fill="#4ebf71" x="219.6" y="343.1" width="1012.6" height="24.65" shape-rendering="crispEdges"/><rect fill="#4ebf71" x="1232.2" y="343.1" width="195.2" height="24.65" shape-rendering="crispEdges"/><rect fill="#4ebf71" x="1427.4" y="343.1" width="12.2" height="24.65" shape-rendering="crispEdges"/><rect fill="#efefef" x="1439.6" y="343.1" width="12.2" height="24.65" shape-rendering="crispEdges"/><rect fill="#c5cfd7" x="1451.8" y="343.1" width="24.4" height="24.65" shape-rendering="crispEdges"/><rect fill="#efefef" x="0" y="367.5" width="12.2" height="24.65" shape-rendering="crispEdges"/><rect fill="#4ebf71" x="12.2" y="367.5" width="12.2" height="24.65" shape-rendering="crispEdges"/><rect fill="#b93c5b" x="24.4" y="367.5" width="61" height="24.65" shape-rendering="crispEdges"/><rect fill="#fbf5f6" x="85.4" y="367.5" width="73.2" height="24.65" shape-rendering="crispEdges"/><rect fill="#b93c5b" x="158.6" y="367.5" width="61" height="24.65" shape-rendering="crispEdges"/><rect fill="#4ebf71" x="219.6" y="367.5" width="439.2" height="24.65" shape-rendering="crispEdges"/><rect fill="#4ebf71" x="658.8" y="367.5" width="134.2" height="24.65" shape-rendering="crispEdges"/><rect fill="#4ebf71" x="793" y="367.5" width="439.2" height="24.65" shape-rendering="crispEdges"/><rect fill="#4ebf71" x="1232.2" y="367.5" width="195.2" height="24.65" shape-rendering="crispEdges"/><rect fill="#4ebf71" x="1427.4" y="367.5" width="12.2" height="24.65" shape-rendering="crispEdges"/><rect fill="#efefef" x="1439.6" y="367.5" width="12.2" height="24.65" shape-rendering="crispEdges"/><rect fill="#c5cfd7" x="1451.8" y="367.5" width="24.4" height="24.65" shape-rendering="crispEdges"/><rect fill="#efefef" x="0" y="391.9" width="12.2" height="24.65" shape-rendering="crispEdges"/><rect fill="#4ebf71" x="12.2" y="391.9" width="12.2" height="24.65" shape-rendering="crispEdges"/><rect fill="#b93c5b" x="24.4" y="391.9" width="195.2" height="24.65" shape-rendering="crispEdges"/><rect fill="#4ebf71" x="219.6" y="391.9" width="1012.6" height="24.65" shape-rendering="crispEdges"/><rect fill="#4ebf71" x="1232.2" y="391.9" width="195.2" height="24.65" shape-rendering="crispEdges"/><rect fill="#4ebf71" x="1427.4" y="391.9" width="12.2" height="24.65" shape-rendering="crispEdges"/><rect fill="#efefef" x="1439.6" y="391.9" width="12.2" height="24.65" shape-rendering="crispEdges"/><rect fill="#c5cfd7" x="1451.8" y="391.9" width="24.4" height="24.65" shape-rendering="crispEdges"/><rect fill="#efefef" x="0" y="416.3" width="12.2" height="24.65" shape-rendering="crispEdges"/><rect fill="#4ebf71" x="12.2" y="416.3" width="1427.4" height="24.65" shape-rendering="crispEdges"/><rect fill="#efefef" x="1439.6" y="416.3" width="12.2" height="24.65" shape-rendering="crispEdges"/><rect fill="#23568b" x="1451.8" y="416.3" width="24.4" height="24.65" shape-rendering="crispEdges"/><rect fill="#efefef" x="0" y="440.7" width="1451.8" height="24.65" shape-rendering="crispEdges"/><rect fill="#23568b" x="1451.8" y="440.7" width="24.4" height="24.65" shape-rendering="crispEdges"/><rect fill="#efefef" x="0" y="465.1" width="12.2" height="24.65" shape-rendering="crispEdges"/><rect fill="#c5cfd7" x="12.2" y="465.1" width="1427.4" height="24.65" shape-rendering="crispEdges"/><rect fill="#efefef" x="1439.6" y="465.1" width="12.2" height="24.65" shape-rendering="crispEdges"/><rect fill="#23568b" x="1451.8" y="465.1" width="24.4" height="24.65" shape-rendering="crispEdges"/><rect fill="#efefef" x="0" y="489.5" width="12.2" height="24.65" shape-rendering="crispEdges"/><rect fill="#c5cfd7" x="12.2" y="489.5" width="12.2" height="24.65" shape-rendering="crispEdges"/><rect fill="#18954b" x="24.4" y="489.5" width="195.2" height="24.65" shape-rendering="crispEdges"/><rect fill="#c5cfd7" x="219.6" y="489.5" width="1012.6" height="24.65" shape-rendering="crispEdges"/><rect fill="#d0dae2" x="1232.2" y="489.5" width="195.2" height="24.65" shape-rendering="crispEdges"/><rect fill="#c5cfd7" x="1427.4" y="489.5" width="12.2" height="24.65" shape-rendering="crispEdges"/><rect fill="#efefef" x="1439.6" y="489.5" width="12.2" height="24.65" shape-rendering="crispEdges"/><rect fill="#23568b" x="1451.8" y="489.5" width="24.4" height="24.65" shape-rendering="crispEdges"/><rect fill="#efefef" x="0" y="513.9" width="12.2" height="24.65" shape-rendering="crispEdges"/><rect fill="#c5cfd7" x="12.2" y="513.9" width="12.2" height="24.65" shape-rendering="crispEdges"/><rect fill="#18954b" x="24.4" y="513.9" width="48.8" height="24.65" shape-rendering="crispEdges"/><rect fill="#18954b" x="73.2" y="513.9" width="85.4" height="24.65" shape-rendering="crispEdges"/><rect fill="#18954b" x="158.6" y="513.9" width="61" height="24.65" shape-rendering="crispEdges"/><rect fill="#c5cfd7" x="219.6" y="513.9" width="439.2" height="24.65" shape-rendering="crispEdges"/><rect fill="#c5cfd7" x="658.8" y="513.9" width="134.2" height="24.65" shape-rendering="crispEdges"/><rect fill="#c5cfd7" x="793" y="513.9" width="439.2" height="24.65" shape-rendering="crispEdges"/><rect fill="#d0dae2" x="1232.2" y="513.9" width="48.8" height="24.65" shape-rendering="crispEdges"/><rect fill="#d0dae2" x="1281" y="513.9" width="85.4" height="24.65" shape-rendering="crispEdges"/><rect fill="#d0dae2" x="1366.4" y="513.9" width="61" height="24.65" shape-rendering="crispEdges"/><rect fill="#c5cfd7" x="1427.4" y="513.9" width="12.2" height="24.65" shape-rendering="crispEdges"/><rect fill="#efefef" x="1439.6" y="513.9" width="12.2" height="24.65" shape-rendering="crispEdges"/><rect fill="#23568b" x="1451.8" y="513.9" width="24.4" height="24.65" shape-rendering="crispEdges"/><rect fill="#efefef" x="0" y="538.3" width="12.2" height="24.65" shape-rendering="crispEdges"/><rect fill="#c5cfd7" x="12.2" y="538.3" width="12.2" height="24.65" shape-rendering="crispEdges"/><rect fill="#18954b" x="24.4" y="538.3" width="195.2" height="24.65" shape-rendering="crispEdges"/><rect fill="#c5cfd7" x="219.6" y="538.3" width="1012.6" height="24.65" shape-rendering="crispEdges"/><rect fill="#d0dae2" x="1232.2" y="538.3" width="195.2" height="24.65" shape-rendering="crispEdges"/><rect fill="#c5cfd7" x="1427.4" y="538.3" width="12.2" height="24.65" shape-rendering="crispEdges"/><rect fill="#efefef" x="1439.6" y="538.3" width="12.2" height="24.65" shape-rendering="crispEdges"/><rect fill="#23568b" x="1451.8" y="538.3" width="24.4" height="24.65" shape-rendering="crispEdges"/><rect fill="#efefef" x="0" y="562.7" width="12.2" height="24.65" shape-rendering="crispEdges"/><rect fill="#c5cfd7" x="12.2" y="562.7" width="1427.4" height="24.65" shape-rendering="crispEdges"/><rect fill="#efefef" x="1439.6" y="562.7" width="12.2" height="24.65" shape-rendering="crispEdges"/><rect fill="#23568b" x="1451.8" y="562.7" width="24.4" height="24.65" shape-rendering="crispEdges"/><rect fill="#efefef" x="0" y="587.1" width="1451.8" height="24.65" shape-rendering="crispEdges"/><rect fill="#23568b" x="1451.8" y="587.1" width="24.4" height="24.65" shape-rendering="crispEdges"/><rect fill="#efefef" x="0" y="611.5" width="12.2" height="24.65" shape-rendering="crispEdges"/><rect fill="#c5cfd7" x="12.2" y="611.5" width="1427.4" height="24.65" shape-rendering="crispEdges"/><rect fill="#efefef" x="1439.6" y="611.5" width="12.2" height="24.65" shape-rendering="crispEdges"/><rect fill="#23568b" x="1451.8" y="611.5" width="24.4" height="24.65" shape-rendering="crispEdges"/><rect fill="#efefef" x="0" y="635.9" width="12.2" height="24.65" shape-rendering="crispEdges"/><rect fill="#c5cfd7" x="12.2" y="635.9" width="12.2" height="24.65" shape-rendering="crispEdges"/><rect fill="#4ebf71" x="24.4" y="635.9" width="195.2" height="24.65" shape-rendering="crispEdges"/><rect fill="#c5cfd7" x="219.6" y="635.9" width="1012.6" height="24.65" shape-rendering="crispEdges"/><rect fill="#d0dae2" x="1232.2" y="635.9" width="195.2" height="24.65" shape-rendering="crispEdges"/><rect fill="#c5cfd7" x="1427.4" y="635.9" width="12.2" height="24.65" shape-rendering="crispEdges"/><rect fill="#efefef" x="1439.6" y="635.9" width="12.2" height="24.65" shape-rendering="crispEdges"/><rect fill="#23568b" x="1451.8" y="635.9" width="24.4" height="24.65" shape-rendering="crispEdges"/><rect fill="#efefef" x="0" y="660.3" width="12.2" height="24.65" shape-rendering="crispEdges"/><rect fill="#c5cfd7" x="12.2" y="660.3" width="12.2" height="24.65" shape-rendering="crispEdges"/><rect fill="#4ebf71" x="24.4" y="660.3" width="48.8" height="24.65" shape-rendering="crispEdges"/><rect fill="#4ebf71" x="73.2" y="660.3" width="85.4" height="24.65" shape-rendering="crispEdges"/><rect fill="#4ebf71" x="158.6" y="660.3" width="61" height="24.65" shape-rendering="crispEdges"/><rect fill="#c5cfd7" x="219.6" y="660.3" width="439.2" height="24.65" shape-rendering="crispEdges"/><rect fill="#c5cfd7" x="658.8" y="660.3" width="134.2" height="24.65" shape-rendering="crispEdges"/><rect fill="#c5cfd7" x="793" y="660.3" width="439.2" height="24.65" shape-rendering="crispEdges"/><rect fill="#d0dae2" x="1232.2" y="660.3" width="48.8" height="24.65" shape-rendering="crispEdges"/><rect fill="#d0dae2" x="1281" y="660.3" width="85.4" height="24.65" shape-rendering="crispEdges"/><rect fill="#d0dae2" x="1366.4" y="660.3" width="61" height="24.65" shape-rendering="crispEdges"/><rect fill="#c5cfd7" x="1427.4" y="660.3" width="12.2" height="24.65" shape-rendering="crispEdges"/><rect fill="#efefef" x="1439.6" y="660.3" width="12.2" height="24.65" shape-rendering="crispEdges"/><rect fill="#23568b" x="1451.8" y="660.3" width="24.4" height="24.65" shape-rendering="crispEdges"/><rect fill="#efefef" x="0" y="684.7" width="12.2" height="24.65" shape-rendering="crispEdges"/><rect fill="#c5cfd7" x="12.2" y="684.7" width="12.2" height="24.65" shape-rendering="crispEdges"/><rect fill="#4ebf71" x="24.4" y="684.7" width="195.2" height="24.65" shape-rendering="crispEdges"/><rect fill="#c5cfd7" x="219.6" y="684.7" width="1012.6" height="24.65" shape-rendering="crispEdges"/><rect fill="#d0dae2" x="1232.2" y="684.7" width="195.2" height="24.65" shape-rendering="crispEdges"/><rect fill="#c5cfd7" x="1427.4" y="684.7" width="12.2" height="24.65" shape-rendering="crispEdges"/><rect fill="#efefef" x="1439.6" y="684.7" width="12.2" height="24.65" shape-rendering="crispEdges"/><rect fill="#23568b" x="1451.8" y="684.7" width="24.4" height="24.65" shape-rendering="crispEdges"/><rect fill="#efefef" x="0" y="709.1" width="12.2" height="24.65" shape-rendering="crispEdges"/><rect fill="#c5cfd7" x="12.2" y="709.1" width="1427.4" height="24.65" shape-rendering="crispEdges"/><rect fill="#efefef" x="1439.6" y="709.1" width="12.2" height="24.65" shape-rendering="crispEdges"/><rect fill="#23568b" x="1451.8" y="709.1" width="24.4" height="24.65" shape-rendering="crispEdges"/><rect fill="#efefef" x="0" y="733.5" width="1451.8" height="24.65" shape-rendering="crispEdges"/><rect fill="#23568b" x="1451.8" y="733.5" width="24.4" height="24.65" shape-rendering="crispEdges"/><rect fill="#0053aa" x="0" y="757.9" width="36.6" height="24.65" shape-rendering="crispEdges"/><rect fill="#0178d4" x="36.6" y="757.9" width="219.6" height="24.65" shape-rendering="crispEdges"/><rect fill="#0053aa" x="256.2" y="757.9" width="36.6" height="24.65" shape-rendering="crispEdges"/><rect fill="#0178d4" x="292.8" y="757.9" width="61" height="24.65" shape-rendering="crispEdges"/><rect fill="#0053aa" x="353.8" y="757.9" width="36.6" height="24.65" shape-rendering="crispEdges"/><rect fill="#0178d4" x="390.4" y="757.9" width="97.6" height="24.65" shape-rendering="crispEdges"/><rect fill="#0178d4" x="488" y="757.9" width="988.2" height="24.65" shape-rendering="crispEdges"/>
    <g class="terminal-1048030815-matrix">
    <text class="terminal-1048030815-r1" x="1476.2" y="20" textLength="12.2" clip-path="url(#terminal-1048030815-line-0)">
</text><text class="terminal-1048030815-r2" x="12.2" y="44.4" textLength="12.2" clip-path="url(#terminal-1048030815-line-1)">⭘</text><text class="terminal-1048030815-r2" x="646.6" y="44.4" textLength="146.4" clip-path="url(#terminal-1048030815-line-1)">StopwatchApp</text><text class="terminal-1048030815-r3" x="1366.4" y="44.4" textLength="97.6" clip-path="url(#terminal-1048030815-line-1)">16:11:33</text><text class="terminal-1048030815-r1" x="1476.2" y="44.4" textLength="12.2" clip-path="url(#terminal-1048030815-line-1)">
</text><text class="terminal-1048030815-r1" x="1476.2" y="68.8" textLength="12.2" clip-path="url(#terminal-1048030815-line-2)">
</text><text class="terminal-1048030815-r5" x="73.2" y="93.2" textLength="85.4" clip-path="url(#terminal-1048030815-line-3)">&#160;Start&#160;</text><text class="terminal-1048030815-r6" x="658.8" y="93.2" textLength="134.2" clip-path="url(#terminal-1048030815-line-3)">00:00:00.00</text><text class="terminal-1048030815-r7" x="1281" y="93.2" textLength="85.4" clip-path="url(#terminal-1048030815-line-3)">&#160;Reset&#160;</text><text class="terminal-1048030815-r1" x="1476.2" y="93.2" textLength="12.2" clip-path="url(#terminal-1048030815-line-3)">
</text><text class="terminal-1048030815-r8" x="24.4" y="117.6" textLength="195.2" clip-path="url(#terminal-1048030815-line-4)">▁▁▁▁▁▁▁▁▁▁▁▁▁▁▁▁</text><text class="terminal-1048030815-r9" x="1232.2" y="117.6" textLength="195.2" clip-path="url(#terminal-1048030815-line-4)">▁▁▁▁▁▁▁▁▁▁▁▁▁▁▁▁</text><text class="terminal-1048030815-r1" x="1476.2" y="117.6" textLength="12.2" clip-path="url(#terminal-1048030815-line-4)">
</text><text class="terminal-1048030815-r1" x="1476.2" y="142" textLength="12.2" clip-path="url(#terminal-1048030815-line-5)">
</text><text class="terminal-1048030815-r1" x="1476.2" y="166.4" textLength="12.2" clip-path="url(#terminal-1048030815-line-6)">
</text><text class="terminal-1048030815-r1" x="1476.2" y="190.8" textLength="12.2" clip-path="url(#terminal-1048030815-line-7)">
</text><text class="terminal-1048030815-r10" x="24.4" y="215.2" textLength="195.2" clip-path="url(#terminal-1048030815-line-8)">▔▔▔▔▔▔▔▔▔▔▔▔▔▔▔▔</text><text class="terminal-1048030815-r1" x="1476.2" y="215.2" textLength="12.2" clip-path="url(#terminal-1048030815-line-8)">
</text><text class="terminal-1048030815-r11" x="85.4" y="239.6" textLength="73.2" clip-path="url(#terminal-1048030815-line-9)">&#160;Stop&#160;</text><text class="terminal-1048030815-r5" x="658.8" y="239.6" textLength="134.2" clip-path="url(#terminal-1048030815-line-9)">00:00:18.33</text><text class="terminal-1048030815-r1" x="1476.2" y="239.6" textLength="12.2" clip-path="url(#terminal-1048030815-line-9)">
</text><text class="terminal-1048030815-r12" x="24.4" y="264" textLength="195.2" clip-path="url(#terminal-1048030815-line-10)">▁▁▁▁▁▁▁▁▁▁▁▁▁▁▁▁</text><text class="terminal-1048030815-r1" x="1476.2" y="264" textLength="12.2" clip-path="url(#terminal-1048030815-line-10)">
</text><text class="terminal-1048030815-r1" x="1476.2" y="288.4" textLength="12.2" clip-path="url(#terminal-1048030815-line-11)">
</text><text class="terminal-1048030815-r1" x="1476.2" y="312.8" textLength="12.2" clip-path="url(#terminal-1048030815-line-12)">
</text><text class="terminal-1048030815-r1" x="1476.2" y="337.2" textLength="12.2" clip-path="url(#terminal-1048030815-line-13)">
</text><text class="terminal-1048030815-r10" x="24.4" y="361.6" textLength="195.2" clip-path="url(#terminal-1048030815-line-14)">▔▔▔▔▔▔▔▔▔▔▔▔▔▔▔▔</text><text class="terminal-1048030815-r1" x="1476.2" y="361.6" textLength="12.2" clip-path="url(#terminal-1048030815-line-14)">
</text><text class="terminal-1048030815-r13" x="85.4" y="386" textLength="73.2" clip-path="url(#terminal-1048030815-line-15)">&#160;Stop&#160;</text><text class="terminal-1048030815-r5" x="658.8" y="386" textLength="134.2" clip-path="url(#terminal-1048030815-line-15)">00:00:17.08</text><text class="terminal-1048030815-r1" x="1476.2" y="386" textLength="12.2" clip-path="url(#terminal-1048030815-line-15)">
</text><text class="terminal-1048030815-r12" x="24.4" y="410.4" textLength="195.2" clip-path="url(#terminal-1048030815-line-16)">▁▁▁▁▁▁▁▁▁▁▁▁▁▁▁▁</text><text class="terminal-1048030815-r14" x="1451.8" y="410.4" textLength="24.4" clip-path="url(#terminal-1048030815-line-16)">▃▃</text><text class="terminal-1048030815-r1" x="1476.2" y="410.4" textLength="12.2" clip-path="url(#terminal-1048030815-line-16)">
</text><text class="terminal-1048030815-r1" x="1476.2" y="434.8" textLength="12.2" clip-path="url(#terminal-1048030815-line-17)">
</text><text class="terminal-1048030815-r1" x="1476.2" y="459.2" textLength="12.2" clip-path="url(#terminal-1048030815-line-18)">
</text><text class="terminal-1048030815-r1" x="1476.2" y="483.6" textLength="12.2" clip-path="url(#terminal-1048030815-line-19)">
</text><text class="terminal-1048030815-r15" x="24.4" y="508" textLength="195.2" clip-path="url(#terminal-1048030815-line-20)">▔▔▔▔▔▔▔▔▔▔▔▔▔▔▔▔</text><text class="terminal-1048030815-r16" x="1232.2" y="508" textLength="195.2" clip-path="url(#terminal-1048030815-line-20)">▔▔▔▔▔▔▔▔▔▔▔▔▔▔▔▔</text><text class="terminal-1048030815-r1" x="1476.2" y="508" textLength="12.2" clip-path="url(#terminal-1048030815-line-20)">
</text><text class="terminal-1048030815-r17" x="73.2" y="532.4" textLength="85.4" clip-path="url(#terminal-1048030815-line-21)">&#160;Start&#160;</text><text class="terminal-1048030815-r6" x="658.8" y="532.4" textLength="134.2" clip-path="url(#terminal-1048030815-line-21)">00:00:00.00</text><text class="terminal-1048030815-r7" x="1281" y="532.4" textLength="85.4" clip-path="url(#terminal-1048030815-line-21)">&#160;Reset&#160;</text><text class="terminal-1048030815-r1" x="1476.2" y="532.4" textLength="12.2" clip-path="url(#terminal-1048030815-line-21)">
</text><text class="terminal-1048030815-r8" x="24.4" y="556.8" textLength="195.2" clip-path="url(#terminal-1048030815-line-22)">▁▁▁▁▁▁▁▁▁▁▁▁▁▁▁▁</text><text class="terminal-1048030815-r9" x="1232.2" y="556.8" textLength="195.2" clip-path="url(#terminal-1048030815-line-22)">▁▁▁▁▁▁▁▁▁▁▁▁▁▁▁▁</text><text class="terminal-1048030815-r1" x="1476.2" y="556.8" textLength="12.2" clip-path="url(#terminal-1048030815-line-22)">
</text><text class="terminal-1048030815-r1" x="1476.2" y="581.2" textLength="12.2" clip-path="url(#terminal-1048030815-line-23)">
</text><text class="terminal-1048030815-r1" x="1476.2" y="605.6" textLength="12.2" clip-path="url(#terminal-1048030815-line-24)">
</text><text class="terminal-1048030815-r1" x="1476.2" y="630" textLength="12.2" clip-path="url(#terminal-1048030815-line-25)">
</text><text class="terminal-1048030815-r15" x="24.4" y="654.4" textLength="195.2" clip-path="url(#terminal-1048030815-line-26)">▔▔▔▔▔▔▔▔▔▔▔▔▔▔▔▔</text><text class="terminal-1048030815-r16" x="1232.2" y="654.4" textLength="195.2" clip-path="url(#terminal-1048030815-line-26)">▔▔▔▔▔▔▔▔▔▔▔▔▔▔▔▔</text><text class="terminal-1048030815-r1" x="1476.2" y="654.4" textLength="12.2" clip-path="url(#terminal-1048030815-line-26)">
</text><text class="terminal-1048030815-r5" x="73.2" y="678.8" textLength="85.4" clip-path="url(#terminal-1048030815-line-27)">&#160;Start&#160;</text><text class="terminal-1048030815-r6" x="658.8" y="678.8" textLength="134.2" clip-path="url(#terminal-1048030815-line-27)">00:00:00.00</text><text class="terminal-1048030815-r7" x="1281" y="678.8" textLength="85.4" clip-path="url(#terminal-1048030815-line-27)">&#160;Reset&#160;</text><text class="terminal-1048030815-r1" x="1476.2" y="678.8" textLength="12.2" clip-path="url(#terminal-1048030815-line-27)">
</text><text class="terminal-1048030815-r8" x="24.4" y="703.2" textLength="195.2" clip-path="url(#terminal-1048030815-line-28)">▁▁▁▁▁▁▁▁▁▁▁▁▁▁▁▁</text><text class="terminal-1048030815-r9" x="1232.2" y="703.2" textLength="195.2" clip-path="url(#terminal-1048030815-line-28)">▁▁▁▁▁▁▁▁▁▁▁▁▁▁▁▁</text><text class="terminal-1048030815-r1" x="1476.2" y="703.2" textLength="12.2" clip-path="url(#terminal-1048030815-line-28)">
</text><text class="terminal-1048030815-r1" x="1476.2" y="727.6" textLength="12.2" clip-path="url(#terminal-1048030815-line-29)">
</text><text class="terminal-1048030815-r1" x="1476.2" y="752" textLength="12.2" clip-path="url(#terminal-1048030815-line-30)">
</text><text class="terminal-1048030815-r18" x="0" y="776.4" textLength="36.6" clip-path="url(#terminal-1048030815-line-31)">&#160;D&#160;</text><text class="terminal-1048030815-r19" x="36.6" y="776.4" textLength="219.6" clip-path="url(#terminal-1048030815-line-31)">&#160;Toggle&#160;dark&#160;mode&#160;</text><text class="terminal-1048030815-r18" x="256.2" y="776.4" textLength="36.6" clip-path="url(#terminal-1048030815-line-31)">&#160;A&#160;</text><text class="terminal-1048030815-r19" x="292.8" y="776.4" textLength="61" clip-path="url(#terminal-1048030815-line-31)">&#160;Add&#160;</text><text class="terminal-1048030815-r18" x="353.8" y="776.4" textLength="36.6" clip-path="url(#terminal-1048030815-line-31)">&#160;R&#160;</text><text class="terminal-1048030815-r19" x="390.4" y="776.4" textLength="97.6" clip-path="url(#terminal-1048030815-line-31)">&#160;Remove&#160;</text>
    </g>
    </g>
</svg>
