<svg class="rich-terminal" viewBox="0 0 677 782.0" xmlns="http://www.w3.org/2000/svg">
    <!-- Generated with Rich https://www.textualize.io -->
    <style>

    @font-face {
        font-family: "Fira Code";
        src: local("FiraCode-Regular"),
                url("https://cdnjs.cloudflare.com/ajax/libs/firacode/6.2.0/woff2/FiraCode-Regular.woff2") format("woff2"),
                url("https://cdnjs.cloudflare.com/ajax/libs/firacode/6.2.0/woff/FiraCode-Regular.woff") format("woff");
        font-style: normal;
        font-weight: 400;
    }
    @font-face {
        font-family: "Fira Code";
        src: local("FiraCode-Bold"),
                url("https://cdnjs.cloudflare.com/ajax/libs/firacode/6.2.0/woff2/FiraCode-Bold.woff2") format("woff2"),
                url("https://cdnjs.cloudflare.com/ajax/libs/firacode/6.2.0/woff/FiraCode-Bold.woff") format("woff");
        font-style: bold;
        font-weight: 700;
    }

    .terminal-4245639771-matrix {
        font-family: Fira Code, monospace;
        font-size: 20px;
        line-height: 24.4px;
        font-variant-east-asian: full-width;
    }

    .terminal-4245639771-title {
        font-size: 18px;
        font-weight: bold;
        font-family: arial;
    }

    .terminal-4245639771-r1 { fill: #c5c8c6 }
.terminal-4245639771-r2 { fill: #0c0802 }
.terminal-4245639771-r3 { fill: #30220b }
.terminal-4245639771-r4 { fill: #0b0b0b }
.terminal-4245639771-r5 { fill: #7ae998 }
.terminal-4245639771-r6 { fill: #e5eff7 }
.terminal-4245639771-r7 { fill: #030905;font-weight: bold }
.terminal-4245639771-r8 { fill: #55595c }
.terminal-4245639771-r9 { fill: #0a0a0b;font-weight: bold }
.terminal-4245639771-r10 { fill: #008139 }
.terminal-4245639771-r11 { fill: #b1bac2 }
.terminal-4245639771-r12 { fill: #e76580 }
.terminal-4245639771-r13 { fill: #fbf5f6;font-weight: bold }
.terminal-4245639771-r14 { fill: #780028 }
.terminal-4245639771-r15 { fill: #b93c5b;font-weight: bold }
.terminal-4245639771-r16 { fill: #f2f6fa;font-weight: bold }
.terminal-4245639771-r17 { fill: #f2f8fc }
    </style>

    <defs>
    <clipPath id="terminal-4245639771-clip-terminal">
      <rect x="0" y="0" width="657.8" height="731.0" />
    </clipPath>
    <clipPath id="terminal-4245639771-line-0">
    <rect x="0" y="1.5" width="658.8" height="24.65"/>
            </clipPath>
<clipPath id="terminal-4245639771-line-1">
    <rect x="0" y="25.9" width="658.8" height="24.65"/>
            </clipPath>
<clipPath id="terminal-4245639771-line-2">
    <rect x="0" y="50.3" width="658.8" height="24.65"/>
            </clipPath>
<clipPath id="terminal-4245639771-line-3">
    <rect x="0" y="74.7" width="658.8" height="24.65"/>
            </clipPath>
<clipPath id="terminal-4245639771-line-4">
    <rect x="0" y="99.1" width="658.8" height="24.65"/>
            </clipPath>
<clipPath id="terminal-4245639771-line-5">
    <rect x="0" y="123.5" width="658.8" height="24.65"/>
            </clipPath>
<clipPath id="terminal-4245639771-line-6">
    <rect x="0" y="147.9" width="658.8" height="24.65"/>
            </clipPath>
<clipPath id="terminal-4245639771-line-7">
    <rect x="0" y="172.3" width="658.8" height="24.65"/>
            </clipPath>
<clipPath id="terminal-4245639771-line-8">
    <rect x="0" y="196.7" width="658.8" height="24.65"/>
            </clipPath>
<clipPath id="terminal-4245639771-line-9">
    <rect x="0" y="221.1" width="658.8" height="24.65"/>
            </clipPath>
<clipPath id="terminal-4245639771-line-10">
    <rect x="0" y="245.5" width="658.8" height="24.65"/>
            </clipPath>
<clipPath id="terminal-4245639771-line-11">
    <rect x="0" y="269.9" width="658.8" height="24.65"/>
            </clipPath>
<clipPath id="terminal-4245639771-line-12">
    <rect x="0" y="294.3" width="658.8" height="24.65"/>
            </clipPath>
<clipPath id="terminal-4245639771-line-13">
    <rect x="0" y="318.7" width="658.8" height="24.65"/>
            </clipPath>
<clipPath id="terminal-4245639771-line-14">
    <rect x="0" y="343.1" width="658.8" height="24.65"/>
            </clipPath>
<clipPath id="terminal-4245639771-line-15">
    <rect x="0" y="367.5" width="658.8" height="24.65"/>
            </clipPath>
<clipPath id="terminal-4245639771-line-16">
    <rect x="0" y="391.9" width="658.8" height="24.65"/>
            </clipPath>
<clipPath id="terminal-4245639771-line-17">
    <rect x="0" y="416.3" width="658.8" height="24.65"/>
            </clipPath>
<clipPath id="terminal-4245639771-line-18">
    <rect x="0" y="440.7" width="658.8" height="24.65"/>
            </clipPath>
<clipPath id="terminal-4245639771-line-19">
    <rect x="0" y="465.1" width="658.8" height="24.65"/>
            </clipPath>
<clipPath id="terminal-4245639771-line-20">
    <rect x="0" y="489.5" width="658.8" height="24.65"/>
            </clipPath>
<clipPath id="terminal-4245639771-line-21">
    <rect x="0" y="513.9" width="658.8" height="24.65"/>
            </clipPath>
<clipPath id="terminal-4245639771-line-22">
    <rect x="0" y="538.3" width="658.8" height="24.65"/>
            </clipPath>
<clipPath id="terminal-4245639771-line-23">
    <rect x="0" y="562.7" width="658.8" height="24.65"/>
            </clipPath>
<clipPath id="terminal-4245639771-line-24">
    <rect x="0" y="587.1" width="658.8" height="24.65"/>
            </clipPath>
<clipPath id="terminal-4245639771-line-25">
    <rect x="0" y="611.5" width="658.8" height="24.65"/>
            </clipPath>
<clipPath id="terminal-4245639771-line-26">
    <rect x="0" y="635.9" width="658.8" height="24.65"/>
            </clipPath>
<clipPath id="terminal-4245639771-line-27">
    <rect x="0" y="660.3" width="658.8" height="24.65"/>
            </clipPath>
<clipPath id="terminal-4245639771-line-28">
    <rect x="0" y="684.7" width="658.8" height="24.65"/>
            </clipPath>
    </defs>

    <rect fill="#292929" stroke="rgba(255,255,255,0.35)" stroke-width="1" x="1" y="1" width="675" height="780" rx="8"/><text class="terminal-4245639771-title" fill="#c5c8c6" text-anchor="middle" x="337" y="27">StopwatchApp</text>
            <g transform="translate(26,22)">
            <circle cx="0" cy="0" r="7" fill="#ff5f57"/>
            <circle cx="22" cy="0" r="7" fill="#febc2e"/>
            <circle cx="44" cy="0" r="7" fill="#28c840"/>
            </g>
        
    <g transform="translate(9, 41)" clip-path="url(#terminal-4245639771-clip-terminal)">
    <rect fill="#fea62b" x="0" y="1.5" width="12.2" height="24.65" shape-rendering="crispEdges"/><rect fill="#fea62b" x="12.2" y="1.5" width="12.2" height="24.65" shape-rendering="crispEdges"/><rect fill="#fea62b" x="24.4" y="1.5" width="73.2" height="24.65" shape-rendering="crispEdges"/><rect fill="#fea62b" x="97.6" y="1.5" width="146.4" height="24.65" shape-rendering="crispEdges"/><rect fill="#fea62b" x="244" y="1.5" width="146.4" height="24.65" shape-rendering="crispEdges"/><rect fill="#fea62b" x="390.4" y="1.5" width="146.4" height="24.65" shape-rendering="crispEdges"/><rect fill="#ffba41" x="536.8" y="1.5" width="12.2" height="24.65" shape-rendering="crispEdges"/><rect fill="#ffba41" x="549" y="1.5" width="97.6" height="24.65" shape-rendering="crispEdges"/><rect fill="#ffba41" x="646.6" y="1.5" width="12.2" height="24.65" shape-rendering="crispEdges"/><rect fill="#efefef" x="0" y="25.9" width="658.8" height="24.65" shape-rendering="crispEdges"/><rect fill="#efefef" x="0" y="50.3" width="12.2" height="24.65" shape-rendering="crispEdges"/><rect fill="#c5cfd7" x="12.2" y="50.3" width="634.4" height="24.65" shape-rendering="crispEdges"/><rect fill="#efefef" x="646.6" y="50.3" width="12.2" height="24.65" shape-rendering="crispEdges"/><rect fill="#efefef" x="0" y="74.7" width="12.2" height="24.65" shape-rendering="crispEdges"/><rect fill="#c5cfd7" x="12.2" y="74.7" width="12.2" height="24.65" shape-rendering="crispEdges"/><rect fill="#4ebf71" x="24.4" y="74.7" width="195.2" height="24.65" shape-rendering="crispEdges"/><rect fill="#c5cfd7" x="219.6" y="74.7" width="219.6" height="24.65" shape-rendering="crispEdges"/><rect fill="#d0dae2" x="439.2" y="74.7" width="195.2" height="24.65" shape-rendering="crispEdges"/><rect fill="#c5cfd7" x="634.4" y="74.7" width="12.2" height="24.65" shape-rendering="crispEdges"/><rect fill="#efefef" x="646.6" y="74.7" width="12.2" height="24.65" shape-rendering="crispEdges"/><rect fill="#efefef" x="0" y="99.1" width="12.2" height="24.65" shape-rendering="crispEdges"/><rect fill="#c5cfd7" x="12.2" y="99.1" width="12.2" height="24.65" shape-rendering="crispEdges"/><rect fill="#4ebf71" x="24.4" y="99.1" width="48.8" height="24.65" shape-rendering="crispEdges"/><rect fill="#4ebf71" x="73.2" y="99.1" width="85.4" height="24.65" shape-rendering="crispEdges"/><rect fill="#4ebf71" x="158.6" y="99.1" width="61" height="24.65" shape-rendering="crispEdges"/><rect fill="#c5cfd7" x="219.6" y="99.1" width="36.6" height="24.65" shape-rendering="crispEdges"/><rect fill="#c5cfd7" x="256.2" y="99.1" width="134.2" height="24.65" shape-rendering="crispEdges"/><rect fill="#c5cfd7" x="390.4" y="99.1" width="48.8" height="24.65" shape-rendering="crispEdges"/><rect fill="#d0dae2" x="439.2" y="99.1" width="48.8" height="24.65" shape-rendering="crispEdges"/><rect fill="#d0dae2" x="488" y="99.1" width="85.4" height="24.65" shape-rendering="crispEdges"/><rect fill="#d0dae2" x="573.4" y="99.1" width="61" height="24.65" shape-rendering="crispEdges"/><rect fill="#c5cfd7" x="634.4" y="99.1" width="12.2" height="24.65" shape-rendering="crispEdges"/><rect fill="#efefef" x="646.6" y="99.1" width="12.2" height="24.65" shape-rendering="crispEdges"/><rect fill="#efefef" x="0" y="123.5" width="12.2" height="24.65" shape-rendering="crispEdges"/><rect fill="#c5cfd7" x="12.2" y="123.5" width="12.2" height="24.65" shape-rendering="crispEdges"/><rect fill="#4ebf71" x="24.4" y="123.5" width="195.2" height="24.65" shape-rendering="crispEdges"/><rect fill="#c5cfd7" x="219.6" y="123.5" width="219.6" height="24.65" shape-rendering="crispEdges"/><rect fill="#d0dae2" x="439.2" y="123.5" width="195.2" height="24.65" shape-rendering="crispEdges"/><rect fill="#c5cfd7" x="634.4" y="123.5" width="12.2" height="24.65" shape-rendering="crispEdges"/><rect fill="#efefef" x="646.6" y="123.5" width="12.2" height="24.65" shape-rendering="crispEdges"/><rect fill="#efefef" x="0" y="147.9" width="12.2" height="24.65" shape-rendering="crispEdges"/><rect fill="#c5cfd7" x="12.2" y="147.9" width="634.4" height="24.65" shape-rendering="crispEdges"/><rect fill="#efefef" x="646.6" y="147.9" width="12.2" height="24.65" shape-rendering="crispEdges"/><rect fill="#efefef" x="0" y="172.3" width="658.8" height="24.65" shape-rendering="crispEdges"/><rect fill="#efefef" x="0" y="196.7" width="12.2" height="24.65" shape-rendering="crispEdges"/><rect fill="#4ebf71" x="12.2" y="196.7" width="634.4" height="24.65" shape-rendering="crispEdges"/><rect fill="#efefef" x="646.6" y="196.7" width="12.2" height="24.65" shape-rendering="crispEdges"/><rect fill="#efefef" x="0" y="221.1" width="12.2" height="24.65" shape-rendering="crispEdges"/><rect fill="#4ebf71" x="12.2" y="221.1" width="12.2" height="24.65" shape-rendering="crispEdges"/><rect fill="#b93c5b" x="24.4" y="221.1" width="195.2" height="24.65" shape-rendering="crispEdges"/><rect fill="#4ebf71" x="219.6" y="221.1" width="219.6" height="24.65" shape-rendering="crispEdges"/><rect fill="#4ebf71" x="439.2" y="221.1" width="195.2" height="24.65" shape-rendering="crispEdges"/><rect fill="#4ebf71" x="634.4" y="221.1" width="12.2" height="24.65" shape-rendering="crispEdges"/><rect fill="#efefef" x="646.6" y="221.1" width="12.2" height="24.65" shape-rendering="crispEdges"/><rect fill="#efefef" x="0" y="245.5" width="12.2" height="24.65" shape-rendering="crispEdges"/><rect fill="#4ebf71" x="12.2" y="245.5" width="12.2" height="24.65" shape-rendering="crispEdges"/><rect fill="#b93c5b" x="24.4" y="245.5" width="61" height="24.65" shape-rendering="crispEdges"/><rect fill="#b93c5b" x="85.4" y="245.5" width="73.2" height="24.65" shape-rendering="crispEdges"/><rect fill="#b93c5b" x="158.6" y="245.5" width="61" height="24.65" shape-rendering="crispEdges"/><rect fill="#4ebf71" x="219.6" y="245.5" width="36.6" height="24.65" shape-rendering="crispEdges"/><rect fill="#4ebf71" x="256.2" y="245.5" width="134.2" height="24.65" shape-rendering="crispEdges"/><rect fill="#4ebf71" x="390.4" y="245.5" width="48.8" height="24.65" shape-rendering="crispEdges"/><rect fill="#4ebf71" x="439.2" y="245.5" width="195.2" height="24.65" shape-rendering="crispEdges"/><rect fill="#4ebf71" x="634.4" y="245.5" width="12.2" height="24.65" shape-rendering="crispEdges"/><rect fill="#efefef" x="646.6" y="245.5" width="12.2" height="24.65" shape-rendering="crispEdges"/><rect fill="#efefef" x="0" y="269.9" width="12.2" height="24.65" shape-rendering="crispEdges"/><rect fill="#4ebf71" x="12.2" y="269.9" width="12.2" height="24.65" shape-rendering="crispEdges"/><rect fill="#b93c5b" x="24.4" y="269.9" width="195.2" height="24.65" shape-rendering="crispEdges"/><rect fill="#4ebf71" x="219.6" y="269.9" width="219.6" height="24.65" shape-rendering="crispEdges"/><rect fill="#4ebf71" x="439.2" y="269.9" width="195.2" height="24.65" shape-rendering="crispEdges"/><rect fill="#4ebf71" x="634.4" y="269.9" width="12.2" height="24.65" shape-rendering="crispEdges"/><rect fill="#efefef" x="646.6" y="269.9" width="12.2" height="24.65" shape-rendering="crispEdges"/><rect fill="#efefef" x="0" y="294.3" width="12.2" height="24.65" shape-rendering="crispEdges"/><rect fill="#4ebf71" x="12.2" y="294.3" width="634.4" height="24.65" shape-rendering="crispEdges"/><rect fill="#efefef" x="646.6" y="294.3" width="12.2" height="24.65" shape-rendering="crispEdges"/><rect fill="#efefef" x="0" y="318.7" width="658.8" height="24.65" shape-rendering="crispEdges"/><rect fill="#efefef" x="0" y="343.1" width="12.2" height="24.65" shape-rendering="crispEdges"/><rect fill="#4ebf71" x="12.2" y="343.1" width="634.4" height="24.65" shape-rendering="crispEdges"/><rect fill="#efefef" x="646.6" y="343.1" width="12.2" height="24.65" shape-rendering="crispEdges"/><rect fill="#efefef" x="0" y="367.5" width="12.2" height="24.65" shape-rendering="crispEdges"/><rect fill="#4ebf71" x="12.2" y="367.5" width="12.2" height="24.65" shape-rendering="crispEdges"/><rect fill="#b93c5b" x="24.4" y="367.5" width="195.2" height="24.65" shape-rendering="crispEdges"/><rect fill="#4ebf71" x="219.6" y="367.5" width="219.6" height="24.65" shape-rendering="crispEdges"/><rect fill="#4ebf71" x="439.2" y="367.5" width="195.2" height="24.65" shape-rendering="crispEdges"/><rect fill="#4ebf71" x="634.4" y="367.5" width="12.2" height="24.65" shape-rendering="crispEdges"/><rect fill="#efefef" x="646.6" y="367.5" width="12.2" height="24.65" shape-rendering="crispEdges"/><rect fill="#efefef" x="0" y="391.9" width="12.2" height="24.65" shape-rendering="crispEdges"/><rect fill="#4ebf71" x="12.2" y="391.9" width="12.2" height="24.65" shape-rendering="crispEdges"/><rect fill="#b93c5b" x="24.4" y="391.9" width="61" height="24.65" shape-rendering="crispEdges"/><rect fill="#fbf5f6" x="85.4" y="391.9" width="73.2" height="24.65" shape-rendering="crispEdges"/><rect fill="#b93c5b" x="158.6" y="391.9" width="61" height="24.65" shape-rendering="crispEdges"/><rect fill="#4ebf71" x="219.6" y="391.9" width="36.6" height="24.65" shape-rendering="crispEdges"/><rect fill="#4ebf71" x="256.2" y="391.9" width="134.2" height="24.65" shape-rendering="crispEdges"/><rect fill="#4ebf71" x="390.4" y="391.9" width="48.8" height="24.65" shape-rendering="crispEdges"/><rect fill="#4ebf71" x="439.2" y="391.9" width="195.2" height="24.65" shape-rendering="crispEdges"/><rect fill="#4ebf71" x="634.4" y="391.9" width="12.2" height="24.65" shape-rendering="crispEdges"/><rect fill="#efefef" x="646.6" y="391.9" width="12.2" height="24.65" shape-rendering="crispEdges"/><rect fill="#efefef" x="0" y="416.3" width="12.2" height="24.65" shape-rendering="crispEdges"/><rect fill="#4ebf71" x="12.2" y="416.3" width="12.2" height="24.65" shape-rendering="crispEdges"/><rect fill="#b93c5b" x="24.4" y="416.3" width="195.2" height="24.65" shape-rendering="crispEdges"/><rect fill="#4ebf71" x="219.6" y="416.3" width="219.6" height="24.65" shape-rendering="crispEdges"/><rect fill="#4ebf71" x="439.2" y="416.3" width="195.2" height="24.65" shape-rendering="crispEdges"/><rect fill="#4ebf71" x="634.4" y="416.3" width="12.2" height="24.65" shape-rendering="crispEdges"/><rect fill="#efefef" x="646.6" y="416.3" width="12.2" height="24.65" shape-rendering="crispEdges"/><rect fill="#efefef" x="0" y="440.7" width="12.2" height="24.65" shape-rendering="crispEdges"/><rect fill="#4ebf71" x="12.2" y="440.7" width="634.4" height="24.65" shape-rendering="crispEdges"/><rect fill="#efefef" x="646.6" y="440.7" width="12.2" height="24.65" shape-rendering="crispEdges"/><rect fill="#efefef" x="0" y="465.1" width="658.8" height="24.65" shape-rendering="crispEdges"/><rect fill="#efefef" x="0" y="489.5" width="12.2" height="24.65" shape-rendering="crispEdges"/><rect fill="#c5cfd7" x="12.2" y="489.5" width="634.4" height="24.65" shape-rendering="crispEdges"/><rect fill="#efefef" x="646.6" y="489.5" width="12.2" height="24.65" shape-rendering="crispEdges"/><rect fill="#efefef" x="0" y="513.9" width="12.2" height="24.65" shape-rendering="crispEdges"/><rect fill="#c5cfd7" x="12.2" y="513.9" width="12.2" height="24.65" shape-rendering="crispEdges"/><rect fill="#4ebf71" x="24.4" y="513.9" width="195.2" height="24.65" shape-rendering="crispEdges"/><rect fill="#c5cfd7" x="219.6" y="513.9" width="219.6" height="24.65" shape-rendering="crispEdges"/><rect fill="#d0dae2" x="439.2" y="513.9" width="195.2" height="24.65" shape-rendering="crispEdges"/><rect fill="#c5cfd7" x="634.4" y="513.9" width="12.2" height="24.65" shape-rendering="crispEdges"/><rect fill="#efefef" x="646.6" y="513.9" width="12.2" height="24.65" shape-rendering="crispEdges"/><rect fill="#efefef" x="0" y="538.3" width="12.2" height="24.65" shape-rendering="crispEdges"/><rect fill="#c5cfd7" x="12.2" y="538.3" width="12.2" height="24.65" shape-rendering="crispEdges"/><rect fill="#4ebf71" x="24.4" y="538.3" width="48.8" height="24.65" shape-rendering="crispEdges"/><rect fill="#4ebf71" x="73.2" y="538.3" width="85.4" height="24.65" shape-rendering="crispEdges"/><rect fill="#4ebf71" x="158.6" y="538.3" width="61" height="24.65" shape-rendering="crispEdges"/><rect fill="#c5cfd7" x="219.6" y="538.3" width="36.6" height="24.65" shape-rendering="crispEdges"/><rect fill="#c5cfd7" x="256.2" y="538.3" width="134.2" height="24.65" shape-rendering="crispEdges"/><rect fill="#c5cfd7" x="390.4" y="538.3" width="48.8" height="24.65" shape-rendering="crispEdges"/><rect fill="#d0dae2" x="439.2" y="538.3" width="48.8" height="24.65" shape-rendering="crispEdges"/><rect fill="#d0dae2" x="488" y="538.3" width="85.4" height="24.65" shape-rendering="crispEdges"/><rect fill="#d0dae2" x="573.4" y="538.3" width="61" height="24.65" shape-rendering="crispEdges"/><rect fill="#c5cfd7" x="634.4" y="538.3" width="12.2" height="24.65" shape-rendering="crispEdges"/><rect fill="#efefef" x="646.6" y="538.3" width="12.2" height="24.65" shape-rendering="crispEdges"/><rect fill="#efefef" x="0" y="562.7" width="12.2" height="24.65" shape-rendering="crispEdges"/><rect fill="#c5cfd7" x="12.2" y="562.7" width="12.2" height="24.65" shape-rendering="crispEdges"/><rect fill="#4ebf71" x="24.4" y="562.7" width="195.2" height="24.65" shape-rendering="crispEdges"/><rect fill="#c5cfd7" x="219.6" y="562.7" width="219.6" height="24.65" shape-rendering="crispEdges"/><rect fill="#d0dae2" x="439.2" y="562.7" width="195.2" height="24.65" shape-rendering="crispEdges"/><rect fill="#c5cfd7" x="634.4" y="562.7" width="12.2" height="24.65" shape-rendering="crispEdges"/><rect fill="#efefef" x="646.6" y="562.7" width="12.2" height="24.65" shape-rendering="crispEdges"/><rect fill="#efefef" x="0" y="587.1" width="12.2" height="24.65" shape-rendering="crispEdges"/><rect fill="#c5cfd7" x="12.2" y="587.1" width="634.4" height="24.65" shape-rendering="crispEdges"/><rect fill="#efefef" x="646.6" y="587.1" width="12.2" height="24.65" shape-rendering="crispEdges"/><rect fill="#efefef" x="0" y="611.5" width="658.8" height="24.65" shape-rendering="crispEdges"/><rect fill="#efefef" x="0" y="635.9" width="658.8" height="24.65" shape-rendering="crispEdges"/><rect fill="#efefef" x="0" y="660.3" width="658.8" height="24.65" shape-rendering="crispEdges"/><rect fill="#efefef" x="0" y="684.7" width="658.8" height="24.65" shape-rendering="crispEdges"/><rect fill="#0053aa" x="0" y="709.1" width="36.6" height="24.65" shape-rendering="crispEdges"/><rect fill="#0178d4" x="36.6" y="709.1" width="219.6" height="24.65" shape-rendering="crispEdges"/><rect fill="#0053aa" x="256.2" y="709.1" width="36.6" height="24.65" shape-rendering="crispEdges"/><rect fill="#0178d4" x="292.8" y="709.1" width="61" height="24.65" shape-rendering="crispEdges"/><rect fill="#0053aa" x="353.8" y="709.1" width="36.6" height="24.65" shape-rendering="crispEdges"/><rect fill="#0178d4" x="390.4" y="709.1" width="97.6" height="24.65" shape-rendering="crispEdges"/><rect fill="#0178d4" x="488" y="709.1" width="170.8" height="24.65" shape-rendering="crispEdges"/>
    <g class="terminal-4245639771-matrix">
    <text class="terminal-4245639771-r2" x="12.2" y="20" textLength="12.2" clip-path="url(#terminal-4245639771-line-0)">⭘</text><text class="terminal-4245639771-r2" x="244" y="20" textLength="146.4" clip-path="url(#terminal-4245639771-line-0)">StopwatchApp</text><text class="terminal-4245639771-r3" x="549" y="20" textLength="97.6" clip-path="url(#terminal-4245639771-line-0)">15:42:24</text><text class="terminal-4245639771-r1" x="658.8" y="20" textLength="12.2" clip-path="url(#terminal-4245639771-line-0)">
</text><text class="terminal-4245639771-r1" x="658.8" y="44.4" textLength="12.2" clip-path="url(#terminal-4245639771-line-1)">
</text><text class="terminal-4245639771-r1" x="658.8" y="68.8" textLength="12.2" clip-path="url(#terminal-4245639771-line-2)">
</text><text class="terminal-4245639771-r5" x="24.4" y="93.2" textLength="195.2" clip-path="url(#terminal-4245639771-line-3)">▔▔▔▔▔▔▔▔▔▔▔▔▔▔▔▔</text><text class="terminal-4245639771-r6" x="439.2" y="93.2" textLength="195.2" clip-path="url(#terminal-4245639771-line-3)">▔▔▔▔▔▔▔▔▔▔▔▔▔▔▔▔</text><text class="terminal-4245639771-r1" x="658.8" y="93.2" textLength="12.2" clip-path="url(#terminal-4245639771-line-3)">
</text><text class="terminal-4245639771-r7" x="73.2" y="117.6" textLength="85.4" clip-path="url(#terminal-4245639771-line-4)">&#160;Start&#160;</text><text class="terminal-4245639771-r8" x="256.2" y="117.6" textLength="134.2" clip-path="url(#terminal-4245639771-line-4)">00:00:00.00</text><text class="terminal-4245639771-r9" x="488" y="117.6" textLength="85.4" clip-path="url(#terminal-4245639771-line-4)">&#160;Reset&#160;</text><text class="terminal-4245639771-r1" x="658.8" y="117.6" textLength="12.2" clip-path="url(#terminal-4245639771-line-4)">
</text><text class="terminal-4245639771-r10" x="24.4" y="142" textLength="195.2" clip-path="url(#terminal-4245639771-line-5)">▁▁▁▁▁▁▁▁▁▁▁▁▁▁▁▁</text><text class="terminal-4245639771-r11" x="439.2" y="142" textLength="195.2" clip-path="url(#terminal-4245639771-line-5)">▁▁▁▁▁▁▁▁▁▁▁▁▁▁▁▁</text><text class="terminal-4245639771-r1" x="658.8" y="142" textLength="12.2" clip-path="url(#terminal-4245639771-line-5)">
</text><text class="terminal-4245639771-r1" x="658.8" y="166.4" textLength="12.2" clip-path="url(#terminal-4245639771-line-6)">
</text><text class="terminal-4245639771-r1" x="658.8" y="190.8" textLength="12.2" clip-path="url(#terminal-4245639771-line-7)">
</text><text class="terminal-4245639771-r1" x="658.8" y="215.2" textLength="12.2" clip-path="url(#terminal-4245639771-line-8)">
</text><text class="terminal-4245639771-r12" x="24.4" y="239.6" textLength="195.2" clip-path="url(#terminal-4245639771-line-9)">▔▔▔▔▔▔▔▔▔▔▔▔▔▔▔▔</text><text class="terminal-4245639771-r1" x="658.8" y="239.6" textLength="12.2" clip-path="url(#terminal-4245639771-line-9)">
</text><text class="terminal-4245639771-r13" x="85.4" y="264" textLength="73.2" clip-path="url(#terminal-4245639771-line-10)">&#160;Stop&#160;</text><text class="terminal-4245639771-r7" x="256.2" y="264" textLength="134.2" clip-path="url(#terminal-4245639771-line-10)">00:01:41.32</text><text class="terminal-4245639771-r1" x="658.8" y="264" textLength="12.2" clip-path="url(#terminal-4245639771-line-10)">
</text><text class="terminal-4245639771-r14" x="24.4" y="288.4" textLength="195.2" clip-path="url(#terminal-4245639771-line-11)">▁▁▁▁▁▁▁▁▁▁▁▁▁▁▁▁</text><text class="terminal-4245639771-r1" x="658.8" y="288.4" textLength="12.2" clip-path="url(#terminal-4245639771-line-11)">
</text><text class="terminal-4245639771-r1" x="658.8" y="312.8" textLength="12.2" clip-path="url(#terminal-4245639771-line-12)">
</text><text class="terminal-4245639771-r1" x="658.8" y="337.2" textLength="12.2" clip-path="url(#terminal-4245639771-line-13)">
</text><text class="terminal-4245639771-r1" x="658.8" y="361.6" textLength="12.2" clip-path="url(#terminal-4245639771-line-14)">
</text><text class="terminal-4245639771-r12" x="24.4" y="386" textLength="195.2" clip-path="url(#terminal-4245639771-line-15)">▔▔▔▔▔▔▔▔▔▔▔▔▔▔▔▔</text><text class="terminal-4245639771-r1" x="658.8" y="386" textLength="12.2" clip-path="url(#terminal-4245639771-line-15)">
</text><text class="terminal-4245639771-r15" x="85.4" y="410.4" textLength="73.2" clip-path="url(#terminal-4245639771-line-16)">&#160;Stop&#160;</text><text class="terminal-4245639771-r7" x="256.2" y="410.4" textLength="134.2" clip-path="url(#terminal-4245639771-line-16)">00:01:39.93</text><text class="terminal-4245639771-r1" x="658.8" y="410.4" textLength="12.2" clip-path="url(#terminal-4245639771-line-16)">
</text><text class="terminal-4245639771-r14" x="24.4" y="434.8" textLength="195.2" clip-path="url(#terminal-4245639771-line-17)">▁▁▁▁▁▁▁▁▁▁▁▁▁▁▁▁</text><text class="terminal-4245639771-r1" x="658.8" y="434.8" textLength="12.2" clip-path="url(#terminal-4245639771-line-17)">
</text><text class="terminal-4245639771-r1" x="658.8" y="459.2" textLength="12.2" clip-path="url(#terminal-4245639771-line-18)">
</text><text class="terminal-4245639771-r1" x="658.8" y="483.6" textLength="12.2" clip-path="url(#terminal-4245639771-line-19)">
</text><text class="terminal-4245639771-r1" x="658.8" y="508" textLength="12.2" clip-path="url(#terminal-4245639771-line-20)">
</text><text class="terminal-4245639771-r5" x="24.4" y="532.4" textLength="195.2" clip-path="url(#terminal-4245639771-line-21)">▔▔▔▔▔▔▔▔▔▔▔▔▔▔▔▔</text><text class="terminal-4245639771-r6" x="439.2" y="532.4" textLength="195.2" clip-path="url(#terminal-4245639771-line-21)">▔▔▔▔▔▔▔▔▔▔▔▔▔▔▔▔</text><text class="terminal-4245639771-r1" x="658.8" y="532.4" textLength="12.2" clip-path="url(#terminal-4245639771-line-21)">
</text><text class="terminal-4245639771-r7" x="73.2" y="556.8" textLength="85.4" clip-path="url(#terminal-4245639771-line-22)">&#160;Start&#160;</text><text class="terminal-4245639771-r8" x="256.2" y="556.8" textLength="134.2" clip-path="url(#terminal-4245639771-line-22)">00:00:00.00</text><text class="terminal-4245639771-r9" x="488" y="556.8" textLength="85.4" clip-path="url(#terminal-4245639771-line-22)">&#160;Reset&#160;</text><text class="terminal-4245639771-r1" x="658.8" y="556.8" textLength="12.2" clip-path="url(#terminal-4245639771-line-22)">
</text><text class="terminal-4245639771-r10" x="24.4" y="581.2" textLength="195.2" clip-path="url(#terminal-4245639771-line-23)">▁▁▁▁▁▁▁▁▁▁▁▁▁▁▁▁</text><text class="terminal-4245639771-r11" x="439.2" y="581.2" textLength="195.2" clip-path="url(#terminal-4245639771-line-23)">▁▁▁▁▁▁▁▁▁▁▁▁▁▁▁▁</text><text class="terminal-4245639771-r1" x="658.8" y="581.2" textLength="12.2" clip-path="url(#terminal-4245639771-line-23)">
</text><text class="terminal-4245639771-r1" x="658.8" y="605.6" textLength="12.2" clip-path="url(#terminal-4245639771-line-24)">
</text><text class="terminal-4245639771-r1" x="658.8" y="630" textLength="12.2" clip-path="url(#terminal-4245639771-line-25)">
</text><text class="terminal-4245639771-r1" x="658.8" y="654.4" textLength="12.2" clip-path="url(#terminal-4245639771-line-26)">
</text><text class="terminal-4245639771-r1" x="658.8" y="678.8" textLength="12.2" clip-path="url(#terminal-4245639771-line-27)">
</text><text class="terminal-4245639771-r1" x="658.8" y="703.2" textLength="12.2" clip-path="url(#terminal-4245639771-line-28)">
</text><text class="terminal-4245639771-r16" x="0" y="727.6" textLength="36.6" clip-path="url(#terminal-4245639771-line-29)">&#160;D&#160;</text><text class="terminal-4245639771-r17" x="36.6" y="727.6" textLength="219.6" clip-path="url(#terminal-4245639771-line-29)">&#160;Toggle&#160;dark&#160;mode&#160;</text><text class="terminal-4245639771-r16" x="256.2" y="727.6" textLength="36.6" clip-path="url(#terminal-4245639771-line-29)">&#160;A&#160;</text><text class="terminal-4245639771-r17" x="292.8" y="727.6" textLength="61" clip-path="url(#terminal-4245639771-line-29)">&#160;Add&#160;</text><text class="terminal-4245639771-r16" x="353.8" y="727.6" textLength="36.6" clip-path="url(#terminal-4245639771-line-29)">&#160;R&#160;</text><text class="terminal-4245639771-r17" x="390.4" y="727.6" textLength="97.6" clip-path="url(#terminal-4245639771-line-29)">&#160;Remove&#160;</text>
    </g>
    </g>
</svg>
