<svg class="rich-terminal" viewBox="0 0 1312 708.8" xmlns="http://www.w3.org/2000/svg">
    <!-- Generated with Rich https://www.textualize.io -->
    <style>

    @font-face {
        font-family: "Fira Code";
        src: local("FiraCode-Regular"),
                url("https://cdnjs.cloudflare.com/ajax/libs/firacode/6.2.0/woff2/FiraCode-Regular.woff2") format("woff2"),
                url("https://cdnjs.cloudflare.com/ajax/libs/firacode/6.2.0/woff/FiraCode-Regular.woff") format("woff");
        font-style: normal;
        font-weight: 400;
    }
    @font-face {
        font-family: "Fira Code";
        src: local("FiraCode-Bold"),
                url("https://cdnjs.cloudflare.com/ajax/libs/firacode/6.2.0/woff2/FiraCode-Bold.woff2") format("woff2"),
                url("https://cdnjs.cloudflare.com/ajax/libs/firacode/6.2.0/woff/FiraCode-Bold.woff") format("woff");
        font-style: bold;
        font-weight: 700;
    }

    .terminal-301799740-matrix {
        font-family: Fira Code, monospace;
        font-size: 20px;
        line-height: 24.4px;
        font-variant-east-asian: full-width;
    }

    .terminal-301799740-title {
        font-size: 18px;
        font-weight: bold;
        font-family: arial;
    }

    .terminal-301799740-r1 { fill: #454a50 }
.terminal-301799740-r2 { fill: #e1e1e1 }
.terminal-301799740-r3 { fill: #c5c8c6 }
.terminal-301799740-r4 { fill: #e2e3e3;font-weight: bold }
.terminal-301799740-r5 { fill: #000000 }
.terminal-301799740-r6 { fill: #fea62b }
.terminal-301799740-r7 { fill: #e2e3e3 }
.terminal-301799740-r8 { fill: #14191f }
.terminal-301799740-r9 { fill: #34393f }
.terminal-301799740-r10 { fill: #00050f;font-weight: bold }
    </style>

    <defs>
    <clipPath id="terminal-301799740-clip-terminal">
      <rect x="0" y="0" width="1292.1999999999998" height="657.8" />
    </clipPath>
    <clipPath id="terminal-301799740-line-0">
    <rect x="0" y="1.5" width="1293.2" height="24.65"/>
            </clipPath>
<clipPath id="terminal-301799740-line-1">
    <rect x="0" y="25.9" width="1293.2" height="24.65"/>
            </clipPath>
<clipPath id="terminal-301799740-line-2">
    <rect x="0" y="50.3" width="1293.2" height="24.65"/>
            </clipPath>
<clipPath id="terminal-301799740-line-3">
    <rect x="0" y="74.7" width="1293.2" height="24.65"/>
            </clipPath>
<clipPath id="terminal-301799740-line-4">
    <rect x="0" y="99.1" width="1293.2" height="24.65"/>
            </clipPath>
<clipPath id="terminal-301799740-line-5">
    <rect x="0" y="123.5" width="1293.2" height="24.65"/>
            </clipPath>
<clipPath id="terminal-301799740-line-6">
    <rect x="0" y="147.9" width="1293.2" height="24.65"/>
            </clipPath>
<clipPath id="terminal-301799740-line-7">
    <rect x="0" y="172.3" width="1293.2" height="24.65"/>
            </clipPath>
<clipPath id="terminal-301799740-line-8">
    <rect x="0" y="196.7" width="1293.2" height="24.65"/>
            </clipPath>
<clipPath id="terminal-301799740-line-9">
    <rect x="0" y="221.1" width="1293.2" height="24.65"/>
            </clipPath>
<clipPath id="terminal-301799740-line-10">
    <rect x="0" y="245.5" width="1293.2" height="24.65"/>
            </clipPath>
<clipPath id="terminal-301799740-line-11">
    <rect x="0" y="269.9" width="1293.2" height="24.65"/>
            </clipPath>
<clipPath id="terminal-301799740-line-12">
    <rect x="0" y="294.3" width="1293.2" height="24.65"/>
            </clipPath>
<clipPath id="terminal-301799740-line-13">
    <rect x="0" y="318.7" width="1293.2" height="24.65"/>
            </clipPath>
<clipPath id="terminal-301799740-line-14">
    <rect x="0" y="343.1" width="1293.2" height="24.65"/>
            </clipPath>
<clipPath id="terminal-301799740-line-15">
    <rect x="0" y="367.5" width="1293.2" height="24.65"/>
            </clipPath>
<clipPath id="terminal-301799740-line-16">
    <rect x="0" y="391.9" width="1293.2" height="24.65"/>
            </clipPath>
<clipPath id="terminal-301799740-line-17">
    <rect x="0" y="416.3" width="1293.2" height="24.65"/>
            </clipPath>
<clipPath id="terminal-301799740-line-18">
    <rect x="0" y="440.7" width="1293.2" height="24.65"/>
            </clipPath>
<clipPath id="terminal-301799740-line-19">
    <rect x="0" y="465.1" width="1293.2" height="24.65"/>
            </clipPath>
<clipPath id="terminal-301799740-line-20">
    <rect x="0" y="489.5" width="1293.2" height="24.65"/>
            </clipPath>
<clipPath id="terminal-301799740-line-21">
    <rect x="0" y="513.9" width="1293.2" height="24.65"/>
            </clipPath>
<clipPath id="terminal-301799740-line-22">
    <rect x="0" y="538.3" width="1293.2" height="24.65"/>
            </clipPath>
<clipPath id="terminal-301799740-line-23">
    <rect x="0" y="562.7" width="1293.2" height="24.65"/>
            </clipPath>
<clipPath id="terminal-301799740-line-24">
    <rect x="0" y="587.1" width="1293.2" height="24.65"/>
            </clipPath>
<clipPath id="terminal-301799740-line-25">
    <rect x="0" y="611.5" width="1293.2" height="24.65"/>
            </clipPath>
    </defs>

    <rect fill="#292929" stroke="rgba(255,255,255,0.35)" stroke-width="1" x="1" y="1" width="1310" height="706.8" rx="8"/><text class="terminal-301799740-title" fill="#c5c8c6" text-anchor="middle" x="655" y="27">BorderApp</text>
            <g transform="translate(26,22)">
            <circle cx="0" cy="0" r="7" fill="#ff5f57"/>
            <circle cx="22" cy="0" r="7" fill="#febc2e"/>
            <circle cx="44" cy="0" r="7" fill="#28c840"/>
            </g>

    <g transform="translate(9, 41)" clip-path="url(#terminal-301799740-clip-terminal)">
    <rect fill="#24292f" x="0" y="1.5" width="268.4" height="24.65" shape-rendering="crispEdges"/><rect fill="#23568b" x="268.4" y="1.5" width="24.4" height="24.65" shape-rendering="crispEdges"/><rect fill="#1e1e1e" x="292.8" y="1.5" width="1000.4" height="24.65" shape-rendering="crispEdges"/><rect fill="#24292f" x="0" y="25.9" width="85.4" height="24.65" shape-rendering="crispEdges"/><rect fill="#24292f" x="85.4" y="25.9" width="12.2" height="24.65" shape-rendering="crispEdges"/><rect fill="#24292f" x="97.6" y="25.9" width="61" height="24.65" shape-rendering="crispEdges"/><rect fill="#24292f" x="158.6" y="25.9" width="12.2" height="24.65" shape-rendering="crispEdges"/><rect fill="#24292f" x="170.8" y="25.9" width="97.6" height="24.65" shape-rendering="crispEdges"/><rect fill="#23568b" x="268.4" y="25.9" width="24.4" height="24.65" shape-rendering="crispEdges"/><rect fill="#1e1e1e" x="292.8" y="25.9" width="1000.4" height="24.65" shape-rendering="crispEdges"/><rect fill="#24292f" x="0" y="50.3" width="268.4" height="24.65" shape-rendering="crispEdges"/><rect fill="#23568b" x="268.4" y="50.3" width="24.4" height="24.65" shape-rendering="crispEdges"/><rect fill="#1e1e1e" x="292.8" y="50.3" width="1000.4" height="24.65" shape-rendering="crispEdges"/><rect fill="#24292f" x="0" y="74.7" width="268.4" height="24.65" shape-rendering="crispEdges"/><rect fill="#23568b" x="268.4" y="74.7" width="24.4" height="24.65" shape-rendering="crispEdges"/><rect fill="#1e1e1e" x="292.8" y="74.7" width="1000.4" height="24.65" shape-rendering="crispEdges"/><rect fill="#24292f" x="0" y="99.1" width="97.6" height="24.65" shape-rendering="crispEdges"/><rect fill="#24292f" x="97.6" y="99.1" width="12.2" height="24.65" shape-rendering="crispEdges"/><rect fill="#24292f" x="109.8" y="99.1" width="48.8" height="24.65" shape-rendering="crispEdges"/><rect fill="#24292f" x="158.6" y="99.1" width="12.2" height="24.65" shape-rendering="crispEdges"/><rect fill="#24292f" x="170.8" y="99.1" width="97.6" height="24.65" shape-rendering="crispEdges"/><rect fill="#23568b" x="268.4" y="99.1" width="24.4" height="24.65" shape-rendering="crispEdges"/><rect fill="#1e1e1e" x="292.8" y="99.1" width="1000.4" height="24.65" shape-rendering="crispEdges"/><rect fill="#24292f" x="0" y="123.5" width="268.4" height="24.65" shape-rendering="crispEdges"/><rect fill="#23568b" x="268.4" y="123.5" width="24.4" height="24.65" shape-rendering="crispEdges"/><rect fill="#1e1e1e" x="292.8" y="123.5" width="1000.4" height="24.65" shape-rendering="crispEdges"/><rect fill="#24292f" x="0" y="147.9" width="268.4" height="24.65" shape-rendering="crispEdges"/><rect fill="#23568b" x="268.4" y="147.9" width="24.4" height="24.65" shape-rendering="crispEdges"/><rect fill="#1e1e1e" x="292.8" y="147.9" width="48.8" height="24.65" shape-rendering="crispEdges"/><rect fill="#24292f" x="341.6" y="147.9" width="12.2" height="24.65" shape-rendering="crispEdges"/><rect fill="#24292f" x="353.8" y="147.9" width="390.4" height="24.65" shape-rendering="crispEdges"/><rect fill="#24292f" x="744.2" y="147.9" width="12.2" height="24.65" shape-rendering="crispEdges"/><rect fill="#24292f" x="756.4" y="147.9" width="73.2" height="24.65" shape-rendering="crispEdges"/><rect fill="#24292f" x="829.6" y="147.9" width="12.2" height="24.65" shape-rendering="crispEdges"/><rect fill="#24292f" x="841.8" y="147.9" width="390.4" height="24.65" shape-rendering="crispEdges"/><rect fill="#24292f" x="1232.2" y="147.9" width="12.2" height="24.65" shape-rendering="crispEdges"/><rect fill="#1e1e1e" x="1244.4" y="147.9" width="48.8" height="24.65" shape-rendering="crispEdges"/><rect fill="#24292f" x="0" y="172.3" width="85.4" height="24.65" shape-rendering="crispEdges"/><rect fill="#24292f" x="85.4" y="172.3" width="12.2" height="24.65" shape-rendering="crispEdges"/><rect fill="#24292f" x="97.6" y="172.3" width="73.2" height="24.65" shape-rendering="crispEdges"/><rect fill="#24292f" x="170.8" y="172.3" width="12.2" height="24.65" shape-rendering="crispEdges"/><rect fill="#24292f" x="183" y="172.3" width="85.4" height="24.65" shape-rendering="crispEdges"/><rect fill="#23568b" x="268.4" y="172.3" width="24.4" height="24.65" shape-rendering="crispEdges"/><rect fill="#1e1e1e" x="292.8" y="172.3" width="48.8" height="24.65" shape-rendering="crispEdges"/><rect fill="#24292f" x="341.6" y="172.3" width="12.2" height="24.65" shape-rendering="crispEdges"/><rect fill="#24292f" x="353.8" y="172.3" width="878.4" height="24.65" shape-rendering="crispEdges"/><rect fill="#24292f" x="1232.2" y="172.3" width="12.2" height="24.65" shape-rendering="crispEdges"/><rect fill="#1e1e1e" x="1244.4" y="172.3" width="48.8" height="24.65" shape-rendering="crispEdges"/><rect fill="#24292f" x="0" y="196.7" width="268.4" height="24.65" shape-rendering="crispEdges"/><rect fill="#23568b" x="268.4" y="196.7" width="24.4" height="24.65" shape-rendering="crispEdges"/><rect fill="#1e1e1e" x="292.8" y="196.7" width="48.8" height="24.65" shape-rendering="crispEdges"/><rect fill="#24292f" x="341.6" y="196.7" width="12.2" height="24.65" shape-rendering="crispEdges"/><rect fill="#24292f" x="353.8" y="196.7" width="878.4" height="24.65" shape-rendering="crispEdges"/><rect fill="#24292f" x="1232.2" y="196.7" width="12.2" height="24.65" shape-rendering="crispEdges"/><rect fill="#1e1e1e" x="1244.4" y="196.7" width="48.8" height="24.65" shape-rendering="crispEdges"/><rect fill="#24292f" x="0" y="221.1" width="268.4" height="24.65" shape-rendering="crispEdges"/><rect fill="#23568b" x="268.4" y="221.1" width="24.4" height="24.65" shape-rendering="crispEdges"/><rect fill="#1e1e1e" x="292.8" y="221.1" width="48.8" height="24.65" shape-rendering="crispEdges"/><rect fill="#24292f" x="341.6" y="221.1" width="12.2" height="24.65" shape-rendering="crispEdges"/><rect fill="#24292f" x="353.8" y="221.1" width="48.8" height="24.65" shape-rendering="crispEdges"/><rect fill="#24292f" x="402.6" y="221.1" width="195.2" height="24.65" shape-rendering="crispEdges"/><rect fill="#24292f" x="597.8" y="221.1" width="585.6" height="24.65" shape-rendering="crispEdges"/><rect fill="#24292f" x="1183.4" y="221.1" width="48.8" height="24.65" shape-rendering="crispEdges"/><rect fill="#24292f" x="1232.2" y="221.1" width="12.2" height="24.65" shape-rendering="crispEdges"/><rect fill="#1e1e1e" x="1244.4" y="221.1" width="48.8" height="24.65" shape-rendering="crispEdges"/><rect fill="#24292f" x="0" y="245.5" width="85.4" height="24.65" shape-rendering="crispEdges"/><rect fill="#24292f" x="85.4" y="245.5" width="12.2" height="24.65" shape-rendering="crispEdges"/><rect fill="#24292f" x="97.6" y="245.5" width="61" height="24.65" shape-rendering="crispEdges"/><rect fill="#24292f" x="158.6" y="245.5" width="12.2" height="24.65" shape-rendering="crispEdges"/><rect fill="#24292f" x="170.8" y="245.5" width="97.6" height="24.65" shape-rendering="crispEdges"/><rect fill="#23568b" x="268.4" y="245.5" width="24.4" height="24.65" shape-rendering="crispEdges"/><rect fill="#1e1e1e" x="292.8" y="245.5" width="48.8" height="24.65" shape-rendering="crispEdges"/><rect fill="#24292f" x="341.6" y="245.5" width="12.2" height="24.65" shape-rendering="crispEdges"/><rect fill="#24292f" x="353.8" y="245.5" width="48.8" height="24.65" shape-rendering="crispEdges"/><rect fill="#24292f" x="402.6" y="245.5" width="292.8" height="24.65" shape-rendering="crispEdges"/><rect fill="#24292f" x="695.4" y="245.5" width="488" height="24.65" shape-rendering="crispEdges"/><rect fill="#24292f" x="1183.4" y="245.5" width="48.8" height="24.65" shape-rendering="crispEdges"/><rect fill="#24292f" x="1232.2" y="245.5" width="12.2" height="24.65" shape-rendering="crispEdges"/><rect fill="#1e1e1e" x="1244.4" y="245.5" width="48.8" height="24.65" shape-rendering="crispEdges"/><rect fill="#24292f" x="0" y="269.9" width="268.4" height="24.65" shape-rendering="crispEdges"/><rect fill="#23568b" x="268.4" y="269.9" width="24.4" height="24.65" shape-rendering="crispEdges"/><rect fill="#1e1e1e" x="292.8" y="269.9" width="48.8" height="24.65" shape-rendering="crispEdges"/><rect fill="#24292f" x="341.6" y="269.9" width="12.2" height="24.65" shape-rendering="crispEdges"/><rect fill="#24292f" x="353.8" y="269.9" width="48.8" height="24.65" shape-rendering="crispEdges"/><rect fill="#24292f" x="402.6" y="269.9" width="683.2" height="24.65" shape-rendering="crispEdges"/><rect fill="#24292f" x="1085.8" y="269.9" width="97.6" height="24.65" shape-rendering="crispEdges"/><rect fill="#24292f" x="1183.4" y="269.9" width="48.8" height="24.65" shape-rendering="crispEdges"/><rect fill="#24292f" x="1232.2" y="269.9" width="12.2" height="24.65" shape-rendering="crispEdges"/><rect fill="#1e1e1e" x="1244.4" y="269.9" width="48.8" height="24.65" shape-rendering="crispEdges"/><rect fill="#24292f" x="0" y="294.3" width="268.4" height="24.65" shape-rendering="crispEdges"/><rect fill="#23568b" x="268.4" y="294.3" width="24.4" height="24.65" shape-rendering="crispEdges"/><rect fill="#1e1e1e" x="292.8" y="294.3" width="48.8" height="24.65" shape-rendering="crispEdges"/><rect fill="#24292f" x="341.6" y="294.3" width="12.2" height="24.65" shape-rendering="crispEdges"/><rect fill="#24292f" x="353.8" y="294.3" width="48.8" height="24.65" shape-rendering="crispEdges"/><rect fill="#24292f" x="402.6" y="294.3" width="244" height="24.65" shape-rendering="crispEdges"/><rect fill="#24292f" x="646.6" y="294.3" width="536.8" height="24.65" shape-rendering="crispEdges"/><rect fill="#24292f" x="1183.4" y="294.3" width="48.8" height="24.65" shape-rendering="crispEdges"/><rect fill="#24292f" x="1232.2" y="294.3" width="12.2" height="24.65" shape-rendering="crispEdges"/><rect fill="#1e1e1e" x="1244.4" y="294.3" width="48.8" height="24.65" shape-rendering="crispEdges"/><rect fill="#24292f" x="0" y="318.7" width="85.4" height="24.65" shape-rendering="crispEdges"/><rect fill="#24292f" x="85.4" y="318.7" width="12.2" height="24.65" shape-rendering="crispEdges"/><rect fill="#24292f" x="97.6" y="318.7" width="61" height="24.65" shape-rendering="crispEdges"/><rect fill="#24292f" x="158.6" y="318.7" width="12.2" height="24.65" shape-rendering="crispEdges"/><rect fill="#24292f" x="170.8" y="318.7" width="97.6" height="24.65" shape-rendering="crispEdges"/><rect fill="#23568b" x="268.4" y="318.7" width="24.4" height="24.65" shape-rendering="crispEdges"/><rect fill="#1e1e1e" x="292.8" y="318.7" width="48.8" height="24.65" shape-rendering="crispEdges"/><rect fill="#24292f" x="341.6" y="318.7" width="12.2" height="24.65" shape-rendering="crispEdges"/><rect fill="#24292f" x="353.8" y="318.7" width="48.8" height="24.65" shape-rendering="crispEdges"/><rect fill="#24292f" x="402.6" y="318.7" width="585.6" height="24.65" shape-rendering="crispEdges"/><rect fill="#24292f" x="988.2" y="318.7" width="195.2" height="24.65" shape-rendering="crispEdges"/><rect fill="#24292f" x="1183.4" y="318.7" width="48.8" height="24.65" shape-rendering="crispEdges"/><rect fill="#24292f" x="1232.2" y="318.7" width="12.2" height="24.65" shape-rendering="crispEdges"/><rect fill="#1e1e1e" x="1244.4" y="318.7" width="48.8" height="24.65" shape-rendering="crispEdges"/><rect fill="#24292f" x="0" y="343.1" width="268.4" height="24.65" shape-rendering="crispEdges"/><rect fill="#23568b" x="268.4" y="343.1" width="24.4" height="24.65" shape-rendering="crispEdges"/><rect fill="#1e1e1e" x="292.8" y="343.1" width="48.8" height="24.65" shape-rendering="crispEdges"/><rect fill="#24292f" x="341.6" y="343.1" width="12.2" height="24.65" shape-rendering="crispEdges"/><rect fill="#24292f" x="353.8" y="343.1" width="48.8" height="24.65" shape-rendering="crispEdges"/><rect fill="#24292f" x="402.6" y="343.1" width="780.8" height="24.65" shape-rendering="crispEdges"/><rect fill="#24292f" x="1183.4" y="343.1" width="48.8" height="24.65" shape-rendering="crispEdges"/><rect fill="#24292f" x="1232.2" y="343.1" width="12.2" height="24.65" shape-rendering="crispEdges"/><rect fill="#1e1e1e" x="1244.4" y="343.1" width="48.8" height="24.65" shape-rendering="crispEdges"/><rect fill="#24292f" x="0" y="367.5" width="268.4" height="24.65" shape-rendering="crispEdges"/><rect fill="#23568b" x="268.4" y="367.5" width="24.4" height="24.65" shape-rendering="crispEdges"/><rect fill="#1e1e1e" x="292.8" y="367.5" width="48.8" height="24.65" shape-rendering="crispEdges"/><rect fill="#24292f" x="341.6" y="367.5" width="12.2" height="24.65" shape-rendering="crispEdges"/><rect fill="#24292f" x="353.8" y="367.5" width="48.8" height="24.65" shape-rendering="crispEdges"/><rect fill="#24292f" x="402.6" y="367.5" width="61" height="24.65" shape-rendering="crispEdges"/><rect fill="#24292f" x="463.6" y="367.5" width="719.8" height="24.65" shape-rendering="crispEdges"/><rect fill="#24292f" x="1183.4" y="367.5" width="48.8" height="24.65" shape-rendering="crispEdges"/><rect fill="#24292f" x="1232.2" y="367.5" width="12.2" height="24.65" shape-rendering="crispEdges"/><rect fill="#1e1e1e" x="1244.4" y="367.5" width="48.8" height="24.65" shape-rendering="crispEdges"/><rect fill="#24292f" x="0" y="391.9" width="85.4" height="24.65" shape-rendering="crispEdges"/><rect fill="#24292f" x="85.4" y="391.9" width="12.2" height="24.65" shape-rendering="crispEdges"/><rect fill="#24292f" x="97.6" y="391.9" width="61" height="24.65" shape-rendering="crispEdges"/><rect fill="#24292f" x="158.6" y="391.9" width="12.2" height="24.65" shape-rendering="crispEdges"/><rect fill="#24292f" x="170.8" y="391.9" width="97.6" height="24.65" shape-rendering="crispEdges"/><rect fill="#23568b" x="268.4" y="391.9" width="24.4" height="24.65" shape-rendering="crispEdges"/><rect fill="#1e1e1e" x="292.8" y="391.9" width="48.8" height="24.65" shape-rendering="crispEdges"/><rect fill="#24292f" x="341.6" y="391.9" width="12.2" height="24.65" shape-rendering="crispEdges"/><rect fill="#24292f" x="353.8" y="391.9" width="48.8" height="24.65" shape-rendering="crispEdges"/><rect fill="#24292f" x="402.6" y="391.9" width="719.8" height="24.65" shape-rendering="crispEdges"/><rect fill="#24292f" x="1122.4" y="391.9" width="61" height="24.65" shape-rendering="crispEdges"/><rect fill="#24292f" x="1183.4" y="391.9" width="48.8" height="24.65" shape-rendering="crispEdges"/><rect fill="#24292f" x="1232.2" y="391.9" width="12.2" height="24.65" shape-rendering="crispEdges"/><rect fill="#1e1e1e" x="1244.4" y="391.9" width="48.8" height="24.65" shape-rendering="crispEdges"/><rect fill="#24292f" x="0" y="416.3" width="268.4" height="24.65" shape-rendering="crispEdges"/><rect fill="#14191f" x="268.4" y="416.3" width="24.4" height="24.65" shape-rendering="crispEdges"/><rect fill="#1e1e1e" x="292.8" y="416.3" width="48.8" height="24.65" shape-rendering="crispEdges"/><rect fill="#24292f" x="341.6" y="416.3" width="12.2" height="24.65" shape-rendering="crispEdges"/><rect fill="#24292f" x="353.8" y="416.3" width="48.8" height="24.65" shape-rendering="crispEdges"/><rect fill="#24292f" x="402.6" y="416.3" width="85.4" height="24.65" shape-rendering="crispEdges"/><rect fill="#24292f" x="488" y="416.3" width="695.4" height="24.65" shape-rendering="crispEdges"/><rect fill="#24292f" x="1183.4" y="416.3" width="48.8" height="24.65" shape-rendering="crispEdges"/><rect fill="#24292f" x="1232.2" y="416.3" width="12.2" height="24.65" shape-rendering="crispEdges"/><rect fill="#1e1e1e" x="1244.4" y="416.3" width="48.8" height="24.65" shape-rendering="crispEdges"/><rect fill="#00050f" x="0" y="440.7" width="268.4" height="24.65" shape-rendering="crispEdges"/><rect fill="#14191f" x="268.4" y="440.7" width="24.4" height="24.65" shape-rendering="crispEdges"/><rect fill="#1e1e1e" x="292.8" y="440.7" width="48.8" height="24.65" shape-rendering="crispEdges"/><rect fill="#24292f" x="341.6" y="440.7" width="12.2" height="24.65" shape-rendering="crispEdges"/><rect fill="#24292f" x="353.8" y="440.7" width="878.4" height="24.65" shape-rendering="crispEdges"/><rect fill="#24292f" x="1232.2" y="440.7" width="12.2" height="24.65" shape-rendering="crispEdges"/><rect fill="#1e1e1e" x="1244.4" y="440.7" width="48.8" height="24.65" shape-rendering="crispEdges"/><rect fill="#00050f" x="0" y="465.1" width="85.4" height="24.65" shape-rendering="crispEdges"/><rect fill="#dddedf" x="85.4" y="465.1" width="12.2" height="24.65" shape-rendering="crispEdges"/><rect fill="#dddedf" x="97.6" y="465.1" width="73.2" height="24.65" shape-rendering="crispEdges"/><rect fill="#dddedf" x="170.8" y="465.1" width="12.2" height="24.65" shape-rendering="crispEdges"/><rect fill="#00050f" x="183" y="465.1" width="85.4" height="24.65" shape-rendering="crispEdges"/><rect fill="#14191f" x="268.4" y="465.1" width="24.4" height="24.65" shape-rendering="crispEdges"/><rect fill="#1e1e1e" x="292.8" y="465.1" width="48.8" height="24.65" shape-rendering="crispEdges"/><rect fill="#24292f" x="341.6" y="465.1" width="12.2" height="24.65" shape-rendering="crispEdges"/><rect fill="#24292f" x="353.8" y="465.1" width="878.4" height="24.65" shape-rendering="crispEdges"/><rect fill="#24292f" x="1232.2" y="465.1" width="12.2" height="24.65" shape-rendering="crispEdges"/><rect fill="#1e1e1e" x="1244.4" y="465.1" width="48.8" height="24.65" shape-rendering="crispEdges"/><rect fill="#00050f" x="0" y="489.5" width="268.4" height="24.65" shape-rendering="crispEdges"/><rect fill="#14191f" x="268.4" y="489.5" width="24.4" height="24.65" shape-rendering="crispEdges"/><rect fill="#1e1e1e" x="292.8" y="489.5" width="48.8" height="24.65" shape-rendering="crispEdges"/><rect fill="#24292f" x="341.6" y="489.5" width="12.2" height="24.65" shape-rendering="crispEdges"/><rect fill="#24292f" x="353.8" y="489.5" width="878.4" height="24.65" shape-rendering="crispEdges"/><rect fill="#24292f" x="1232.2" y="489.5" width="12.2" height="24.65" shape-rendering="crispEdges"/><rect fill="#1e1e1e" x="1244.4" y="489.5" width="48.8" height="24.65" shape-rendering="crispEdges"/><rect fill="#24292f" x="0" y="513.9" width="268.4" height="24.65" shape-rendering="crispEdges"/><rect fill="#14191f" x="268.4" y="513.9" width="24.4" height="24.65" shape-rendering="crispEdges"/><rect fill="#1e1e1e" x="292.8" y="513.9" width="1000.4" height="24.65" shape-rendering="crispEdges"/><rect fill="#24292f" x="0" y="538.3" width="85.4" height="24.65" shape-rendering="crispEdges"/><rect fill="#24292f" x="85.4" y="538.3" width="12.2" height="24.65" shape-rendering="crispEdges"/><rect fill="#24292f" x="97.6" y="538.3" width="73.2" height="24.65" shape-rendering="crispEdges"/><rect fill="#24292f" x="170.8" y="538.3" width="12.2" height="24.65" shape-rendering="crispEdges"/><rect fill="#24292f" x="183" y="538.3" width="85.4" height="24.65" shape-rendering="crispEdges"/><rect fill="#14191f" x="268.4" y="538.3" width="24.4" height="24.65" shape-rendering="crispEdges"/><rect fill="#1e1e1e" x="292.8" y="538.3" width="1000.4" height="24.65" shape-rendering="crispEdges"/><rect fill="#24292f" x="0" y="562.7" width="268.4" height="24.65" shape-rendering="crispEdges"/><rect fill="#14191f" x="268.4" y="562.7" width="24.4" height="24.65" shape-rendering="crispEdges"/><rect fill="#1e1e1e" x="292.8" y="562.7" width="1000.4" height="24.65" shape-rendering="crispEdges"/><rect fill="#24292f" x="0" y="587.1" width="268.4" height="24.65" shape-rendering="crispEdges"/><rect fill="#14191f" x="268.4" y="587.1" width="24.4" height="24.65" shape-rendering="crispEdges"/><rect fill="#1e1e1e" x="292.8" y="587.1" width="1000.4" height="24.65" shape-rendering="crispEdges"/><rect fill="#24292f" x="0" y="611.5" width="85.4" height="24.65" shape-rendering="crispEdges"/><rect fill="#24292f" x="85.4" y="611.5" width="12.2" height="24.65" shape-rendering="crispEdges"/><rect fill="#24292f" x="97.6" y="611.5" width="61" height="24.65" shape-rendering="crispEdges"/><rect fill="#24292f" x="158.6" y="611.5" width="12.2" height="24.65" shape-rendering="crispEdges"/><rect fill="#24292f" x="170.8" y="611.5" width="97.6" height="24.65" shape-rendering="crispEdges"/><rect fill="#14191f" x="268.4" y="611.5" width="24.4" height="24.65" shape-rendering="crispEdges"/><rect fill="#1e1e1e" x="292.8" y="611.5" width="1000.4" height="24.65" shape-rendering="crispEdges"/><rect fill="#24292f" x="0" y="635.9" width="268.4" height="24.65" shape-rendering="crispEdges"/><rect fill="#14191f" x="268.4" y="635.9" width="24.4" height="24.65" shape-rendering="crispEdges"/><rect fill="#1e1e1e" x="292.8" y="635.9" width="1000.4" height="24.65" shape-rendering="crispEdges"/>
    <g class="terminal-301799740-matrix">
    <text class="terminal-301799740-r1" x="0" y="20" textLength="268.4" clip-path="url(#terminal-301799740-line-0)">▔▔▔▔▔▔▔▔▔▔▔▔▔▔▔▔▔▔▔▔▔▔</text><text class="terminal-301799740-r3" x="1293.2" y="20" textLength="12.2" clip-path="url(#terminal-301799740-line-0)">
</text><text class="terminal-301799740-r4" x="97.6" y="44.4" textLength="61" clip-path="url(#terminal-301799740-line-1)">ascii</text><text class="terminal-301799740-r3" x="1293.2" y="44.4" textLength="12.2" clip-path="url(#terminal-301799740-line-1)">
</text><text class="terminal-301799740-r5" x="0" y="68.8" textLength="268.4" clip-path="url(#terminal-301799740-line-2)">▁▁▁▁▁▁▁▁▁▁▁▁▁▁▁▁▁▁▁▁▁▁</text><text class="terminal-301799740-r3" x="1293.2" y="68.8" textLength="12.2" clip-path="url(#terminal-301799740-line-2)">
</text><text class="terminal-301799740-r1" x="0" y="93.2" textLength="268.4" clip-path="url(#terminal-301799740-line-3)">▔▔▔▔▔▔▔▔▔▔▔▔▔▔▔▔▔▔▔▔▔▔</text><text class="terminal-301799740-r3" x="1293.2" y="93.2" textLength="12.2" clip-path="url(#terminal-301799740-line-3)">
</text><text class="terminal-301799740-r4" x="109.8" y="117.6" textLength="48.8" clip-path="url(#terminal-301799740-line-4)">none</text><text class="terminal-301799740-r3" x="1293.2" y="117.6" textLength="12.2" clip-path="url(#terminal-301799740-line-4)">
</text><text class="terminal-301799740-r5" x="0" y="142" textLength="268.4" clip-path="url(#terminal-301799740-line-5)">▁▁▁▁▁▁▁▁▁▁▁▁▁▁▁▁▁▁▁▁▁▁</text><text class="terminal-301799740-r3" x="1293.2" y="142" textLength="12.2" clip-path="url(#terminal-301799740-line-5)">
</text><text class="terminal-301799740-r1" x="0" y="166.4" textLength="268.4" clip-path="url(#terminal-301799740-line-6)">▔▔▔▔▔▔▔▔▔▔▔▔▔▔▔▔▔▔▔▔▔▔</text><text class="terminal-301799740-r6" x="341.6" y="166.4" textLength="12.2" clip-path="url(#terminal-301799740-line-6)">╔</text><text class="terminal-301799740-r6" x="353.8" y="166.4" textLength="390.4" clip-path="url(#terminal-301799740-line-6)">════════════════════════════════</text><text class="terminal-301799740-r6" x="756.4" y="166.4" textLength="73.2" clip-path="url(#terminal-301799740-line-6)">double</text><text class="terminal-301799740-r6" x="841.8" y="166.4" textLength="390.4" clip-path="url(#terminal-301799740-line-6)">════════════════════════════════</text><text class="terminal-301799740-r6" x="1232.2" y="166.4" textLength="12.2" clip-path="url(#terminal-301799740-line-6)">╗</text><text class="terminal-301799740-r3" x="1293.2" y="166.4" textLength="12.2" clip-path="url(#terminal-301799740-line-6)">
</text><text class="terminal-301799740-r4" x="97.6" y="190.8" textLength="73.2" clip-path="url(#terminal-301799740-line-7)">hidden</text><text class="terminal-301799740-r6" x="341.6" y="190.8" textLength="12.2" clip-path="url(#terminal-301799740-line-7)">║</text><text class="terminal-301799740-r6" x="1232.2" y="190.8" textLength="12.2" clip-path="url(#terminal-301799740-line-7)">║</text><text class="terminal-301799740-r3" x="1293.2" y="190.8" textLength="12.2" clip-path="url(#terminal-301799740-line-7)">
</text><text class="terminal-301799740-r5" x="0" y="215.2" textLength="268.4" clip-path="url(#terminal-301799740-line-8)">▁▁▁▁▁▁▁▁▁▁▁▁▁▁▁▁▁▁▁▁▁▁</text><text class="terminal-301799740-r6" x="341.6" y="215.2" textLength="12.2" clip-path="url(#terminal-301799740-line-8)">║</text><text class="terminal-301799740-r6" x="1232.2" y="215.2" textLength="12.2" clip-path="url(#terminal-301799740-line-8)">║</text><text class="terminal-301799740-r3" x="1293.2" y="215.2" textLength="12.2" clip-path="url(#terminal-301799740-line-8)">
</text><text class="terminal-301799740-r1" x="0" y="239.6" textLength="268.4" clip-path="url(#terminal-301799740-line-9)">▔▔▔▔▔▔▔▔▔▔▔▔▔▔▔▔▔▔▔▔▔▔</text><text class="terminal-301799740-r6" x="341.6" y="239.6" textLength="12.2" clip-path="url(#terminal-301799740-line-9)">║</text><text class="terminal-301799740-r7" x="402.6" y="239.6" textLength="195.2" clip-path="url(#terminal-301799740-line-9)">I&#160;must&#160;not&#160;fear.</text><text class="terminal-301799740-r6" x="1232.2" y="239.6" textLength="12.2" clip-path="url(#terminal-301799740-line-9)">║</text><text class="terminal-301799740-r3" x="1293.2" y="239.6" textLength="12.2" clip-path="url(#terminal-301799740-line-9)">
</text><text class="terminal-301799740-r4" x="97.6" y="264" textLength="61" clip-path="url(#terminal-301799740-line-10)">blank</text><text class="terminal-301799740-r6" x="341.6" y="264" textLength="12.2" clip-path="url(#terminal-301799740-line-10)">║</text><text class="terminal-301799740-r7" x="402.6" y="264" textLength="292.8" clip-path="url(#terminal-301799740-line-10)">Fear&#160;is&#160;the&#160;mind-killer.</text><text class="terminal-301799740-r6" x="1232.2" y="264" textLength="12.2" clip-path="url(#terminal-301799740-line-10)">║</text><text class="terminal-301799740-r3" x="1293.2" y="264" textLength="12.2" clip-path="url(#terminal-301799740-line-10)">
</text><text class="terminal-301799740-r5" x="0" y="288.4" textLength="268.4" clip-path="url(#terminal-301799740-line-11)">▁▁▁▁▁▁▁▁▁▁▁▁▁▁▁▁▁▁▁▁▁▁</text><text class="terminal-301799740-r6" x="341.6" y="288.4" textLength="12.2" clip-path="url(#terminal-301799740-line-11)">║</text><text class="terminal-301799740-r7" x="402.6" y="288.4" textLength="683.2" clip-path="url(#terminal-301799740-line-11)">Fear&#160;is&#160;the&#160;little-death&#160;that&#160;brings&#160;total&#160;obliteration.</text><text class="terminal-301799740-r6" x="1232.2" y="288.4" textLength="12.2" clip-path="url(#terminal-301799740-line-11)">║</text><text class="terminal-301799740-r3" x="1293.2" y="288.4" textLength="12.2" clip-path="url(#terminal-301799740-line-11)">
</text><text class="terminal-301799740-r1" x="0" y="312.8" textLength="268.4" clip-path="url(#terminal-301799740-line-12)">▔▔▔▔▔▔▔▔▔▔▔▔▔▔▔▔▔▔▔▔▔▔</text><text class="terminal-301799740-r6" x="341.6" y="312.8" textLength="12.2" clip-path="url(#terminal-301799740-line-12)">║</text><text class="terminal-301799740-r7" x="402.6" y="312.8" textLength="244" clip-path="url(#terminal-301799740-line-12)">I&#160;will&#160;face&#160;my&#160;fear.</text><text class="terminal-301799740-r6" x="1232.2" y="312.8" textLength="12.2" clip-path="url(#terminal-301799740-line-12)">║</text><text class="terminal-301799740-r3" x="1293.2" y="312.8" textLength="12.2" clip-path="url(#terminal-301799740-line-12)">
</text><text class="terminal-301799740-r4" x="97.6" y="337.2" textLength="61" clip-path="url(#terminal-301799740-line-13)">round</text><text class="terminal-301799740-r6" x="341.6" y="337.2" textLength="12.2" clip-path="url(#terminal-301799740-line-13)">║</text><text class="terminal-301799740-r7" x="402.6" y="337.2" textLength="585.6" clip-path="url(#terminal-301799740-line-13)">I&#160;will&#160;permit&#160;it&#160;to&#160;pass&#160;over&#160;me&#160;and&#160;through&#160;me.</text><text class="terminal-301799740-r6" x="1232.2" y="337.2" textLength="12.2" clip-path="url(#terminal-301799740-line-13)">║</text><text class="terminal-301799740-r3" x="1293.2" y="337.2" textLength="12.2" clip-path="url(#terminal-301799740-line-13)">
</text><text class="terminal-301799740-r5" x="0" y="361.6" textLength="268.4" clip-path="url(#terminal-301799740-line-14)">▁▁▁▁▁▁▁▁▁▁▁▁▁▁▁▁▁▁▁▁▁▁</text><text class="terminal-301799740-r6" x="341.6" y="361.6" textLength="12.2" clip-path="url(#terminal-301799740-line-14)">║</text><text class="terminal-301799740-r7" x="402.6" y="361.6" textLength="780.8" clip-path="url(#terminal-301799740-line-14)">And&#160;when&#160;it&#160;has&#160;gone&#160;past,&#160;I&#160;will&#160;turn&#160;the&#160;inner&#160;eye&#160;to&#160;see&#160;its&#160;</text><text class="terminal-301799740-r6" x="1232.2" y="361.6" textLength="12.2" clip-path="url(#terminal-301799740-line-14)">║</text><text class="terminal-301799740-r3" x="1293.2" y="361.6" textLength="12.2" clip-path="url(#terminal-301799740-line-14)">
</text><text class="terminal-301799740-r1" x="0" y="386" textLength="268.4" clip-path="url(#terminal-301799740-line-15)">▔▔▔▔▔▔▔▔▔▔▔▔▔▔▔▔▔▔▔▔▔▔</text><text class="terminal-301799740-r6" x="341.6" y="386" textLength="12.2" clip-path="url(#terminal-301799740-line-15)">║</text><text class="terminal-301799740-r7" x="402.6" y="386" textLength="61" clip-path="url(#terminal-301799740-line-15)">path.</text><text class="terminal-301799740-r6" x="1232.2" y="386" textLength="12.2" clip-path="url(#terminal-301799740-line-15)">║</text><text class="terminal-301799740-r3" x="1293.2" y="386" textLength="12.2" clip-path="url(#terminal-301799740-line-15)">
</text><text class="terminal-301799740-r4" x="97.6" y="410.4" textLength="61" clip-path="url(#terminal-301799740-line-16)">solid</text><text class="terminal-301799740-r8" x="268.4" y="410.4" textLength="24.4" clip-path="url(#terminal-301799740-line-16)">▆▆</text><text class="terminal-301799740-r6" x="341.6" y="410.4" textLength="12.2" clip-path="url(#terminal-301799740-line-16)">║</text><text class="terminal-301799740-r7" x="402.6" y="410.4" textLength="719.8" clip-path="url(#terminal-301799740-line-16)">Where&#160;the&#160;fear&#160;has&#160;gone&#160;there&#160;will&#160;be&#160;nothing.&#160;Only&#160;I&#160;will&#160;</text><text class="terminal-301799740-r6" x="1232.2" y="410.4" textLength="12.2" clip-path="url(#terminal-301799740-line-16)">║</text><text class="terminal-301799740-r3" x="1293.2" y="410.4" textLength="12.2" clip-path="url(#terminal-301799740-line-16)">
</text><text class="terminal-301799740-r5" x="0" y="434.8" textLength="268.4" clip-path="url(#terminal-301799740-line-17)">▁▁▁▁▁▁▁▁▁▁▁▁▁▁▁▁▁▁▁▁▁▁</text><text class="terminal-301799740-r6" x="341.6" y="434.8" textLength="12.2" clip-path="url(#terminal-301799740-line-17)">║</text><text class="terminal-301799740-r7" x="402.6" y="434.8" textLength="85.4" clip-path="url(#terminal-301799740-line-17)">remain.</text><text class="terminal-301799740-r6" x="1232.2" y="434.8" textLength="12.2" clip-path="url(#terminal-301799740-line-17)">║</text><text class="terminal-301799740-r3" x="1293.2" y="434.8" textLength="12.2" clip-path="url(#terminal-301799740-line-17)">
</text><text class="terminal-301799740-r9" x="0" y="459.2" textLength="268.4" clip-path="url(#terminal-301799740-line-18)">▔▔▔▔▔▔▔▔▔▔▔▔▔▔▔▔▔▔▔▔▔▔</text><text class="terminal-301799740-r6" x="341.6" y="459.2" textLength="12.2" clip-path="url(#terminal-301799740-line-18)">║</text><text class="terminal-301799740-r6" x="1232.2" y="459.2" textLength="12.2" clip-path="url(#terminal-301799740-line-18)">║</text><text class="terminal-301799740-r3" x="1293.2" y="459.2" textLength="12.2" clip-path="url(#terminal-301799740-line-18)">
</text><text class="terminal-301799740-r10" x="97.6" y="483.6" textLength="73.2" clip-path="url(#terminal-301799740-line-19)">double</text><text class="terminal-301799740-r6" x="341.6" y="483.6" textLength="12.2" clip-path="url(#terminal-301799740-line-19)">║</text><text class="terminal-301799740-r6" x="1232.2" y="483.6" textLength="12.2" clip-path="url(#terminal-301799740-line-19)">║</text><text class="terminal-301799740-r3" x="1293.2" y="483.6" textLength="12.2" clip-path="url(#terminal-301799740-line-19)">
</text><text class="terminal-301799740-r5" x="0" y="508" textLength="268.4" clip-path="url(#terminal-301799740-line-20)">▁▁▁▁▁▁▁▁▁▁▁▁▁▁▁▁▁▁▁▁▁▁</text><text class="terminal-301799740-r6" x="341.6" y="508" textLength="12.2" clip-path="url(#terminal-301799740-line-20)">╚</text><text class="terminal-301799740-r6" x="353.8" y="508" textLength="878.4" clip-path="url(#terminal-301799740-line-20)">════════════════════════════════════════════════════════════════════════</text><text class="terminal-301799740-r6" x="1232.2" y="508" textLength="12.2" clip-path="url(#terminal-301799740-line-20)">╝</text><text class="terminal-301799740-r3" x="1293.2" y="508" textLength="12.2" clip-path="url(#terminal-301799740-line-20)">
</text><text class="terminal-301799740-r1" x="0" y="532.4" textLength="268.4" clip-path="url(#terminal-301799740-line-21)">▔▔▔▔▔▔▔▔▔▔▔▔▔▔▔▔▔▔▔▔▔▔</text><text class="terminal-301799740-r3" x="1293.2" y="532.4" textLength="12.2" clip-path="url(#terminal-301799740-line-21)">
</text><text class="terminal-301799740-r4" x="97.6" y="556.8" textLength="73.2" clip-path="url(#terminal-301799740-line-22)">dashed</text><text class="terminal-301799740-r3" x="1293.2" y="556.8" textLength="12.2" clip-path="url(#terminal-301799740-line-22)">
</text><text class="terminal-301799740-r5" x="0" y="581.2" textLength="268.4" clip-path="url(#terminal-301799740-line-23)">▁▁▁▁▁▁▁▁▁▁▁▁▁▁▁▁▁▁▁▁▁▁</text><text class="terminal-301799740-r3" x="1293.2" y="581.2" textLength="12.2" clip-path="url(#terminal-301799740-line-23)">
</text><text class="terminal-301799740-r1" x="0" y="605.6" textLength="268.4" clip-path="url(#terminal-301799740-line-24)">▔▔▔▔▔▔▔▔▔▔▔▔▔▔▔▔▔▔▔▔▔▔</text><text class="terminal-301799740-r3" x="1293.2" y="605.6" textLength="12.2" clip-path="url(#terminal-301799740-line-24)">
</text><text class="terminal-301799740-r4" x="97.6" y="630" textLength="61" clip-path="url(#terminal-301799740-line-25)">heavy</text><text class="terminal-301799740-r3" x="1293.2" y="630" textLength="12.2" clip-path="url(#terminal-301799740-line-25)">
</text><text class="terminal-301799740-r5" x="0" y="654.4" textLength="268.4" clip-path="url(#terminal-301799740-line-26)">▁▁▁▁▁▁▁▁▁▁▁▁▁▁▁▁▁▁▁▁▁▁</text>
    </g>
    </g>
</svg>
