<svg class="rich-terminal" viewBox="0 0 994 586.8" xmlns="http://www.w3.org/2000/svg">
    <!-- Generated with Rich https://www.textualize.io -->
    <style>

    @font-face {
        font-family: "Fira Code";
        src: local("FiraCode-Regular"),
                url("https://cdnjs.cloudflare.com/ajax/libs/firacode/6.2.0/woff2/FiraCode-Regular.woff2") format("woff2"),
                url("https://cdnjs.cloudflare.com/ajax/libs/firacode/6.2.0/woff/FiraCode-Regular.woff") format("woff");
        font-style: normal;
        font-weight: 400;
    }
    @font-face {
        font-family: "Fira Code";
        src: local("FiraCode-Bold"),
                url("https://cdnjs.cloudflare.com/ajax/libs/firacode/6.2.0/woff2/FiraCode-Bold.woff2") format("woff2"),
                url("https://cdnjs.cloudflare.com/ajax/libs/firacode/6.2.0/woff/FiraCode-Bold.woff") format("woff");
        font-style: bold;
        font-weight: 700;
    }

    .terminal-3568480132-matrix {
        font-family: Fira Code, monospace;
        font-size: 20px;
        line-height: 24.4px;
        font-variant-east-asian: full-width;
    }

    .terminal-3568480132-title {
        font-size: 18px;
        font-weight: bold;
        font-family: arial;
    }

    .terminal-3568480132-r1 { fill: #c5c8c6 }
.terminal-3568480132-r2 { fill: #e3e3e3 }
.terminal-3568480132-r3 { fill: #e1e1e1 }
.terminal-3568480132-r4 { fill: #0178d4 }
.terminal-3568480132-r5 { fill: #62666a }
.terminal-3568480132-r6 { fill: #4ebf71;font-weight: bold }
.terminal-3568480132-r7 { fill: #e4e5e6 }
.terminal-3568480132-r8 { fill: #34393f;font-weight: bold }
.terminal-3568480132-r9 { fill: #ddedf9;font-weight: bold }
.terminal-3568480132-r10 { fill: #ddedf9 }
    </style>

    <defs>
    <clipPath id="terminal-3568480132-clip-terminal">
      <rect x="0" y="0" width="975.0" height="535.8" />
    </clipPath>
    <clipPath id="terminal-3568480132-line-0">
    <rect x="0" y="1.5" width="976" height="24.65"/>
            </clipPath>
<clipPath id="terminal-3568480132-line-1">
    <rect x="0" y="25.9" width="976" height="24.65"/>
            </clipPath>
<clipPath id="terminal-3568480132-line-2">
    <rect x="0" y="50.3" width="976" height="24.65"/>
            </clipPath>
<clipPath id="terminal-3568480132-line-3">
    <rect x="0" y="74.7" width="976" height="24.65"/>
            </clipPath>
<clipPath id="terminal-3568480132-line-4">
    <rect x="0" y="99.1" width="976" height="24.65"/>
            </clipPath>
<clipPath id="terminal-3568480132-line-5">
    <rect x="0" y="123.5" width="976" height="24.65"/>
            </clipPath>
<clipPath id="terminal-3568480132-line-6">
    <rect x="0" y="147.9" width="976" height="24.65"/>
            </clipPath>
<clipPath id="terminal-3568480132-line-7">
    <rect x="0" y="172.3" width="976" height="24.65"/>
            </clipPath>
<clipPath id="terminal-3568480132-line-8">
    <rect x="0" y="196.7" width="976" height="24.65"/>
            </clipPath>
<clipPath id="terminal-3568480132-line-9">
    <rect x="0" y="221.1" width="976" height="24.65"/>
            </clipPath>
<clipPath id="terminal-3568480132-line-10">
    <rect x="0" y="245.5" width="976" height="24.65"/>
            </clipPath>
<clipPath id="terminal-3568480132-line-11">
    <rect x="0" y="269.9" width="976" height="24.65"/>
            </clipPath>
<clipPath id="terminal-3568480132-line-12">
    <rect x="0" y="294.3" width="976" height="24.65"/>
            </clipPath>
<clipPath id="terminal-3568480132-line-13">
    <rect x="0" y="318.7" width="976" height="24.65"/>
            </clipPath>
<clipPath id="terminal-3568480132-line-14">
    <rect x="0" y="343.1" width="976" height="24.65"/>
            </clipPath>
<clipPath id="terminal-3568480132-line-15">
    <rect x="0" y="367.5" width="976" height="24.65"/>
            </clipPath>
<clipPath id="terminal-3568480132-line-16">
    <rect x="0" y="391.9" width="976" height="24.65"/>
            </clipPath>
<clipPath id="terminal-3568480132-line-17">
    <rect x="0" y="416.3" width="976" height="24.65"/>
            </clipPath>
<clipPath id="terminal-3568480132-line-18">
    <rect x="0" y="440.7" width="976" height="24.65"/>
            </clipPath>
<clipPath id="terminal-3568480132-line-19">
    <rect x="0" y="465.1" width="976" height="24.65"/>
            </clipPath>
<clipPath id="terminal-3568480132-line-20">
    <rect x="0" y="489.5" width="976" height="24.65"/>
            </clipPath>
    </defs>

    <rect fill="#292929" stroke="rgba(255,255,255,0.35)" stroke-width="1" x="1" y="1" width="992" height="584.8" rx="8"/><text class="terminal-3568480132-title" fill="#c5c8c6" text-anchor="middle" x="496" y="27">SelectionListApp</text>
            <g transform="translate(26,22)">
            <circle cx="0" cy="0" r="7" fill="#ff5f57"/>
            <circle cx="22" cy="0" r="7" fill="#febc2e"/>
            <circle cx="44" cy="0" r="7" fill="#28c840"/>
            </g>

    <g transform="translate(9, 41)" clip-path="url(#terminal-3568480132-clip-terminal)">
    <rect fill="#282828" x="0" y="1.5" width="12.2" height="24.65" shape-rendering="crispEdges"/><rect fill="#282828" x="12.2" y="1.5" width="12.2" height="24.65" shape-rendering="crispEdges"/><rect fill="#282828" x="24.4" y="1.5" width="61" height="24.65" shape-rendering="crispEdges"/><rect fill="#282828" x="85.4" y="1.5" width="12.2" height="24.65" shape-rendering="crispEdges"/><rect fill="#282828" x="97.6" y="1.5" width="280.6" height="24.65" shape-rendering="crispEdges"/><rect fill="#282828" x="378.2" y="1.5" width="195.2" height="24.65" shape-rendering="crispEdges"/><rect fill="#282828" x="573.4" y="1.5" width="280.6" height="24.65" shape-rendering="crispEdges"/><rect fill="#282828" x="854" y="1.5" width="12.2" height="24.65" shape-rendering="crispEdges"/><rect fill="#282828" x="866.2" y="1.5" width="0" height="24.65" shape-rendering="crispEdges"/><rect fill="#282828" x="866.2" y="1.5" width="97.6" height="24.65" shape-rendering="crispEdges"/><rect fill="#282828" x="963.8" y="1.5" width="12.2" height="24.65" shape-rendering="crispEdges"/><rect fill="#1e1e1e" x="0" y="25.9" width="976" height="24.65" shape-rendering="crispEdges"/><rect fill="#1e1e1e" x="0" y="50.3" width="976" height="24.65" shape-rendering="crispEdges"/><rect fill="#1e1e1e" x="0" y="74.7" width="97.6" height="24.65" shape-rendering="crispEdges"/><rect fill="#34393f" x="97.6" y="74.7" width="12.2" height="24.65" shape-rendering="crispEdges"/><rect fill="#34393f" x="109.8" y="74.7" width="12.2" height="24.65" shape-rendering="crispEdges"/><rect fill="#34393f" x="122" y="74.7" width="329.4" height="24.65" shape-rendering="crispEdges"/><rect fill="#34393f" x="451.4" y="74.7" width="414.8" height="24.65" shape-rendering="crispEdges"/><rect fill="#34393f" x="866.2" y="74.7" width="12.2" height="24.65" shape-rendering="crispEdges"/><rect fill="#1e1e1e" x="878.4" y="74.7" width="97.6" height="24.65" shape-rendering="crispEdges"/><rect fill="#1e1e1e" x="0" y="99.1" width="97.6" height="24.65" shape-rendering="crispEdges"/><rect fill="#34393f" x="97.6" y="99.1" width="12.2" height="24.65" shape-rendering="crispEdges"/><rect fill="#34393f" x="109.8" y="99.1" width="756.4" height="24.65" shape-rendering="crispEdges"/><rect fill="#34393f" x="866.2" y="99.1" width="12.2" height="24.65" shape-rendering="crispEdges"/><rect fill="#1e1e1e" x="878.4" y="99.1" width="97.6" height="24.65" shape-rendering="crispEdges"/><rect fill="#1e1e1e" x="0" y="123.5" width="97.6" height="24.65" shape-rendering="crispEdges"/><rect fill="#34393f" x="97.6" y="123.5" width="12.2" height="24.65" shape-rendering="crispEdges"/><rect fill="#34393f" x="109.8" y="123.5" width="12.2" height="24.65" shape-rendering="crispEdges"/><rect fill="#34393f" x="122" y="123.5" width="12.2" height="24.65" shape-rendering="crispEdges"/><rect fill="#62666a" x="134.2" y="123.5" width="12.2" height="24.65" shape-rendering="crispEdges"/><rect fill="#34393f" x="146.4" y="123.5" width="12.2" height="24.65" shape-rendering="crispEdges"/><rect fill="#34393f" x="158.6" y="123.5" width="12.2" height="24.65" shape-rendering="crispEdges"/><rect fill="#34393f" x="170.8" y="123.5" width="158.6" height="24.65" shape-rendering="crispEdges"/><rect fill="#34393f" x="329.4" y="123.5" width="524.6" height="24.65" shape-rendering="crispEdges"/><rect fill="#34393f" x="854" y="123.5" width="12.2" height="24.65" shape-rendering="crispEdges"/><rect fill="#34393f" x="866.2" y="123.5" width="12.2" height="24.65" shape-rendering="crispEdges"/><rect fill="#1e1e1e" x="878.4" y="123.5" width="97.6" height="24.65" shape-rendering="crispEdges"/><rect fill="#1e1e1e" x="0" y="147.9" width="97.6" height="24.65" shape-rendering="crispEdges"/><rect fill="#34393f" x="97.6" y="147.9" width="12.2" height="24.65" shape-rendering="crispEdges"/><rect fill="#34393f" x="109.8" y="147.9" width="12.2" height="24.65" shape-rendering="crispEdges"/><rect fill="#34393f" x="122" y="147.9" width="12.2" height="24.65" shape-rendering="crispEdges"/><rect fill="#62666a" x="134.2" y="147.9" width="12.2" height="24.65" shape-rendering="crispEdges"/><rect fill="#34393f" x="146.4" y="147.9" width="12.2" height="24.65" shape-rendering="crispEdges"/><rect fill="#34393f" x="158.6" y="147.9" width="12.2" height="24.65" shape-rendering="crispEdges"/><rect fill="#34393f" x="170.8" y="147.9" width="122" height="24.65" shape-rendering="crispEdges"/><rect fill="#34393f" x="292.8" y="147.9" width="561.2" height="24.65" shape-rendering="crispEdges"/><rect fill="#34393f" x="854" y="147.9" width="12.2" height="24.65" shape-rendering="crispEdges"/><rect fill="#34393f" x="866.2" y="147.9" width="12.2" height="24.65" shape-rendering="crispEdges"/><rect fill="#1e1e1e" x="878.4" y="147.9" width="97.6" height="24.65" shape-rendering="crispEdges"/><rect fill="#1e1e1e" x="0" y="172.3" width="97.6" height="24.65" shape-rendering="crispEdges"/><rect fill="#34393f" x="97.6" y="172.3" width="12.2" height="24.65" shape-rendering="crispEdges"/><rect fill="#34393f" x="109.8" y="172.3" width="12.2" height="24.65" shape-rendering="crispEdges"/><rect fill="#34393f" x="122" y="172.3" width="12.2" height="24.65" shape-rendering="crispEdges"/><rect fill="#62666a" x="134.2" y="172.3" width="12.2" height="24.65" shape-rendering="crispEdges"/><rect fill="#34393f" x="146.4" y="172.3" width="12.2" height="24.65" shape-rendering="crispEdges"/><rect fill="#34393f" x="158.6" y="172.3" width="12.2" height="24.65" shape-rendering="crispEdges"/><rect fill="#34393f" x="170.8" y="172.3" width="109.8" height="24.65" shape-rendering="crispEdges"/><rect fill="#34393f" x="280.6" y="172.3" width="573.4" height="24.65" shape-rendering="crispEdges"/><rect fill="#34393f" x="854" y="172.3" width="12.2" height="24.65" shape-rendering="crispEdges"/><rect fill="#34393f" x="866.2" y="172.3" width="12.2" height="24.65" shape-rendering="crispEdges"/><rect fill="#1e1e1e" x="878.4" y="172.3" width="97.6" height="24.65" shape-rendering="crispEdges"/><rect fill="#1e1e1e" x="0" y="196.7" width="97.6" height="24.65" shape-rendering="crispEdges"/><rect fill="#34393f" x="97.6" y="196.7" width="12.2" height="24.65" shape-rendering="crispEdges"/><rect fill="#34393f" x="109.8" y="196.7" width="12.2" height="24.65" shape-rendering="crispEdges"/><rect fill="#0178d4" x="122" y="196.7" width="12.2" height="24.65" shape-rendering="crispEdges"/><rect fill="#62666a" x="134.2" y="196.7" width="12.2" height="24.65" shape-rendering="crispEdges"/><rect fill="#0178d4" x="146.4" y="196.7" width="12.2" height="24.65" shape-rendering="crispEdges"/><rect fill="#0178d4" x="158.6" y="196.7" width="12.2" height="24.65" shape-rendering="crispEdges"/><rect fill="#0178d4" x="170.8" y="196.7" width="73.2" height="24.65" shape-rendering="crispEdges"/><rect fill="#0178d4" x="244" y="196.7" width="610" height="24.65" shape-rendering="crispEdges"/><rect fill="#34393f" x="854" y="196.7" width="12.2" height="24.65" shape-rendering="crispEdges"/><rect fill="#34393f" x="866.2" y="196.7" width="12.2" height="24.65" shape-rendering="crispEdges"/><rect fill="#1e1e1e" x="878.4" y="196.7" width="97.6" height="24.65" shape-rendering="crispEdges"/><rect fill="#1e1e1e" x="0" y="221.1" width="97.6" height="24.65" shape-rendering="crispEdges"/><rect fill="#34393f" x="97.6" y="221.1" width="12.2" height="24.65" shape-rendering="crispEdges"/><rect fill="#34393f" x="109.8" y="221.1" width="12.2" height="24.65" shape-rendering="crispEdges"/><rect fill="#34393f" x="122" y="221.1" width="12.2" height="24.65" shape-rendering="crispEdges"/><rect fill="#62666a" x="134.2" y="221.1" width="12.2" height="24.65" shape-rendering="crispEdges"/><rect fill="#34393f" x="146.4" y="221.1" width="12.2" height="24.65" shape-rendering="crispEdges"/><rect fill="#34393f" x="158.6" y="221.1" width="12.2" height="24.65" shape-rendering="crispEdges"/><rect fill="#34393f" x="170.8" y="221.1" width="73.2" height="24.65" shape-rendering="crispEdges"/><rect fill="#34393f" x="244" y="221.1" width="610" height="24.65" shape-rendering="crispEdges"/><rect fill="#34393f" x="854" y="221.1" width="12.2" height="24.65" shape-rendering="crispEdges"/><rect fill="#34393f" x="866.2" y="221.1" width="12.2" height="24.65" shape-rendering="crispEdges"/><rect fill="#1e1e1e" x="878.4" y="221.1" width="97.6" height="24.65" shape-rendering="crispEdges"/><rect fill="#1e1e1e" x="0" y="245.5" width="97.6" height="24.65" shape-rendering="crispEdges"/><rect fill="#34393f" x="97.6" y="245.5" width="12.2" height="24.65" shape-rendering="crispEdges"/><rect fill="#34393f" x="109.8" y="245.5" width="12.2" height="24.65" shape-rendering="crispEdges"/><rect fill="#34393f" x="122" y="245.5" width="12.2" height="24.65" shape-rendering="crispEdges"/><rect fill="#62666a" x="134.2" y="245.5" width="12.2" height="24.65" shape-rendering="crispEdges"/><rect fill="#34393f" x="146.4" y="245.5" width="12.2" height="24.65" shape-rendering="crispEdges"/><rect fill="#34393f" x="158.6" y="245.5" width="12.2" height="24.65" shape-rendering="crispEdges"/><rect fill="#34393f" x="170.8" y="245.5" width="97.6" height="24.65" shape-rendering="crispEdges"/><rect fill="#34393f" x="268.4" y="245.5" width="585.6" height="24.65" shape-rendering="crispEdges"/><rect fill="#34393f" x="854" y="245.5" width="12.2" height="24.65" shape-rendering="crispEdges"/><rect fill="#34393f" x="866.2" y="245.5" width="12.2" height="24.65" shape-rendering="crispEdges"/><rect fill="#1e1e1e" x="878.4" y="245.5" width="97.6" height="24.65" shape-rendering="crispEdges"/><rect fill="#1e1e1e" x="0" y="269.9" width="97.6" height="24.65" shape-rendering="crispEdges"/><rect fill="#34393f" x="97.6" y="269.9" width="12.2" height="24.65" shape-rendering="crispEdges"/><rect fill="#34393f" x="109.8" y="269.9" width="12.2" height="24.65" shape-rendering="crispEdges"/><rect fill="#34393f" x="122" y="269.9" width="12.2" height="24.65" shape-rendering="crispEdges"/><rect fill="#62666a" x="134.2" y="269.9" width="12.2" height="24.65" shape-rendering="crispEdges"/><rect fill="#34393f" x="146.4" y="269.9" width="12.2" height="24.65" shape-rendering="crispEdges"/><rect fill="#34393f" x="158.6" y="269.9" width="12.2" height="24.65" shape-rendering="crispEdges"/><rect fill="#34393f" x="170.8" y="269.9" width="61" height="24.65" shape-rendering="crispEdges"/><rect fill="#34393f" x="231.8" y="269.9" width="622.2" height="24.65" shape-rendering="crispEdges"/><rect fill="#34393f" x="854" y="269.9" width="12.2" height="24.65" shape-rendering="crispEdges"/><rect fill="#34393f" x="866.2" y="269.9" width="12.2" height="24.65" shape-rendering="crispEdges"/><rect fill="#1e1e1e" x="878.4" y="269.9" width="97.6" height="24.65" shape-rendering="crispEdges"/><rect fill="#1e1e1e" x="0" y="294.3" width="97.6" height="24.65" shape-rendering="crispEdges"/><rect fill="#34393f" x="97.6" y="294.3" width="12.2" height="24.65" shape-rendering="crispEdges"/><rect fill="#34393f" x="109.8" y="294.3" width="12.2" height="24.65" shape-rendering="crispEdges"/><rect fill="#34393f" x="122" y="294.3" width="12.2" height="24.65" shape-rendering="crispEdges"/><rect fill="#62666a" x="134.2" y="294.3" width="12.2" height="24.65" shape-rendering="crispEdges"/><rect fill="#34393f" x="146.4" y="294.3" width="12.2" height="24.65" shape-rendering="crispEdges"/><rect fill="#34393f" x="158.6" y="294.3" width="12.2" height="24.65" shape-rendering="crispEdges"/><rect fill="#34393f" x="170.8" y="294.3" width="61" height="24.65" shape-rendering="crispEdges"/><rect fill="#34393f" x="231.8" y="294.3" width="622.2" height="24.65" shape-rendering="crispEdges"/><rect fill="#34393f" x="854" y="294.3" width="12.2" height="24.65" shape-rendering="crispEdges"/><rect fill="#34393f" x="866.2" y="294.3" width="12.2" height="24.65" shape-rendering="crispEdges"/><rect fill="#1e1e1e" x="878.4" y="294.3" width="97.6" height="24.65" shape-rendering="crispEdges"/><rect fill="#1e1e1e" x="0" y="318.7" width="97.6" height="24.65" shape-rendering="crispEdges"/><rect fill="#34393f" x="97.6" y="318.7" width="12.2" height="24.65" shape-rendering="crispEdges"/><rect fill="#34393f" x="109.8" y="318.7" width="12.2" height="24.65" shape-rendering="crispEdges"/><rect fill="#34393f" x="122" y="318.7" width="12.2" height="24.65" shape-rendering="crispEdges"/><rect fill="#62666a" x="134.2" y="318.7" width="12.2" height="24.65" shape-rendering="crispEdges"/><rect fill="#34393f" x="146.4" y="318.7" width="12.2" height="24.65" shape-rendering="crispEdges"/><rect fill="#34393f" x="158.6" y="318.7" width="12.2" height="24.65" shape-rendering="crispEdges"/><rect fill="#34393f" x="170.8" y="318.7" width="170.8" height="24.65" shape-rendering="crispEdges"/><rect fill="#34393f" x="341.6" y="318.7" width="512.4" height="24.65" shape-rendering="crispEdges"/><rect fill="#34393f" x="854" y="318.7" width="12.2" height="24.65" shape-rendering="crispEdges"/><rect fill="#34393f" x="866.2" y="318.7" width="12.2" height="24.65" shape-rendering="crispEdges"/><rect fill="#1e1e1e" x="878.4" y="318.7" width="97.6" height="24.65" shape-rendering="crispEdges"/><rect fill="#1e1e1e" x="0" y="343.1" width="97.6" height="24.65" shape-rendering="crispEdges"/><rect fill="#34393f" x="97.6" y="343.1" width="12.2" height="24.65" shape-rendering="crispEdges"/><rect fill="#34393f" x="109.8" y="343.1" width="12.2" height="24.65" shape-rendering="crispEdges"/><rect fill="#34393f" x="122" y="343.1" width="732" height="24.65" shape-rendering="crispEdges"/><rect fill="#34393f" x="854" y="343.1" width="12.2" height="24.65" shape-rendering="crispEdges"/><rect fill="#34393f" x="866.2" y="343.1" width="12.2" height="24.65" shape-rendering="crispEdges"/><rect fill="#1e1e1e" x="878.4" y="343.1" width="97.6" height="24.65" shape-rendering="crispEdges"/><rect fill="#1e1e1e" x="0" y="367.5" width="97.6" height="24.65" shape-rendering="crispEdges"/><rect fill="#34393f" x="97.6" y="367.5" width="12.2" height="24.65" shape-rendering="crispEdges"/><rect fill="#34393f" x="109.8" y="367.5" width="12.2" height="24.65" shape-rendering="crispEdges"/><rect fill="#34393f" x="122" y="367.5" width="732" height="24.65" shape-rendering="crispEdges"/><rect fill="#34393f" x="854" y="367.5" width="12.2" height="24.65" shape-rendering="crispEdges"/><rect fill="#34393f" x="866.2" y="367.5" width="12.2" height="24.65" shape-rendering="crispEdges"/><rect fill="#1e1e1e" x="878.4" y="367.5" width="97.6" height="24.65" shape-rendering="crispEdges"/><rect fill="#1e1e1e" x="0" y="391.9" width="97.6" height="24.65" shape-rendering="crispEdges"/><rect fill="#34393f" x="97.6" y="391.9" width="12.2" height="24.65" shape-rendering="crispEdges"/><rect fill="#34393f" x="109.8" y="391.9" width="12.2" height="24.65" shape-rendering="crispEdges"/><rect fill="#34393f" x="122" y="391.9" width="732" height="24.65" shape-rendering="crispEdges"/><rect fill="#34393f" x="854" y="391.9" width="12.2" height="24.65" shape-rendering="crispEdges"/><rect fill="#34393f" x="866.2" y="391.9" width="12.2" height="24.65" shape-rendering="crispEdges"/><rect fill="#1e1e1e" x="878.4" y="391.9" width="97.6" height="24.65" shape-rendering="crispEdges"/><rect fill="#1e1e1e" x="0" y="416.3" width="97.6" height="24.65" shape-rendering="crispEdges"/><rect fill="#34393f" x="97.6" y="416.3" width="12.2" height="24.65" shape-rendering="crispEdges"/><rect fill="#34393f" x="109.8" y="416.3" width="756.4" height="24.65" shape-rendering="crispEdges"/><rect fill="#34393f" x="866.2" y="416.3" width="12.2" height="24.65" shape-rendering="crispEdges"/><rect fill="#1e1e1e" x="878.4" y="416.3" width="97.6" height="24.65" shape-rendering="crispEdges"/><rect fill="#1e1e1e" x="0" y="440.7" width="97.6" height="24.65" shape-rendering="crispEdges"/><rect fill="#34393f" x="97.6" y="440.7" width="12.2" height="24.65" shape-rendering="crispEdges"/><rect fill="#34393f" x="109.8" y="440.7" width="756.4" height="24.65" shape-rendering="crispEdges"/><rect fill="#34393f" x="866.2" y="440.7" width="12.2" height="24.65" shape-rendering="crispEdges"/><rect fill="#1e1e1e" x="878.4" y="440.7" width="97.6" height="24.65" shape-rendering="crispEdges"/><rect fill="#1e1e1e" x="0" y="465.1" width="976" height="24.65" shape-rendering="crispEdges"/><rect fill="#1e1e1e" x="0" y="489.5" width="976" height="24.65" shape-rendering="crispEdges"/><rect fill="#0178d4" x="0" y="513.9" width="976" height="24.65" shape-rendering="crispEdges"/>
    <g class="terminal-3568480132-matrix">
    <text class="terminal-3568480132-r2" x="12.2" y="20" textLength="12.2" clip-path="url(#terminal-3568480132-line-0)">⭘</text><text class="terminal-3568480132-r2" x="378.2" y="20" textLength="195.2" clip-path="url(#terminal-3568480132-line-0)">SelectionListApp</text><text class="terminal-3568480132-r1" x="976" y="20" textLength="12.2" clip-path="url(#terminal-3568480132-line-0)">
</text><text class="terminal-3568480132-r1" x="976" y="44.4" textLength="12.2" clip-path="url(#terminal-3568480132-line-1)">
</text><text class="terminal-3568480132-r1" x="976" y="68.8" textLength="12.2" clip-path="url(#terminal-3568480132-line-2)">
</text><text class="terminal-3568480132-r4" x="97.6" y="93.2" textLength="12.2" clip-path="url(#terminal-3568480132-line-3)">┌</text><text class="terminal-3568480132-r4" x="109.8" y="93.2" textLength="12.2" clip-path="url(#terminal-3568480132-line-3)">─</text><text class="terminal-3568480132-r4" x="122" y="93.2" textLength="329.4" clip-path="url(#terminal-3568480132-line-3)">&#160;Shall&#160;we&#160;play&#160;some&#160;games?&#160;</text><text class="terminal-3568480132-r4" x="451.4" y="93.2" textLength="414.8" clip-path="url(#terminal-3568480132-line-3)">──────────────────────────────────</text><text class="terminal-3568480132-r4" x="866.2" y="93.2" textLength="12.2" clip-path="url(#terminal-3568480132-line-3)">┐</text><text class="terminal-3568480132-r1" x="976" y="93.2" textLength="12.2" clip-path="url(#terminal-3568480132-line-3)">
</text><text class="terminal-3568480132-r4" x="97.6" y="117.6" textLength="12.2" clip-path="url(#terminal-3568480132-line-4)">│</text><text class="terminal-3568480132-r4" x="866.2" y="117.6" textLength="12.2" clip-path="url(#terminal-3568480132-line-4)">│</text><text class="terminal-3568480132-r1" x="976" y="117.6" textLength="12.2" clip-path="url(#terminal-3568480132-line-4)">
</text><text class="terminal-3568480132-r4" x="97.6" y="142" textLength="12.2" clip-path="url(#terminal-3568480132-line-5)">│</text><text class="terminal-3568480132-r5" x="122" y="142" textLength="12.2" clip-path="url(#terminal-3568480132-line-5)">▐</text><text class="terminal-3568480132-r6" x="134.2" y="142" textLength="12.2" clip-path="url(#terminal-3568480132-line-5)">X</text><text class="terminal-3568480132-r5" x="146.4" y="142" textLength="12.2" clip-path="url(#terminal-3568480132-line-5)">▌</text><text class="terminal-3568480132-r7" x="170.8" y="142" textLength="158.6" clip-path="url(#terminal-3568480132-line-5)">Falken&#x27;s&#160;Maze</text><text class="terminal-3568480132-r4" x="866.2" y="142" textLength="12.2" clip-path="url(#terminal-3568480132-line-5)">│</text><text class="terminal-3568480132-r1" x="976" y="142" textLength="12.2" clip-path="url(#terminal-3568480132-line-5)">
</text><text class="terminal-3568480132-r4" x="97.6" y="166.4" textLength="12.2" clip-path="url(#terminal-3568480132-line-6)">│</text><text class="terminal-3568480132-r5" x="122" y="166.4" textLength="12.2" clip-path="url(#terminal-3568480132-line-6)">▐</text><text class="terminal-3568480132-r8" x="134.2" y="166.4" textLength="12.2" clip-path="url(#terminal-3568480132-line-6)">X</text><text class="terminal-3568480132-r5" x="146.4" y="166.4" textLength="12.2" clip-path="url(#terminal-3568480132-line-6)">▌</text><text class="terminal-3568480132-r7" x="170.8" y="166.4" textLength="122" clip-path="url(#terminal-3568480132-line-6)">Black&#160;Jack</text><text class="terminal-3568480132-r4" x="866.2" y="166.4" textLength="12.2" clip-path="url(#terminal-3568480132-line-6)">│</text><text class="terminal-3568480132-r1" x="976" y="166.4" textLength="12.2" clip-path="url(#terminal-3568480132-line-6)">
</text><text class="terminal-3568480132-r4" x="97.6" y="190.8" textLength="12.2" clip-path="url(#terminal-3568480132-line-7)">│</text><text class="terminal-3568480132-r5" x="122" y="190.8" textLength="12.2" clip-path="url(#terminal-3568480132-line-7)">▐</text><text class="terminal-3568480132-r8" x="134.2" y="190.8" textLength="12.2" clip-path="url(#terminal-3568480132-line-7)">X</text><text class="terminal-3568480132-r5" x="146.4" y="190.8" textLength="12.2" clip-path="url(#terminal-3568480132-line-7)">▌</text><text class="terminal-3568480132-r7" x="170.8" y="190.8" textLength="109.8" clip-path="url(#terminal-3568480132-line-7)">Gin&#160;Rummy</text><text class="terminal-3568480132-r4" x="866.2" y="190.8" textLength="12.2" clip-path="url(#terminal-3568480132-line-7)">│</text><text class="terminal-3568480132-r1" x="976" y="190.8" textLength="12.2" clip-path="url(#terminal-3568480132-line-7)">
</text><text class="terminal-3568480132-r4" x="97.6" y="215.2" textLength="12.2" clip-path="url(#terminal-3568480132-line-8)">│</text><text class="terminal-3568480132-r5" x="122" y="215.2" textLength="12.2" clip-path="url(#terminal-3568480132-line-8)">▐</text><text class="terminal-3568480132-r8" x="134.2" y="215.2" textLength="12.2" clip-path="url(#terminal-3568480132-line-8)">X</text><text class="terminal-3568480132-r5" x="146.4" y="215.2" textLength="12.2" clip-path="url(#terminal-3568480132-line-8)">▌</text><text class="terminal-3568480132-r9" x="170.8" y="215.2" textLength="73.2" clip-path="url(#terminal-3568480132-line-8)">Hearts</text><text class="terminal-3568480132-r4" x="866.2" y="215.2" textLength="12.2" clip-path="url(#terminal-3568480132-line-8)">│</text><text class="terminal-3568480132-r1" x="976" y="215.2" textLength="12.2" clip-path="url(#terminal-3568480132-line-8)">
</text><text class="terminal-3568480132-r4" x="97.6" y="239.6" textLength="12.2" clip-path="url(#terminal-3568480132-line-9)">│</text><text class="terminal-3568480132-r5" x="122" y="239.6" textLength="12.2" clip-path="url(#terminal-3568480132-line-9)">▐</text><text class="terminal-3568480132-r8" x="134.2" y="239.6" textLength="12.2" clip-path="url(#terminal-3568480132-line-9)">X</text><text class="terminal-3568480132-r5" x="146.4" y="239.6" textLength="12.2" clip-path="url(#terminal-3568480132-line-9)">▌</text><text class="terminal-3568480132-r7" x="170.8" y="239.6" textLength="73.2" clip-path="url(#terminal-3568480132-line-9)">Bridge</text><text class="terminal-3568480132-r4" x="866.2" y="239.6" textLength="12.2" clip-path="url(#terminal-3568480132-line-9)">│</text><text class="terminal-3568480132-r1" x="976" y="239.6" textLength="12.2" clip-path="url(#terminal-3568480132-line-9)">
</text><text class="terminal-3568480132-r4" x="97.6" y="264" textLength="12.2" clip-path="url(#terminal-3568480132-line-10)">│</text><text class="terminal-3568480132-r5" x="122" y="264" textLength="12.2" clip-path="url(#terminal-3568480132-line-10)">▐</text><text class="terminal-3568480132-r8" x="134.2" y="264" textLength="12.2" clip-path="url(#terminal-3568480132-line-10)">X</text><text class="terminal-3568480132-r5" x="146.4" y="264" textLength="12.2" clip-path="url(#terminal-3568480132-line-10)">▌</text><text class="terminal-3568480132-r7" x="170.8" y="264" textLength="97.6" clip-path="url(#terminal-3568480132-line-10)">Checkers</text><text class="terminal-3568480132-r4" x="866.2" y="264" textLength="12.2" clip-path="url(#terminal-3568480132-line-10)">│</text><text class="terminal-3568480132-r1" x="976" y="264" textLength="12.2" clip-path="url(#terminal-3568480132-line-10)">
</text><text class="terminal-3568480132-r4" x="97.6" y="288.4" textLength="12.2" clip-path="url(#terminal-3568480132-line-11)">│</text><text class="terminal-3568480132-r5" x="122" y="288.4" textLength="12.2" clip-path="url(#terminal-3568480132-line-11)">▐</text><text class="terminal-3568480132-r6" x="134.2" y="288.4" textLength="12.2" clip-path="url(#terminal-3568480132-line-11)">X</text><text class="terminal-3568480132-r5" x="146.4" y="288.4" textLength="12.2" clip-path="url(#terminal-3568480132-line-11)">▌</text><text class="terminal-3568480132-r7" x="170.8" y="288.4" textLength="61" clip-path="url(#terminal-3568480132-line-11)">Chess</text><text class="terminal-3568480132-r4" x="866.2" y="288.4" textLength="12.2" clip-path="url(#terminal-3568480132-line-11)">│</text><text class="terminal-3568480132-r1" x="976" y="288.4" textLength="12.2" clip-path="url(#terminal-3568480132-line-11)">
</text><text class="terminal-3568480132-r4" x="97.6" y="312.8" textLength="12.2" clip-path="url(#terminal-3568480132-line-12)">│</text><text class="terminal-3568480132-r5" x="122" y="312.8" textLength="12.2" clip-path="url(#terminal-3568480132-line-12)">▐</text><text class="terminal-3568480132-r8" x="134.2" y="312.8" textLength="12.2" clip-path="url(#terminal-3568480132-line-12)">X</text><text class="terminal-3568480132-r5" x="146.4" y="312.8" textLength="12.2" clip-path="url(#terminal-3568480132-line-12)">▌</text><text class="terminal-3568480132-r7" x="170.8" y="312.8" textLength="61" clip-path="url(#terminal-3568480132-line-12)">Poker</text><text class="terminal-3568480132-r4" x="866.2" y="312.8" textLength="12.2" clip-path="url(#terminal-3568480132-line-12)">│</text><text class="terminal-3568480132-r1" x="976" y="312.8" textLength="12.2" clip-path="url(#terminal-3568480132-line-12)">
</text><text class="terminal-3568480132-r4" x="97.6" y="337.2" textLength="12.2" clip-path="url(#terminal-3568480132-line-13)">│</text><text class="terminal-3568480132-r5" x="122" y="337.2" textLength="12.2" clip-path="url(#terminal-3568480132-line-13)">▐</text><text class="terminal-3568480132-r6" x="134.2" y="337.2" textLength="12.2" clip-path="url(#terminal-3568480132-line-13)">X</text><text class="terminal-3568480132-r5" x="146.4" y="337.2" textLength="12.2" clip-path="url(#terminal-3568480132-line-13)">▌</text><text class="terminal-3568480132-r7" x="170.8" y="337.2" textLength="170.8" clip-path="url(#terminal-3568480132-line-13)">Fighter&#160;Combat</text><text class="terminal-3568480132-r4" x="866.2" y="337.2" textLength="12.2" clip-path="url(#terminal-3568480132-line-13)">│</text><text class="terminal-3568480132-r1" x="976" y="337.2" textLength="12.2" clip-path="url(#terminal-3568480132-line-13)">
</text><text class="terminal-3568480132-r4" x="97.6" y="361.6" textLength="12.2" clip-path="url(#terminal-3568480132-line-14)">│</text><text class="terminal-3568480132-r4" x="866.2" y="361.6" textLength="12.2" clip-path="url(#terminal-3568480132-line-14)">│</text><text class="terminal-3568480132-r1" x="976" y="361.6" textLength="12.2" clip-path="url(#terminal-3568480132-line-14)">
</text><text class="terminal-3568480132-r4" x="97.6" y="386" textLength="12.2" clip-path="url(#terminal-3568480132-line-15)">│</text><text class="terminal-3568480132-r4" x="866.2" y="386" textLength="12.2" clip-path="url(#terminal-3568480132-line-15)">│</text><text class="terminal-3568480132-r1" x="976" y="386" textLength="12.2" clip-path="url(#terminal-3568480132-line-15)">
</text><text class="terminal-3568480132-r4" x="97.6" y="410.4" textLength="12.2" clip-path="url(#terminal-3568480132-line-16)">│</text><text class="terminal-3568480132-r4" x="866.2" y="410.4" textLength="12.2" clip-path="url(#terminal-3568480132-line-16)">│</text><text class="terminal-3568480132-r1" x="976" y="410.4" textLength="12.2" clip-path="url(#terminal-3568480132-line-16)">
</text><text class="terminal-3568480132-r4" x="97.6" y="434.8" textLength="12.2" clip-path="url(#terminal-3568480132-line-17)">│</text><text class="terminal-3568480132-r4" x="866.2" y="434.8" textLength="12.2" clip-path="url(#terminal-3568480132-line-17)">│</text><text class="terminal-3568480132-r1" x="976" y="434.8" textLength="12.2" clip-path="url(#terminal-3568480132-line-17)">
</text><text class="terminal-3568480132-r4" x="97.6" y="459.2" textLength="12.2" clip-path="url(#terminal-3568480132-line-18)">└</text><text class="terminal-3568480132-r4" x="109.8" y="459.2" textLength="756.4" clip-path="url(#terminal-3568480132-line-18)">──────────────────────────────────────────────────────────────</text><text class="terminal-3568480132-r4" x="866.2" y="459.2" textLength="12.2" clip-path="url(#terminal-3568480132-line-18)">┘</text><text class="terminal-3568480132-r1" x="976" y="459.2" textLength="12.2" clip-path="url(#terminal-3568480132-line-18)">
</text><text class="terminal-3568480132-r1" x="976" y="483.6" textLength="12.2" clip-path="url(#terminal-3568480132-line-19)">
</text><text class="terminal-3568480132-r1" x="976" y="508" textLength="12.2" clip-path="url(#terminal-3568480132-line-20)">
</text>
    </g>
    </g>
</svg>
