<svg class="rich-terminal" viewBox="0 0 1129 586.8" xmlns="http://www.w3.org/2000/svg">
    <!-- Generated with Rich https://www.textualize.io -->
    <style>

    @font-face {
        font-family: "Fira Code";
        src: local("FiraCode-Regular"),
                url("https://cdnjs.cloudflare.com/ajax/libs/firacode/6.2.0/woff2/FiraCode-Regular.woff2") format("woff2"),
                url("https://cdnjs.cloudflare.com/ajax/libs/firacode/6.2.0/woff/FiraCode-Regular.woff") format("woff");
        font-style: normal;
        font-weight: 400;
    }
    @font-face {
        font-family: "Fira Code";
        src: local("FiraCode-Bold"),
                url("https://cdnjs.cloudflare.com/ajax/libs/firacode/6.2.0/woff2/FiraCode-Bold.woff2") format("woff2"),
                url("https://cdnjs.cloudflare.com/ajax/libs/firacode/6.2.0/woff/FiraCode-Bold.woff") format("woff");
        font-style: bold;
        font-weight: 700;
    }

    .terminal-2685039627-matrix {
        font-family: Fira Code, monospace;
        font-size: 20px;
        line-height: 24.4px;
        font-variant-east-asian: full-width;
    }

    .terminal-2685039627-title {
        font-size: 18px;
        font-weight: bold;
        font-family: arial;
    }

    .terminal-2685039627-r1 { fill: #e1e1e1 }
.terminal-2685039627-r2 { fill: #c5c8c6 }
.terminal-2685039627-r3 { fill: #4ebf71 }
.terminal-2685039627-r4 { fill: #18954b;font-weight: bold }
.terminal-2685039627-r5 { fill: #008139 }
.terminal-2685039627-r6 { fill: #e2e3e3 }
    </style>

    <defs>
    <clipPath id="terminal-2685039627-clip-terminal">
      <rect x="0" y="0" width="1109.2" height="535.8" />
    </clipPath>
    <clipPath id="terminal-2685039627-line-0">
    <rect x="0" y="1.5" width="1110.2" height="24.65"/>
            </clipPath>
<clipPath id="terminal-2685039627-line-1">
    <rect x="0" y="25.9" width="1110.2" height="24.65"/>
            </clipPath>
<clipPath id="terminal-2685039627-line-2">
    <rect x="0" y="50.3" width="1110.2" height="24.65"/>
            </clipPath>
<clipPath id="terminal-2685039627-line-3">
    <rect x="0" y="74.7" width="1110.2" height="24.65"/>
            </clipPath>
<clipPath id="terminal-2685039627-line-4">
    <rect x="0" y="99.1" width="1110.2" height="24.65"/>
            </clipPath>
<clipPath id="terminal-2685039627-line-5">
    <rect x="0" y="123.5" width="1110.2" height="24.65"/>
            </clipPath>
<clipPath id="terminal-2685039627-line-6">
    <rect x="0" y="147.9" width="1110.2" height="24.65"/>
            </clipPath>
<clipPath id="terminal-2685039627-line-7">
    <rect x="0" y="172.3" width="1110.2" height="24.65"/>
            </clipPath>
<clipPath id="terminal-2685039627-line-8">
    <rect x="0" y="196.7" width="1110.2" height="24.65"/>
            </clipPath>
<clipPath id="terminal-2685039627-line-9">
    <rect x="0" y="221.1" width="1110.2" height="24.65"/>
            </clipPath>
<clipPath id="terminal-2685039627-line-10">
    <rect x="0" y="245.5" width="1110.2" height="24.65"/>
            </clipPath>
<clipPath id="terminal-2685039627-line-11">
    <rect x="0" y="269.9" width="1110.2" height="24.65"/>
            </clipPath>
<clipPath id="terminal-2685039627-line-12">
    <rect x="0" y="294.3" width="1110.2" height="24.65"/>
            </clipPath>
<clipPath id="terminal-2685039627-line-13">
    <rect x="0" y="318.7" width="1110.2" height="24.65"/>
            </clipPath>
<clipPath id="terminal-2685039627-line-14">
    <rect x="0" y="343.1" width="1110.2" height="24.65"/>
            </clipPath>
<clipPath id="terminal-2685039627-line-15">
    <rect x="0" y="367.5" width="1110.2" height="24.65"/>
            </clipPath>
<clipPath id="terminal-2685039627-line-16">
    <rect x="0" y="391.9" width="1110.2" height="24.65"/>
            </clipPath>
<clipPath id="terminal-2685039627-line-17">
    <rect x="0" y="416.3" width="1110.2" height="24.65"/>
            </clipPath>
<clipPath id="terminal-2685039627-line-18">
    <rect x="0" y="440.7" width="1110.2" height="24.65"/>
            </clipPath>
<clipPath id="terminal-2685039627-line-19">
    <rect x="0" y="465.1" width="1110.2" height="24.65"/>
            </clipPath>
<clipPath id="terminal-2685039627-line-20">
    <rect x="0" y="489.5" width="1110.2" height="24.65"/>
            </clipPath>
    </defs>

    <rect fill="#292929" stroke="rgba(255,255,255,0.35)" stroke-width="1" x="1" y="1" width="1127" height="584.8" rx="8"/><text class="terminal-2685039627-title" fill="#c5c8c6" text-anchor="middle" x="563" y="27">TooltipApp</text>
            <g transform="translate(26,22)">
            <circle cx="0" cy="0" r="7" fill="#ff5f57"/>
            <circle cx="22" cy="0" r="7" fill="#febc2e"/>
            <circle cx="44" cy="0" r="7" fill="#28c840"/>
            </g>

    <g transform="translate(9, 41)" clip-path="url(#terminal-2685039627-clip-terminal)">
    <rect fill="#1e1e1e" x="0" y="1.5" width="1110.2" height="24.65" shape-rendering="crispEdges"/><rect fill="#1e1e1e" x="0" y="25.9" width="1110.2" height="24.65" shape-rendering="crispEdges"/><rect fill="#1e1e1e" x="0" y="50.3" width="1110.2" height="24.65" shape-rendering="crispEdges"/><rect fill="#1e1e1e" x="0" y="74.7" width="1110.2" height="24.65" shape-rendering="crispEdges"/><rect fill="#1e1e1e" x="0" y="99.1" width="1110.2" height="24.65" shape-rendering="crispEdges"/><rect fill="#1e1e1e" x="0" y="123.5" width="1110.2" height="24.65" shape-rendering="crispEdges"/><rect fill="#1e1e1e" x="0" y="147.9" width="1110.2" height="24.65" shape-rendering="crispEdges"/><rect fill="#1e1e1e" x="0" y="172.3" width="1110.2" height="24.65" shape-rendering="crispEdges"/><rect fill="#1e1e1e" x="0" y="196.7" width="1110.2" height="24.65" shape-rendering="crispEdges"/><rect fill="#1e1e1e" x="0" y="221.1" width="451.4" height="24.65" shape-rendering="crispEdges"/><rect fill="#18954b" x="451.4" y="221.1" width="195.2" height="24.65" shape-rendering="crispEdges"/><rect fill="#1e1e1e" x="646.6" y="221.1" width="463.6" height="24.65" shape-rendering="crispEdges"/><rect fill="#1e1e1e" x="0" y="245.5" width="451.4" height="24.65" shape-rendering="crispEdges"/><rect fill="#18954b" x="451.4" y="245.5" width="36.6" height="24.65" shape-rendering="crispEdges"/><rect fill="#e0f1e7" x="488" y="245.5" width="12.2" height="24.65" shape-rendering="crispEdges"/><rect fill="#e0f1e7" x="500.2" y="245.5" width="97.6" height="24.65" shape-rendering="crispEdges"/><rect fill="#e0f1e7" x="597.8" y="245.5" width="12.2" height="24.65" shape-rendering="crispEdges"/><rect fill="#18954b" x="610" y="245.5" width="36.6" height="24.65" shape-rendering="crispEdges"/><rect fill="#1e1e1e" x="646.6" y="245.5" width="463.6" height="24.65" shape-rendering="crispEdges"/><rect fill="#1e1e1e" x="0" y="269.9" width="451.4" height="24.65" shape-rendering="crispEdges"/><rect fill="#18954b" x="451.4" y="269.9" width="195.2" height="24.65" shape-rendering="crispEdges"/><rect fill="#1e1e1e" x="646.6" y="269.9" width="463.6" height="24.65" shape-rendering="crispEdges"/><rect fill="#1e1e1e" x="0" y="294.3" width="561.2" height="24.65" shape-rendering="crispEdges"/><rect fill="#24292f" x="561.2" y="294.3" width="488" height="24.65" shape-rendering="crispEdges"/><rect fill="#1e1e1e" x="1049.2" y="294.3" width="61" height="24.65" shape-rendering="crispEdges"/><rect fill="#1e1e1e" x="0" y="318.7" width="561.2" height="24.65" shape-rendering="crispEdges"/><rect fill="#24292f" x="561.2" y="318.7" width="24.4" height="24.65" shape-rendering="crispEdges"/><rect fill="#24292f" x="585.6" y="318.7" width="195.2" height="24.65" shape-rendering="crispEdges"/><rect fill="#24292f" x="780.8" y="318.7" width="244" height="24.65" shape-rendering="crispEdges"/><rect fill="#24292f" x="1024.8" y="318.7" width="24.4" height="24.65" shape-rendering="crispEdges"/><rect fill="#1e1e1e" x="1049.2" y="318.7" width="61" height="24.65" shape-rendering="crispEdges"/><rect fill="#1e1e1e" x="0" y="343.1" width="561.2" height="24.65" shape-rendering="crispEdges"/><rect fill="#24292f" x="561.2" y="343.1" width="24.4" height="24.65" shape-rendering="crispEdges"/><rect fill="#24292f" x="585.6" y="343.1" width="292.8" height="24.65" shape-rendering="crispEdges"/><rect fill="#24292f" x="878.4" y="343.1" width="146.4" height="24.65" shape-rendering="crispEdges"/><rect fill="#24292f" x="1024.8" y="343.1" width="24.4" height="24.65" shape-rendering="crispEdges"/><rect fill="#1e1e1e" x="1049.2" y="343.1" width="61" height="24.65" shape-rendering="crispEdges"/><rect fill="#1e1e1e" x="0" y="367.5" width="561.2" height="24.65" shape-rendering="crispEdges"/><rect fill="#24292f" x="561.2" y="367.5" width="24.4" height="24.65" shape-rendering="crispEdges"/><rect fill="#24292f" x="585.6" y="367.5" width="439.2" height="24.65" shape-rendering="crispEdges"/><rect fill="#24292f" x="1024.8" y="367.5" width="24.4" height="24.65" shape-rendering="crispEdges"/><rect fill="#1e1e1e" x="1049.2" y="367.5" width="61" height="24.65" shape-rendering="crispEdges"/><rect fill="#1e1e1e" x="0" y="391.9" width="561.2" height="24.65" shape-rendering="crispEdges"/><rect fill="#24292f" x="561.2" y="391.9" width="24.4" height="24.65" shape-rendering="crispEdges"/><rect fill="#24292f" x="585.6" y="391.9" width="231.8" height="24.65" shape-rendering="crispEdges"/><rect fill="#24292f" x="817.4" y="391.9" width="207.4" height="24.65" shape-rendering="crispEdges"/><rect fill="#24292f" x="1024.8" y="391.9" width="24.4" height="24.65" shape-rendering="crispEdges"/><rect fill="#1e1e1e" x="1049.2" y="391.9" width="61" height="24.65" shape-rendering="crispEdges"/><rect fill="#1e1e1e" x="0" y="416.3" width="561.2" height="24.65" shape-rendering="crispEdges"/><rect fill="#24292f" x="561.2" y="416.3" width="24.4" height="24.65" shape-rendering="crispEdges"/><rect fill="#24292f" x="585.6" y="416.3" width="244" height="24.65" shape-rendering="crispEdges"/><rect fill="#24292f" x="829.6" y="416.3" width="195.2" height="24.65" shape-rendering="crispEdges"/><rect fill="#24292f" x="1024.8" y="416.3" width="24.4" height="24.65" shape-rendering="crispEdges"/><rect fill="#1e1e1e" x="1049.2" y="416.3" width="61" height="24.65" shape-rendering="crispEdges"/><rect fill="#1e1e1e" x="0" y="440.7" width="561.2" height="24.65" shape-rendering="crispEdges"/><rect fill="#24292f" x="561.2" y="440.7" width="488" height="24.65" shape-rendering="crispEdges"/><rect fill="#1e1e1e" x="1049.2" y="440.7" width="61" height="24.65" shape-rendering="crispEdges"/><rect fill="#1e1e1e" x="0" y="465.1" width="1110.2" height="24.65" shape-rendering="crispEdges"/><rect fill="#1e1e1e" x="0" y="489.5" width="1110.2" height="24.65" shape-rendering="crispEdges"/><rect fill="#1e1e1e" x="0" y="513.9" width="1110.2" height="24.65" shape-rendering="crispEdges"/>
    <g class="terminal-2685039627-matrix">
    <text class="terminal-2685039627-r2" x="1110.2" y="20" textLength="12.2" clip-path="url(#terminal-2685039627-line-0)">
</text><text class="terminal-2685039627-r2" x="1110.2" y="44.4" textLength="12.2" clip-path="url(#terminal-2685039627-line-1)">
</text><text class="terminal-2685039627-r2" x="1110.2" y="68.8" textLength="12.2" clip-path="url(#terminal-2685039627-line-2)">
</text><text class="terminal-2685039627-r2" x="1110.2" y="93.2" textLength="12.2" clip-path="url(#terminal-2685039627-line-3)">
</text><text class="terminal-2685039627-r2" x="1110.2" y="117.6" textLength="12.2" clip-path="url(#terminal-2685039627-line-4)">
</text><text class="terminal-2685039627-r2" x="1110.2" y="142" textLength="12.2" clip-path="url(#terminal-2685039627-line-5)">
</text><text class="terminal-2685039627-r2" x="1110.2" y="166.4" textLength="12.2" clip-path="url(#terminal-2685039627-line-6)">
</text><text class="terminal-2685039627-r2" x="1110.2" y="190.8" textLength="12.2" clip-path="url(#terminal-2685039627-line-7)">
</text><text class="terminal-2685039627-r2" x="1110.2" y="215.2" textLength="12.2" clip-path="url(#terminal-2685039627-line-8)">
</text><text class="terminal-2685039627-r3" x="451.4" y="239.6" textLength="195.2" clip-path="url(#terminal-2685039627-line-9)">▔▔▔▔▔▔▔▔▔▔▔▔▔▔▔▔</text><text class="terminal-2685039627-r2" x="1110.2" y="239.6" textLength="12.2" clip-path="url(#terminal-2685039627-line-9)">
</text><text class="terminal-2685039627-r4" x="500.2" y="264" textLength="97.6" clip-path="url(#terminal-2685039627-line-10)">Click&#160;me</text><text class="terminal-2685039627-r2" x="1110.2" y="264" textLength="12.2" clip-path="url(#terminal-2685039627-line-10)">
</text><text class="terminal-2685039627-r5" x="451.4" y="288.4" textLength="195.2" clip-path="url(#terminal-2685039627-line-11)">▁▁▁▁▁▁▁▁▁▁▁▁▁▁▁▁</text><text class="terminal-2685039627-r2" x="1110.2" y="288.4" textLength="12.2" clip-path="url(#terminal-2685039627-line-11)">
</text><text class="terminal-2685039627-r2" x="1110.2" y="312.8" textLength="12.2" clip-path="url(#terminal-2685039627-line-12)">
</text><text class="terminal-2685039627-r6" x="585.6" y="337.2" textLength="195.2" clip-path="url(#terminal-2685039627-line-13)">I&#160;must&#160;not&#160;fear.</text><text class="terminal-2685039627-r2" x="1110.2" y="337.2" textLength="12.2" clip-path="url(#terminal-2685039627-line-13)">
</text><text class="terminal-2685039627-r6" x="585.6" y="361.6" textLength="292.8" clip-path="url(#terminal-2685039627-line-14)">Fear&#160;is&#160;the&#160;mind-killer.</text><text class="terminal-2685039627-r2" x="1110.2" y="361.6" textLength="12.2" clip-path="url(#terminal-2685039627-line-14)">
</text><text class="terminal-2685039627-r6" x="585.6" y="386" textLength="439.2" clip-path="url(#terminal-2685039627-line-15)">Fear&#160;is&#160;the&#160;little-death&#160;that&#160;brings</text><text class="terminal-2685039627-r2" x="1110.2" y="386" textLength="12.2" clip-path="url(#terminal-2685039627-line-15)">
</text><text class="terminal-2685039627-r6" x="585.6" y="410.4" textLength="231.8" clip-path="url(#terminal-2685039627-line-16)">total&#160;obliteration.</text><text class="terminal-2685039627-r2" x="1110.2" y="410.4" textLength="12.2" clip-path="url(#terminal-2685039627-line-16)">
</text><text class="terminal-2685039627-r6" x="585.6" y="434.8" textLength="244" clip-path="url(#terminal-2685039627-line-17)">I&#160;will&#160;face&#160;my&#160;fear.</text><text class="terminal-2685039627-r2" x="1110.2" y="434.8" textLength="12.2" clip-path="url(#terminal-2685039627-line-17)">
</text><text class="terminal-2685039627-r2" x="1110.2" y="459.2" textLength="12.2" clip-path="url(#terminal-2685039627-line-18)">
</text><text class="terminal-2685039627-r2" x="1110.2" y="483.6" textLength="12.2" clip-path="url(#terminal-2685039627-line-19)">
</text><text class="terminal-2685039627-r2" x="1110.2" y="508" textLength="12.2" clip-path="url(#terminal-2685039627-line-20)">
</text>
    </g>
    </g>
</svg>
