<svg class="rich-terminal" viewBox="0 0 994 806.4" xmlns="http://www.w3.org/2000/svg">
    <!-- Generated with Rich https://www.textualize.io -->
    <style>

    @font-face {
        font-family: "Fira Code";
        src: local("FiraCode-Regular"),
                url("https://cdnjs.cloudflare.com/ajax/libs/firacode/6.2.0/woff2/FiraCode-Regular.woff2") format("woff2"),
                url("https://cdnjs.cloudflare.com/ajax/libs/firacode/6.2.0/woff/FiraCode-Regular.woff") format("woff");
        font-style: normal;
        font-weight: 400;
    }
    @font-face {
        font-family: "Fira Code";
        src: local("FiraCode-Bold"),
                url("https://cdnjs.cloudflare.com/ajax/libs/firacode/6.2.0/woff2/FiraCode-Bold.woff2") format("woff2"),
                url("https://cdnjs.cloudflare.com/ajax/libs/firacode/6.2.0/woff/FiraCode-Bold.woff") format("woff");
        font-style: bold;
        font-weight: 700;
    }

    .terminal-matrix {
        font-family: Fira Code, monospace;
        font-size: 20px;
        line-height: 24.4px;
        font-variant-east-asian: full-width;
    }

    .terminal-title {
        font-size: 18px;
        font-weight: bold;
        font-family: arial;
    }

    .terminal-r1 { fill: #121212 }
.terminal-r2 { fill: #0178d4 }
.terminal-r3 { fill: #c5c8c6 }
.terminal-r4 { fill: #c2c2bf }
.terminal-r5 { fill: #272822 }
.terminal-r6 { fill: #75715e }
.terminal-r7 { fill: #f8f8f2 }
.terminal-r8 { fill: #90908a }
.terminal-r9 { fill: #a6e22e }
    </style>

    <defs>
    <clipPath id="terminal-clip-terminal">
      <rect x="0" y="0" width="975.0" height="755.4" />
    </clipPath>
    <clipPath id="terminal-line-0">
    <rect x="0" y="1.5" width="976" height="24.65"/>
            </clipPath>
<clipPath id="terminal-line-1">
    <rect x="0" y="25.9" width="976" height="24.65"/>
            </clipPath>
<clipPath id="terminal-line-2">
    <rect x="0" y="50.3" width="976" height="24.65"/>
            </clipPath>
<clipPath id="terminal-line-3">
    <rect x="0" y="74.7" width="976" height="24.65"/>
            </clipPath>
<clipPath id="terminal-line-4">
    <rect x="0" y="99.1" width="976" height="24.65"/>
            </clipPath>
<clipPath id="terminal-line-5">
    <rect x="0" y="123.5" width="976" height="24.65"/>
            </clipPath>
<clipPath id="terminal-line-6">
    <rect x="0" y="147.9" width="976" height="24.65"/>
            </clipPath>
<clipPath id="terminal-line-7">
    <rect x="0" y="172.3" width="976" height="24.65"/>
            </clipPath>
<clipPath id="terminal-line-8">
    <rect x="0" y="196.7" width="976" height="24.65"/>
            </clipPath>
<clipPath id="terminal-line-9">
    <rect x="0" y="221.1" width="976" height="24.65"/>
            </clipPath>
<clipPath id="terminal-line-10">
    <rect x="0" y="245.5" width="976" height="24.65"/>
            </clipPath>
<clipPath id="terminal-line-11">
    <rect x="0" y="269.9" width="976" height="24.65"/>
            </clipPath>
<clipPath id="terminal-line-12">
    <rect x="0" y="294.3" width="976" height="24.65"/>
            </clipPath>
<clipPath id="terminal-line-13">
    <rect x="0" y="318.7" width="976" height="24.65"/>
            </clipPath>
<clipPath id="terminal-line-14">
    <rect x="0" y="343.1" width="976" height="24.65"/>
            </clipPath>
<clipPath id="terminal-line-15">
    <rect x="0" y="367.5" width="976" height="24.65"/>
            </clipPath>
<clipPath id="terminal-line-16">
    <rect x="0" y="391.9" width="976" height="24.65"/>
            </clipPath>
<clipPath id="terminal-line-17">
    <rect x="0" y="416.3" width="976" height="24.65"/>
            </clipPath>
<clipPath id="terminal-line-18">
    <rect x="0" y="440.7" width="976" height="24.65"/>
            </clipPath>
<clipPath id="terminal-line-19">
    <rect x="0" y="465.1" width="976" height="24.65"/>
            </clipPath>
<clipPath id="terminal-line-20">
    <rect x="0" y="489.5" width="976" height="24.65"/>
            </clipPath>
<clipPath id="terminal-line-21">
    <rect x="0" y="513.9" width="976" height="24.65"/>
            </clipPath>
<clipPath id="terminal-line-22">
    <rect x="0" y="538.3" width="976" height="24.65"/>
            </clipPath>
<clipPath id="terminal-line-23">
    <rect x="0" y="562.7" width="976" height="24.65"/>
            </clipPath>
<clipPath id="terminal-line-24">
    <rect x="0" y="587.1" width="976" height="24.65"/>
            </clipPath>
<clipPath id="terminal-line-25">
    <rect x="0" y="611.5" width="976" height="24.65"/>
            </clipPath>
<clipPath id="terminal-line-26">
    <rect x="0" y="635.9" width="976" height="24.65"/>
            </clipPath>
<clipPath id="terminal-line-27">
    <rect x="0" y="660.3" width="976" height="24.65"/>
            </clipPath>
<clipPath id="terminal-line-28">
    <rect x="0" y="684.7" width="976" height="24.65"/>
            </clipPath>
<clipPath id="terminal-line-29">
    <rect x="0" y="709.1" width="976" height="24.65"/>
            </clipPath>
    </defs>

    <rect fill="#292929" stroke="rgba(255,255,255,0.35)" stroke-width="1" x="1" y="1" width="992" height="804.4" rx="8"/><text class="terminal-title" fill="#c5c8c6" text-anchor="middle" x="496" y="27">TextAreaSnapshot</text>
            <g transform="translate(26,22)">
            <circle cx="0" cy="0" r="7" fill="#ff5f57"/>
            <circle cx="22" cy="0" r="7" fill="#febc2e"/>
            <circle cx="44" cy="0" r="7" fill="#28c840"/>
            </g>
        
    <g transform="translate(9, 41)" clip-path="url(#terminal-clip-terminal)">
    <rect fill="#0178d4" x="0" y="1.5" width="12.2" height="24.65" shape-rendering="crispEdges"/><rect fill="#272822" x="12.2" y="1.5" width="951.6" height="24.65" shape-rendering="crispEdges"/><rect fill="#121212" x="963.8" y="1.5" width="12.2" height="24.65" shape-rendering="crispEdges"/><rect fill="#0178d4" x="0" y="25.9" width="12.2" height="24.65" shape-rendering="crispEdges"/><rect fill="#272822" x="12.2" y="25.9" width="12.2" height="24.65" shape-rendering="crispEdges"/><rect fill="#3e3d32" x="24.4" y="25.9" width="48.8" height="24.65" shape-rendering="crispEdges"/><rect fill="#f8f8f0" x="73.2" y="25.9" width="12.2" height="24.65" shape-rendering="crispEdges"/><rect fill="#3e3d32" x="85.4" y="25.9" width="329.4" height="24.65" shape-rendering="crispEdges"/><rect fill="#3e3d32" x="414.8" y="25.9" width="536.8" height="24.65" shape-rendering="crispEdges"/><rect fill="#272822" x="951.6" y="25.9" width="12.2" height="24.65" shape-rendering="crispEdges"/><rect fill="#121212" x="963.8" y="25.9" width="12.2" height="24.65" shape-rendering="crispEdges"/><rect fill="#0178d4" x="0" y="50.3" width="12.2" height="24.65" shape-rendering="crispEdges"/><rect fill="#272822" x="12.2" y="50.3" width="12.2" height="24.65" shape-rendering="crispEdges"/><rect fill="#272822" x="24.4" y="50.3" width="48.8" height="24.65" shape-rendering="crispEdges"/><rect fill="#272822" x="73.2" y="50.3" width="12.2" height="24.65" shape-rendering="crispEdges"/><rect fill="#272822" x="85.4" y="50.3" width="866.2" height="24.65" shape-rendering="crispEdges"/><rect fill="#272822" x="951.6" y="50.3" width="12.2" height="24.65" shape-rendering="crispEdges"/><rect fill="#121212" x="963.8" y="50.3" width="12.2" height="24.65" shape-rendering="crispEdges"/><rect fill="#0178d4" x="0" y="74.7" width="12.2" height="24.65" shape-rendering="crispEdges"/><rect fill="#272822" x="12.2" y="74.7" width="12.2" height="24.65" shape-rendering="crispEdges"/><rect fill="#272822" x="24.4" y="74.7" width="48.8" height="24.65" shape-rendering="crispEdges"/><rect fill="#272822" x="73.2" y="74.7" width="12.2" height="24.65" shape-rendering="crispEdges"/><rect fill="#272822" x="85.4" y="74.7" width="36.6" height="24.65" shape-rendering="crispEdges"/><rect fill="#272822" x="122" y="74.7" width="829.6" height="24.65" shape-rendering="crispEdges"/><rect fill="#272822" x="951.6" y="74.7" width="12.2" height="24.65" shape-rendering="crispEdges"/><rect fill="#121212" x="963.8" y="74.7" width="12.2" height="24.65" shape-rendering="crispEdges"/><rect fill="#0178d4" x="0" y="99.1" width="12.2" height="24.65" shape-rendering="crispEdges"/><rect fill="#272822" x="12.2" y="99.1" width="12.2" height="24.65" shape-rendering="crispEdges"/><rect fill="#272822" x="24.4" y="99.1" width="48.8" height="24.65" shape-rendering="crispEdges"/><rect fill="#272822" x="73.2" y="99.1" width="878.4" height="24.65" shape-rendering="crispEdges"/><rect fill="#272822" x="951.6" y="99.1" width="12.2" height="24.65" shape-rendering="crispEdges"/><rect fill="#121212" x="963.8" y="99.1" width="12.2" height="24.65" shape-rendering="crispEdges"/><rect fill="#0178d4" x="0" y="123.5" width="12.2" height="24.65" shape-rendering="crispEdges"/><rect fill="#272822" x="12.2" y="123.5" width="12.2" height="24.65" shape-rendering="crispEdges"/><rect fill="#272822" x="24.4" y="123.5" width="48.8" height="24.65" shape-rendering="crispEdges"/><rect fill="#272822" x="73.2" y="123.5" width="878.4" height="24.65" shape-rendering="crispEdges"/><rect fill="#272822" x="951.6" y="123.5" width="12.2" height="24.65" shape-rendering="crispEdges"/><rect fill="#121212" x="963.8" y="123.5" width="12.2" height="24.65" shape-rendering="crispEdges"/><rect fill="#0178d4" x="0" y="147.9" width="12.2" height="24.65" shape-rendering="crispEdges"/><rect fill="#272822" x="12.2" y="147.9" width="12.2" height="24.65" shape-rendering="crispEdges"/><rect fill="#272822" x="24.4" y="147.9" width="48.8" height="24.65" shape-rendering="crispEdges"/><rect fill="#272822" x="73.2" y="147.9" width="878.4" height="24.65" shape-rendering="crispEdges"/><rect fill="#272822" x="951.6" y="147.9" width="12.2" height="24.65" shape-rendering="crispEdges"/><rect fill="#121212" x="963.8" y="147.9" width="12.2" height="24.65" shape-rendering="crispEdges"/><rect fill="#0178d4" x="0" y="172.3" width="12.2" height="24.65" shape-rendering="crispEdges"/><rect fill="#272822" x="12.2" y="172.3" width="12.2" height="24.65" shape-rendering="crispEdges"/><rect fill="#272822" x="24.4" y="172.3" width="48.8" height="24.65" shape-rendering="crispEdges"/><rect fill="#272822" x="73.2" y="172.3" width="878.4" height="24.65" shape-rendering="crispEdges"/><rect fill="#272822" x="951.6" y="172.3" width="12.2" height="24.65" shape-rendering="crispEdges"/><rect fill="#121212" x="963.8" y="172.3" width="12.2" height="24.65" shape-rendering="crispEdges"/><rect fill="#0178d4" x="0" y="196.7" width="12.2" height="24.65" shape-rendering="crispEdges"/><rect fill="#272822" x="12.2" y="196.7" width="12.2" height="24.65" shape-rendering="crispEdges"/><rect fill="#272822" x="24.4" y="196.7" width="48.8" height="24.65" shape-rendering="crispEdges"/><rect fill="#272822" x="73.2" y="196.7" width="12.2" height="24.65" shape-rendering="crispEdges"/><rect fill="#272822" x="85.4" y="196.7" width="73.2" height="24.65" shape-rendering="crispEdges"/><rect fill="#272822" x="158.6" y="196.7" width="793" height="24.65" shape-rendering="crispEdges"/><rect fill="#272822" x="951.6" y="196.7" width="12.2" height="24.65" shape-rendering="crispEdges"/><rect fill="#121212" x="963.8" y="196.7" width="12.2" height="24.65" shape-rendering="crispEdges"/><rect fill="#0178d4" x="0" y="221.1" width="12.2" height="24.65" shape-rendering="crispEdges"/><rect fill="#272822" x="12.2" y="221.1" width="12.2" height="24.65" shape-rendering="crispEdges"/><rect fill="#272822" x="24.4" y="221.1" width="48.8" height="24.65" shape-rendering="crispEdges"/><rect fill="#272822" x="73.2" y="221.1" width="878.4" height="24.65" shape-rendering="crispEdges"/><rect fill="#272822" x="951.6" y="221.1" width="12.2" height="24.65" shape-rendering="crispEdges"/><rect fill="#121212" x="963.8" y="221.1" width="12.2" height="24.65" shape-rendering="crispEdges"/><rect fill="#0178d4" x="0" y="245.5" width="12.2" height="24.65" shape-rendering="crispEdges"/><rect fill="#272822" x="12.2" y="245.5" width="12.2" height="24.65" shape-rendering="crispEdges"/><rect fill="#272822" x="24.4" y="245.5" width="48.8" height="24.65" shape-rendering="crispEdges"/><rect fill="#272822" x="73.2" y="245.5" width="878.4" height="24.65" shape-rendering="crispEdges"/><rect fill="#272822" x="951.6" y="245.5" width="12.2" height="24.65" shape-rendering="crispEdges"/><rect fill="#121212" x="963.8" y="245.5" width="12.2" height="24.65" shape-rendering="crispEdges"/><rect fill="#0178d4" x="0" y="269.9" width="12.2" height="24.65" shape-rendering="crispEdges"/><rect fill="#272822" x="12.2" y="269.9" width="12.2" height="24.65" shape-rendering="crispEdges"/><rect fill="#272822" x="24.4" y="269.9" width="48.8" height="24.65" shape-rendering="crispEdges"/><rect fill="#272822" x="73.2" y="269.9" width="878.4" height="24.65" shape-rendering="crispEdges"/><rect fill="#272822" x="951.6" y="269.9" width="12.2" height="24.65" shape-rendering="crispEdges"/><rect fill="#121212" x="963.8" y="269.9" width="12.2" height="24.65" shape-rendering="crispEdges"/><rect fill="#0178d4" x="0" y="294.3" width="12.2" height="24.65" shape-rendering="crispEdges"/><rect fill="#272822" x="12.2" y="294.3" width="12.2" height="24.65" shape-rendering="crispEdges"/><rect fill="#272822" x="24.4" y="294.3" width="48.8" height="24.65" shape-rendering="crispEdges"/><rect fill="#272822" x="73.2" y="294.3" width="878.4" height="24.65" shape-rendering="crispEdges"/><rect fill="#272822" x="951.6" y="294.3" width="12.2" height="24.65" shape-rendering="crispEdges"/><rect fill="#121212" x="963.8" y="294.3" width="12.2" height="24.65" shape-rendering="crispEdges"/><rect fill="#0178d4" x="0" y="318.7" width="12.2" height="24.65" shape-rendering="crispEdges"/><rect fill="#272822" x="12.2" y="318.7" width="12.2" height="24.65" shape-rendering="crispEdges"/><rect fill="#272822" x="24.4" y="318.7" width="48.8" height="24.65" shape-rendering="crispEdges"/><rect fill="#272822" x="73.2" y="318.7" width="12.2" height="24.65" shape-rendering="crispEdges"/><rect fill="#272822" x="85.4" y="318.7" width="97.6" height="24.65" shape-rendering="crispEdges"/><rect fill="#272822" x="183" y="318.7" width="768.6" height="24.65" shape-rendering="crispEdges"/><rect fill="#272822" x="951.6" y="318.7" width="12.2" height="24.65" shape-rendering="crispEdges"/><rect fill="#121212" x="963.8" y="318.7" width="12.2" height="24.65" shape-rendering="crispEdges"/><rect fill="#0178d4" x="0" y="343.1" width="12.2" height="24.65" shape-rendering="crispEdges"/><rect fill="#272822" x="12.2" y="343.1" width="12.2" height="24.65" shape-rendering="crispEdges"/><rect fill="#272822" x="24.4" y="343.1" width="48.8" height="24.65" shape-rendering="crispEdges"/><rect fill="#272822" x="73.2" y="343.1" width="878.4" height="24.65" shape-rendering="crispEdges"/><rect fill="#272822" x="951.6" y="343.1" width="12.2" height="24.65" shape-rendering="crispEdges"/><rect fill="#121212" x="963.8" y="343.1" width="12.2" height="24.65" shape-rendering="crispEdges"/><rect fill="#0178d4" x="0" y="367.5" width="12.2" height="24.65" shape-rendering="crispEdges"/><rect fill="#272822" x="12.2" y="367.5" width="12.2" height="24.65" shape-rendering="crispEdges"/><rect fill="#272822" x="24.4" y="367.5" width="48.8" height="24.65" shape-rendering="crispEdges"/><rect fill="#272822" x="73.2" y="367.5" width="878.4" height="24.65" shape-rendering="crispEdges"/><rect fill="#272822" x="951.6" y="367.5" width="12.2" height="24.65" shape-rendering="crispEdges"/><rect fill="#121212" x="963.8" y="367.5" width="12.2" height="24.65" shape-rendering="crispEdges"/><rect fill="#0178d4" x="0" y="391.9" width="12.2" height="24.65" shape-rendering="crispEdges"/><rect fill="#272822" x="12.2" y="391.9" width="12.2" height="24.65" shape-rendering="crispEdges"/><rect fill="#272822" x="24.4" y="391.9" width="48.8" height="24.65" shape-rendering="crispEdges"/><rect fill="#272822" x="73.2" y="391.9" width="878.4" height="24.65" shape-rendering="crispEdges"/><rect fill="#272822" x="951.6" y="391.9" width="12.2" height="24.65" shape-rendering="crispEdges"/><rect fill="#121212" x="963.8" y="391.9" width="12.2" height="24.65" shape-rendering="crispEdges"/><rect fill="#0178d4" x="0" y="416.3" width="12.2" height="24.65" shape-rendering="crispEdges"/><rect fill="#272822" x="12.2" y="416.3" width="12.2" height="24.65" shape-rendering="crispEdges"/><rect fill="#272822" x="24.4" y="416.3" width="48.8" height="24.65" shape-rendering="crispEdges"/><rect fill="#272822" x="73.2" y="416.3" width="878.4" height="24.65" shape-rendering="crispEdges"/><rect fill="#272822" x="951.6" y="416.3" width="12.2" height="24.65" shape-rendering="crispEdges"/><rect fill="#121212" x="963.8" y="416.3" width="12.2" height="24.65" shape-rendering="crispEdges"/><rect fill="#0178d4" x="0" y="440.7" width="12.2" height="24.65" shape-rendering="crispEdges"/><rect fill="#272822" x="12.2" y="440.7" width="12.2" height="24.65" shape-rendering="crispEdges"/><rect fill="#272822" x="24.4" y="440.7" width="48.8" height="24.65" shape-rendering="crispEdges"/><rect fill="#272822" x="73.2" y="440.7" width="878.4" height="24.65" shape-rendering="crispEdges"/><rect fill="#272822" x="951.6" y="440.7" width="12.2" height="24.65" shape-rendering="crispEdges"/><rect fill="#121212" x="963.8" y="440.7" width="12.2" height="24.65" shape-rendering="crispEdges"/><rect fill="#0178d4" x="0" y="465.1" width="12.2" height="24.65" shape-rendering="crispEdges"/><rect fill="#272822" x="12.2" y="465.1" width="12.2" height="24.65" shape-rendering="crispEdges"/><rect fill="#272822" x="24.4" y="465.1" width="48.8" height="24.65" shape-rendering="crispEdges"/><rect fill="#272822" x="73.2" y="465.1" width="878.4" height="24.65" shape-rendering="crispEdges"/><rect fill="#272822" x="951.6" y="465.1" width="12.2" height="24.65" shape-rendering="crispEdges"/><rect fill="#121212" x="963.8" y="465.1" width="12.2" height="24.65" shape-rendering="crispEdges"/><rect fill="#0178d4" x="0" y="489.5" width="12.2" height="24.65" shape-rendering="crispEdges"/><rect fill="#272822" x="12.2" y="489.5" width="12.2" height="24.65" shape-rendering="crispEdges"/><rect fill="#272822" x="24.4" y="489.5" width="48.8" height="24.65" shape-rendering="crispEdges"/><rect fill="#272822" x="73.2" y="489.5" width="12.2" height="24.65" shape-rendering="crispEdges"/><rect fill="#272822" x="85.4" y="489.5" width="85.4" height="24.65" shape-rendering="crispEdges"/><rect fill="#272822" x="170.8" y="489.5" width="780.8" height="24.65" shape-rendering="crispEdges"/><rect fill="#272822" x="951.6" y="489.5" width="12.2" height="24.65" shape-rendering="crispEdges"/><rect fill="#121212" x="963.8" y="489.5" width="12.2" height="24.65" shape-rendering="crispEdges"/><rect fill="#0178d4" x="0" y="513.9" width="12.2" height="24.65" shape-rendering="crispEdges"/><rect fill="#272822" x="12.2" y="513.9" width="12.2" height="24.65" shape-rendering="crispEdges"/><rect fill="#272822" x="24.4" y="513.9" width="48.8" height="24.65" shape-rendering="crispEdges"/><rect fill="#272822" x="73.2" y="513.9" width="878.4" height="24.65" shape-rendering="crispEdges"/><rect fill="#272822" x="951.6" y="513.9" width="12.2" height="24.65" shape-rendering="crispEdges"/><rect fill="#121212" x="963.8" y="513.9" width="12.2" height="24.65" shape-rendering="crispEdges"/><rect fill="#0178d4" x="0" y="538.3" width="12.2" height="24.65" shape-rendering="crispEdges"/><rect fill="#272822" x="12.2" y="538.3" width="12.2" height="24.65" shape-rendering="crispEdges"/><rect fill="#272822" x="24.4" y="538.3" width="48.8" height="24.65" shape-rendering="crispEdges"/><rect fill="#272822" x="73.2" y="538.3" width="878.4" height="24.65" shape-rendering="crispEdges"/><rect fill="#272822" x="951.6" y="538.3" width="12.2" height="24.65" shape-rendering="crispEdges"/><rect fill="#121212" x="963.8" y="538.3" width="12.2" height="24.65" shape-rendering="crispEdges"/><rect fill="#0178d4" x="0" y="562.7" width="12.2" height="24.65" shape-rendering="crispEdges"/><rect fill="#272822" x="12.2" y="562.7" width="12.2" height="24.65" shape-rendering="crispEdges"/><rect fill="#272822" x="24.4" y="562.7" width="48.8" height="24.65" shape-rendering="crispEdges"/><rect fill="#272822" x="73.2" y="562.7" width="878.4" height="24.65" shape-rendering="crispEdges"/><rect fill="#272822" x="951.6" y="562.7" width="12.2" height="24.65" shape-rendering="crispEdges"/><rect fill="#121212" x="963.8" y="562.7" width="12.2" height="24.65" shape-rendering="crispEdges"/><rect fill="#0178d4" x="0" y="587.1" width="12.2" height="24.65" shape-rendering="crispEdges"/><rect fill="#272822" x="12.2" y="587.1" width="12.2" height="24.65" shape-rendering="crispEdges"/><rect fill="#272822" x="24.4" y="587.1" width="48.8" height="24.65" shape-rendering="crispEdges"/><rect fill="#272822" x="73.2" y="587.1" width="12.2" height="24.65" shape-rendering="crispEdges"/><rect fill="#272822" x="85.4" y="587.1" width="97.6" height="24.65" shape-rendering="crispEdges"/><rect fill="#272822" x="183" y="587.1" width="768.6" height="24.65" shape-rendering="crispEdges"/><rect fill="#272822" x="951.6" y="587.1" width="12.2" height="24.65" shape-rendering="crispEdges"/><rect fill="#121212" x="963.8" y="587.1" width="12.2" height="24.65" shape-rendering="crispEdges"/><rect fill="#0178d4" x="0" y="611.5" width="12.2" height="24.65" shape-rendering="crispEdges"/><rect fill="#272822" x="12.2" y="611.5" width="12.2" height="24.65" shape-rendering="crispEdges"/><rect fill="#272822" x="24.4" y="611.5" width="48.8" height="24.65" shape-rendering="crispEdges"/><rect fill="#272822" x="73.2" y="611.5" width="878.4" height="24.65" shape-rendering="crispEdges"/><rect fill="#272822" x="951.6" y="611.5" width="12.2" height="24.65" shape-rendering="crispEdges"/><rect fill="#121212" x="963.8" y="611.5" width="12.2" height="24.65" shape-rendering="crispEdges"/><rect fill="#0178d4" x="0" y="635.9" width="12.2" height="24.65" shape-rendering="crispEdges"/><rect fill="#272822" x="12.2" y="635.9" width="12.2" height="24.65" shape-rendering="crispEdges"/><rect fill="#272822" x="24.4" y="635.9" width="48.8" height="24.65" shape-rendering="crispEdges"/><rect fill="#272822" x="73.2" y="635.9" width="878.4" height="24.65" shape-rendering="crispEdges"/><rect fill="#272822" x="951.6" y="635.9" width="12.2" height="24.65" shape-rendering="crispEdges"/><rect fill="#121212" x="963.8" y="635.9" width="12.2" height="24.65" shape-rendering="crispEdges"/><rect fill="#0178d4" x="0" y="660.3" width="12.2" height="24.65" shape-rendering="crispEdges"/><rect fill="#272822" x="12.2" y="660.3" width="12.2" height="24.65" shape-rendering="crispEdges"/><rect fill="#272822" x="24.4" y="660.3" width="48.8" height="24.65" shape-rendering="crispEdges"/><rect fill="#272822" x="73.2" y="660.3" width="878.4" height="24.65" shape-rendering="crispEdges"/><rect fill="#272822" x="951.6" y="660.3" width="12.2" height="24.65" shape-rendering="crispEdges"/><rect fill="#121212" x="963.8" y="660.3" width="12.2" height="24.65" shape-rendering="crispEdges"/><rect fill="#0178d4" x="0" y="684.7" width="12.2" height="24.65" shape-rendering="crispEdges"/><rect fill="#272822" x="12.2" y="684.7" width="12.2" height="24.65" shape-rendering="crispEdges"/><rect fill="#272822" x="24.4" y="684.7" width="48.8" height="24.65" shape-rendering="crispEdges"/><rect fill="#272822" x="73.2" y="684.7" width="878.4" height="24.65" shape-rendering="crispEdges"/><rect fill="#272822" x="951.6" y="684.7" width="12.2" height="24.65" shape-rendering="crispEdges"/><rect fill="#121212" x="963.8" y="684.7" width="12.2" height="24.65" shape-rendering="crispEdges"/><rect fill="#0178d4" x="0" y="709.1" width="12.2" height="24.65" shape-rendering="crispEdges"/><rect fill="#272822" x="12.2" y="709.1" width="12.2" height="24.65" shape-rendering="crispEdges"/><rect fill="#272822" x="24.4" y="709.1" width="927.2" height="24.65" shape-rendering="crispEdges"/><rect fill="#272822" x="951.6" y="709.1" width="12.2" height="24.65" shape-rendering="crispEdges"/><rect fill="#121212" x="963.8" y="709.1" width="12.2" height="24.65" shape-rendering="crispEdges"/><rect fill="#0178d4" x="0" y="733.5" width="12.2" height="24.65" shape-rendering="crispEdges"/><rect fill="#272822" x="12.2" y="733.5" width="951.6" height="24.65" shape-rendering="crispEdges"/><rect fill="#121212" x="963.8" y="733.5" width="12.2" height="24.65" shape-rendering="crispEdges"/>
    <g class="terminal-matrix">
    <text class="terminal-r1" x="0" y="20" textLength="12.2" clip-path="url(#terminal-line-0)">▊</text><text class="terminal-r2" x="12.2" y="20" textLength="951.6" clip-path="url(#terminal-line-0)">▔▔▔▔▔▔▔▔▔▔▔▔▔▔▔▔▔▔▔▔▔▔▔▔▔▔▔▔▔▔▔▔▔▔▔▔▔▔▔▔▔▔▔▔▔▔▔▔▔▔▔▔▔▔▔▔▔▔▔▔▔▔▔▔▔▔▔▔▔▔▔▔▔▔▔▔▔▔</text><text class="terminal-r2" x="963.8" y="20" textLength="12.2" clip-path="url(#terminal-line-0)">▎</text><text class="terminal-r3" x="976" y="20" textLength="12.2" clip-path="url(#terminal-line-0)">
</text><text class="terminal-r1" x="0" y="44.4" textLength="12.2" clip-path="url(#terminal-line-1)">▊</text><text class="terminal-r4" x="24.4" y="44.4" textLength="48.8" clip-path="url(#terminal-line-1)">&#160;1&#160;&#160;</text><text class="terminal-r5" x="73.2" y="44.4" textLength="12.2" clip-path="url(#terminal-line-1)">;</text><text class="terminal-r6" x="85.4" y="44.4" textLength="329.4" clip-path="url(#terminal-line-1)">&#160;Application&#160;configuration&#160;</text><text class="terminal-r2" x="963.8" y="44.4" textLength="12.2" clip-path="url(#terminal-line-1)">▎</text><text class="terminal-r3" x="976" y="44.4" textLength="12.2" clip-path="url(#terminal-line-1)">
</text><text class="terminal-r1" x="0" y="68.8" textLength="12.2" clip-path="url(#terminal-line-2)">▊</text><text class="terminal-r8" x="24.4" y="68.8" textLength="48.8" clip-path="url(#terminal-line-2)">&#160;2&#160;&#160;</text><text class="terminal-r2" x="963.8" y="68.8" textLength="12.2" clip-path="url(#terminal-line-2)">▎</text><text class="terminal-r3" x="976" y="68.8" textLength="12.2" clip-path="url(#terminal-line-2)">
</text><text class="terminal-r1" x="0" y="93.2" textLength="12.2" clip-path="url(#terminal-line-3)">▊</text><text class="terminal-r8" x="24.4" y="93.2" textLength="48.8" clip-path="url(#terminal-line-3)">&#160;3&#160;&#160;</text><text class="terminal-r7" x="73.2" y="93.2" textLength="12.2" clip-path="url(#terminal-line-3)">[</text><text class="terminal-r9" x="85.4" y="93.2" textLength="36.6" clip-path="url(#terminal-line-3)">app</text><text class="terminal-r7" x="122" y="93.2" textLength="829.6" clip-path="url(#terminal-line-3)">]&#160;&#160;&#160;&#160;&#160;&#160;&#160;&#160;&#160;&#160;&#160;&#160;&#160;&#160;&#160;&#160;&#160;&#160;&#160;&#160;&#160;&#160;&#160;&#160;&#160;&#160;&#160;&#160;&#160;&#160;&#160;&#160;&#160;&#160;&#160;&#160;&#160;&#160;&#160;&#160;&#160;&#160;&#160;&#160;&#160;&#160;&#160;&#160;&#160;&#160;&#160;&#160;&#160;&#160;&#160;&#160;&#160;&#160;&#160;&#160;&#160;&#160;&#160;&#160;&#160;&#160;&#160;</text><text class="terminal-r2" x="963.8" y="93.2" textLength="12.2" clip-path="url(#terminal-line-3)">▎</text><text class="terminal-r3" x="976" y="93.2" textLength="12.2" clip-path="url(#terminal-line-3)">
</text><text class="terminal-r1" x="0" y="117.6" textLength="12.2" clip-path="url(#terminal-line-4)">▊</text><text class="terminal-r8" x="24.4" y="117.6" textLength="48.8" clip-path="url(#terminal-line-4)">&#160;4&#160;&#160;</text><text class="terminal-r7" x="73.2" y="117.6" textLength="878.4" clip-path="url(#terminal-line-4)">name&#160;=&#160;&quot;samplefile-api&quot;&#160;&#160;&#160;&#160;&#160;&#160;&#160;&#160;&#160;&#160;&#160;&#160;&#160;&#160;&#160;&#160;&#160;&#160;&#160;&#160;&#160;&#160;&#160;&#160;&#160;&#160;&#160;&#160;&#160;&#160;&#160;&#160;&#160;&#160;&#160;&#160;&#160;&#160;&#160;&#160;&#160;&#160;&#160;&#160;&#160;&#160;&#160;&#160;&#160;</text><text class="terminal-r2" x="963.8" y="117.6" textLength="12.2" clip-path="url(#terminal-line-4)">▎</text><text class="terminal-r3" x="976" y="117.6" textLength="12.2" clip-path="url(#terminal-line-4)">
</text><text class="terminal-r1" x="0" y="142" textLength="12.2" clip-path="url(#terminal-line-5)">▊</text><text class="terminal-r8" x="24.4" y="142" textLength="48.8" clip-path="url(#terminal-line-5)">&#160;5&#160;&#160;</text><text class="terminal-r7" x="73.2" y="142" textLength="878.4" clip-path="url(#terminal-line-5)">version&#160;=&#160;1.2.3&#160;&#160;&#160;&#160;&#160;&#160;&#160;&#160;&#160;&#160;&#160;&#160;&#160;&#160;&#160;&#160;&#160;&#160;&#160;&#160;&#160;&#160;&#160;&#160;&#160;&#160;&#160;&#160;&#160;&#160;&#160;&#160;&#160;&#160;&#160;&#160;&#160;&#160;&#160;&#160;&#160;&#160;&#160;&#160;&#160;&#160;&#160;&#160;&#160;&#160;&#160;&#160;&#160;&#160;&#160;&#160;&#160;</text><text class="terminal-r2" x="963.8" y="142" textLength="12.2" clip-path="url(#terminal-line-5)">▎</text><text class="terminal-r3" x="976" y="142" textLength="12.2" clip-path="url(#terminal-line-5)">
</text><text class="terminal-r1" x="0" y="166.4" textLength="12.2" clip-path="url(#terminal-line-6)">▊</text><text class="terminal-r8" x="24.4" y="166.4" textLength="48.8" clip-path="url(#terminal-line-6)">&#160;6&#160;&#160;</text><text class="terminal-r7" x="73.2" y="166.4" textLength="878.4" clip-path="url(#terminal-line-6)">debug&#160;=&#160;false&#160;&#160;&#160;&#160;&#160;&#160;&#160;&#160;&#160;&#160;&#160;&#160;&#160;&#160;&#160;&#160;&#160;&#160;&#160;&#160;&#160;&#160;&#160;&#160;&#160;&#160;&#160;&#160;&#160;&#160;&#160;&#160;&#160;&#160;&#160;&#160;&#160;&#160;&#160;&#160;&#160;&#160;&#160;&#160;&#160;&#160;&#160;&#160;&#160;&#160;&#160;&#160;&#160;&#160;&#160;&#160;&#160;&#160;&#160;</text><text class="terminal-r2" x="963.8" y="166.4" textLength="12.2" clip-path="url(#terminal-line-6)">▎</text><text class="terminal-r3" x="976" y="166.4" textLength="12.2" clip-path="url(#terminal-line-6)">
</text><text class="terminal-r1" x="0" y="190.8" textLength="12.2" clip-path="url(#terminal-line-7)">▊</text><text class="terminal-r8" x="24.4" y="190.8" textLength="48.8" clip-path="url(#terminal-line-7)">&#160;7&#160;&#160;</text><text class="terminal-r2" x="963.8" y="190.8" textLength="12.2" clip-path="url(#terminal-line-7)">▎</text><text class="terminal-r3" x="976" y="190.8" textLength="12.2" clip-path="url(#terminal-line-7)">
</text><text class="terminal-r1" x="0" y="215.2" textLength="12.2" clip-path="url(#terminal-line-8)">▊</text><text class="terminal-r8" x="24.4" y="215.2" textLength="48.8" clip-path="url(#terminal-line-8)">&#160;8&#160;&#160;</text><text class="terminal-r7" x="73.2" y="215.2" textLength="12.2" clip-path="url(#terminal-line-8)">[</text><text class="terminal-r9" x="85.4" y="215.2" textLength="73.2" clip-path="url(#terminal-line-8)">server</text><text class="terminal-r7" x="158.6" y="215.2" textLength="793" clip-path="url(#terminal-line-8)">]&#160;&#160;&#160;&#160;&#160;&#160;&#160;&#160;&#160;&#160;&#160;&#160;&#160;&#160;&#160;&#160;&#160;&#160;&#160;&#160;&#160;&#160;&#160;&#160;&#160;&#160;&#160;&#160;&#160;&#160;&#160;&#160;&#160;&#160;&#160;&#160;&#160;&#160;&#160;&#160;&#160;&#160;&#160;&#160;&#160;&#160;&#160;&#160;&#160;&#160;&#160;&#160;&#160;&#160;&#160;&#160;&#160;&#160;&#160;&#160;&#160;&#160;&#160;&#160;</text><text class="terminal-r2" x="963.8" y="215.2" textLength="12.2" clip-path="url(#terminal-line-8)">▎</text><text class="terminal-r3" x="976" y="215.2" textLength="12.2" clip-path="url(#terminal-line-8)">
</text><text class="terminal-r1" x="0" y="239.6" textLength="12.2" clip-path="url(#terminal-line-9)">▊</text><text class="terminal-r8" x="24.4" y="239.6" textLength="48.8" clip-path="url(#terminal-line-9)">&#160;9&#160;&#160;</text><text class="terminal-r7" x="73.2" y="239.6" textLength="878.4" clip-path="url(#terminal-line-9)">host&#160;=&#160;localhost&#160;&#160;&#160;&#160;&#160;&#160;&#160;&#160;&#160;&#160;&#160;&#160;&#160;&#160;&#160;&#160;&#160;&#160;&#160;&#160;&#160;&#160;&#160;&#160;&#160;&#160;&#160;&#160;&#160;&#160;&#160;&#160;&#160;&#160;&#160;&#160;&#160;&#160;&#160;&#160;&#160;&#160;&#160;&#160;&#160;&#160;&#160;&#160;&#160;&#160;&#160;&#160;&#160;&#160;&#160;&#160;</text><text class="terminal-r2" x="963.8" y="239.6" textLength="12.2" clip-path="url(#terminal-line-9)">▎</text><text class="terminal-r3" x="976" y="239.6" textLength="12.2" clip-path="url(#terminal-line-9)">
</text><text class="terminal-r1" x="0" y="264" textLength="12.2" clip-path="url(#terminal-line-10)">▊</text><text class="terminal-r8" x="24.4" y="264" textLength="48.8" clip-path="url(#terminal-line-10)">10&#160;&#160;</text><text class="terminal-r7" x="73.2" y="264" textLength="878.4" clip-path="url(#terminal-line-10)">port&#160;=&#160;8080&#160;&#160;&#160;&#160;&#160;&#160;&#160;&#160;&#160;&#160;&#160;&#160;&#160;&#160;&#160;&#160;&#160;&#160;&#160;&#160;&#160;&#160;&#160;&#160;&#160;&#160;&#160;&#160;&#160;&#160;&#160;&#160;&#160;&#160;&#160;&#160;&#160;&#160;&#160;&#160;&#160;&#160;&#160;&#160;&#160;&#160;&#160;&#160;&#160;&#160;&#160;&#160;&#160;&#160;&#160;&#160;&#160;&#160;&#160;&#160;&#160;</text><text class="terminal-r2" x="963.8" y="264" textLength="12.2" clip-path="url(#terminal-line-10)">▎</text><text class="terminal-r3" x="976" y="264" textLength="12.2" clip-path="url(#terminal-line-10)">
</text><text class="terminal-r1" x="0" y="288.4" textLength="12.2" clip-path="url(#terminal-line-11)">▊</text><text class="terminal-r8" x="24.4" y="288.4" textLength="48.8" clip-path="url(#terminal-line-11)">11&#160;&#160;</text><text class="terminal-r7" x="73.2" y="288.4" textLength="878.4" clip-path="url(#terminal-line-11)">base_url&#160;=&#160;https://api.example.com&#160;&#160;&#160;&#160;&#160;&#160;&#160;&#160;&#160;&#160;&#160;&#160;&#160;&#160;&#160;&#160;&#160;&#160;&#160;&#160;&#160;&#160;&#160;&#160;&#160;&#160;&#160;&#160;&#160;&#160;&#160;&#160;&#160;&#160;&#160;&#160;&#160;&#160;</text><text class="terminal-r2" x="963.8" y="288.4" textLength="12.2" clip-path="url(#terminal-line-11)">▎</text><text class="terminal-r3" x="976" y="288.4" textLength="12.2" clip-path="url(#terminal-line-11)">
</text><text class="terminal-r1" x="0" y="312.8" textLength="12.2" clip-path="url(#terminal-line-12)">▊</text><text class="terminal-r8" x="24.4" y="312.8" textLength="48.8" clip-path="url(#terminal-line-12)">12&#160;&#160;</text><text class="terminal-r2" x="963.8" y="312.8" textLength="12.2" clip-path="url(#terminal-line-12)">▎</text><text class="terminal-r3" x="976" y="312.8" textLength="12.2" clip-path="url(#terminal-line-12)">
</text><text class="terminal-r1" x="0" y="337.2" textLength="12.2" clip-path="url(#terminal-line-13)">▊</text><text class="terminal-r8" x="24.4" y="337.2" textLength="48.8" clip-path="url(#terminal-line-13)">13&#160;&#160;</text><text class="terminal-r7" x="73.2" y="337.2" textLength="12.2" clip-path="url(#terminal-line-13)">[</text><text class="terminal-r9" x="85.4" y="337.2" textLength="97.6" clip-path="url(#terminal-line-13)">database</text><text class="terminal-r7" x="183" y="337.2" textLength="768.6" clip-path="url(#terminal-line-13)">]&#160;&#160;&#160;&#160;&#160;&#160;&#160;&#160;&#160;&#160;&#160;&#160;&#160;&#160;&#160;&#160;&#160;&#160;&#160;&#160;&#160;&#160;&#160;&#160;&#160;&#160;&#160;&#160;&#160;&#160;&#160;&#160;&#160;&#160;&#160;&#160;&#160;&#160;&#160;&#160;&#160;&#160;&#160;&#160;&#160;&#160;&#160;&#160;&#160;&#160;&#160;&#160;&#160;&#160;&#160;&#160;&#160;&#160;&#160;&#160;&#160;&#160;</text><text class="terminal-r2" x="963.8" y="337.2" textLength="12.2" clip-path="url(#terminal-line-13)">▎</text><text class="terminal-r3" x="976" y="337.2" textLength="12.2" clip-path="url(#terminal-line-13)">
</text><text class="terminal-r1" x="0" y="361.6" textLength="12.2" clip-path="url(#terminal-line-14)">▊</text><text class="terminal-r8" x="24.4" y="361.6" textLength="48.8" clip-path="url(#terminal-line-14)">14&#160;&#160;</text><text class="terminal-r7" x="73.2" y="361.6" textLength="878.4" clip-path="url(#terminal-line-14)">driver&#160;=&#160;postgres&#160;&#160;&#160;&#160;&#160;&#160;&#160;&#160;&#160;&#160;&#160;&#160;&#160;&#160;&#160;&#160;&#160;&#160;&#160;&#160;&#160;&#160;&#160;&#160;&#160;&#160;&#160;&#160;&#160;&#160;&#160;&#160;&#160;&#160;&#160;&#160;&#160;&#160;&#160;&#160;&#160;&#160;&#160;&#160;&#160;&#160;&#160;&#160;&#160;&#160;&#160;&#160;&#160;&#160;&#160;</text><text class="terminal-r2" x="963.8" y="361.6" textLength="12.2" clip-path="url(#terminal-line-14)">▎</text><text class="terminal-r3" x="976" y="361.6" textLength="12.2" clip-path="url(#terminal-line-14)">
</text><text class="terminal-r1" x="0" y="386" textLength="12.2" clip-path="url(#terminal-line-15)">▊</text><text class="terminal-r8" x="24.4" y="386" textLength="48.8" clip-path="url(#terminal-line-15)">15&#160;&#160;</text><text class="terminal-r7" x="73.2" y="386" textLength="878.4" clip-path="url(#terminal-line-15)">host&#160;=&#160;db.internal&#160;&#160;&#160;&#160;&#160;&#160;&#160;&#160;&#160;&#160;&#160;&#160;&#160;&#160;&#160;&#160;&#160;&#160;&#160;&#160;&#160;&#160;&#160;&#160;&#160;&#160;&#160;&#160;&#160;&#160;&#160;&#160;&#160;&#160;&#160;&#160;&#160;&#160;&#160;&#160;&#160;&#160;&#160;&#160;&#160;&#160;&#160;&#160;&#160;&#160;&#160;&#160;&#160;&#160;</text><text class="terminal-r2" x="963.8" y="386" textLength="12.2" clip-path="url(#terminal-line-15)">▎</text><text class="terminal-r3" x="976" y="386" textLength="12.2" clip-path="url(#terminal-line-15)">
</text><text class="terminal-r1" x="0" y="410.4" textLength="12.2" clip-path="url(#terminal-line-16)">▊</text><text class="terminal-r8" x="24.4" y="410.4" textLength="48.8" clip-path="url(#terminal-line-16)">16&#160;&#160;</text><text class="terminal-r7" x="73.2" y="410.4" textLength="878.4" clip-path="url(#terminal-line-16)">port&#160;=&#160;5432&#160;&#160;&#160;&#160;&#160;&#160;&#160;&#160;&#160;&#160;&#160;&#160;&#160;&#160;&#160;&#160;&#160;&#160;&#160;&#160;&#160;&#160;&#160;&#160;&#160;&#160;&#160;&#160;&#160;&#160;&#160;&#160;&#160;&#160;&#160;&#160;&#160;&#160;&#160;&#160;&#160;&#160;&#160;&#160;&#160;&#160;&#160;&#160;&#160;&#160;&#160;&#160;&#160;&#160;&#160;&#160;&#160;&#160;&#160;&#160;&#160;</text><text class="terminal-r2" x="963.8" y="410.4" textLength="12.2" clip-path="url(#terminal-line-16)">▎</text><text class="terminal-r3" x="976" y="410.4" textLength="12.2" clip-path="url(#terminal-line-16)">
</text><text class="terminal-r1" x="0" y="434.8" textLength="12.2" clip-path="url(#terminal-line-17)">▊</text><text class="terminal-r8" x="24.4" y="434.8" textLength="48.8" clip-path="url(#terminal-line-17)">17&#160;&#160;</text><text class="terminal-r7" x="73.2" y="434.8" textLength="878.4" clip-path="url(#terminal-line-17)">username&#160;=&#160;admin&#160;&#160;&#160;&#160;&#160;&#160;&#160;&#160;&#160;&#160;&#160;&#160;&#160;&#160;&#160;&#160;&#160;&#160;&#160;&#160;&#160;&#160;&#160;&#160;&#160;&#160;&#160;&#160;&#160;&#160;&#160;&#160;&#160;&#160;&#160;&#160;&#160;&#160;&#160;&#160;&#160;&#160;&#160;&#160;&#160;&#160;&#160;&#160;&#160;&#160;&#160;&#160;&#160;&#160;&#160;&#160;</text><text class="terminal-r2" x="963.8" y="434.8" textLength="12.2" clip-path="url(#terminal-line-17)">▎</text><text class="terminal-r3" x="976" y="434.8" textLength="12.2" clip-path="url(#terminal-line-17)">
</text><text class="terminal-r1" x="0" y="459.2" textLength="12.2" clip-path="url(#terminal-line-18)">▊</text><text class="terminal-r8" x="24.4" y="459.2" textLength="48.8" clip-path="url(#terminal-line-18)">18&#160;&#160;</text><text class="terminal-r7" x="73.2" y="459.2" textLength="878.4" clip-path="url(#terminal-line-18)">password&#160;=&#160;secret&#160;&#160;&#160;&#160;&#160;&#160;&#160;&#160;&#160;&#160;&#160;&#160;&#160;&#160;&#160;&#160;&#160;&#160;&#160;&#160;&#160;&#160;&#160;&#160;&#160;&#160;&#160;&#160;&#160;&#160;&#160;&#160;&#160;&#160;&#160;&#160;&#160;&#160;&#160;&#160;&#160;&#160;&#160;&#160;&#160;&#160;&#160;&#160;&#160;&#160;&#160;&#160;&#160;&#160;&#160;</text><text class="terminal-r2" x="963.8" y="459.2" textLength="12.2" clip-path="url(#terminal-line-18)">▎</text><text class="terminal-r3" x="976" y="459.2" textLength="12.2" clip-path="url(#terminal-line-18)">
</text><text class="terminal-r1" x="0" y="483.6" textLength="12.2" clip-path="url(#terminal-line-19)">▊</text><text class="terminal-r8" x="24.4" y="483.6" textLength="48.8" clip-path="url(#terminal-line-19)">19&#160;&#160;</text><text class="terminal-r2" x="963.8" y="483.6" textLength="12.2" clip-path="url(#terminal-line-19)">▎</text><text class="terminal-r3" x="976" y="483.6" textLength="12.2" clip-path="url(#terminal-line-19)">
</text><text class="terminal-r1" x="0" y="508" textLength="12.2" clip-path="url(#terminal-line-20)">▊</text><text class="terminal-r8" x="24.4" y="508" textLength="48.8" clip-path="url(#terminal-line-20)">20&#160;&#160;</text><text class="terminal-r7" x="73.2" y="508" textLength="12.2" clip-path="url(#terminal-line-20)">[</text><text class="terminal-r9" x="85.4" y="508" textLength="85.4" clip-path="url(#terminal-line-20)">logging</text><text class="terminal-r7" x="170.8" y="508" textLength="780.8" clip-path="url(#terminal-line-20)">]&#160;&#160;&#160;&#160;&#160;&#160;&#160;&#160;&#160;&#160;&#160;&#160;&#160;&#160;&#160;&#160;&#160;&#160;&#160;&#160;&#160;&#160;&#160;&#160;&#160;&#160;&#160;&#160;&#160;&#160;&#160;&#160;&#160;&#160;&#160;&#160;&#160;&#160;&#160;&#160;&#160;&#160;&#160;&#160;&#160;&#160;&#160;&#160;&#160;&#160;&#160;&#160;&#160;&#160;&#160;&#160;&#160;&#160;&#160;&#160;&#160;&#160;&#160;</text><text class="terminal-r2" x="963.8" y="508" textLength="12.2" clip-path="url(#terminal-line-20)">▎</text><text class="terminal-r3" x="976" y="508" textLength="12.2" clip-path="url(#terminal-line-20)">
</text><text class="terminal-r1" x="0" y="532.4" textLength="12.2" clip-path="url(#terminal-line-21)">▊</text><text class="terminal-r8" x="24.4" y="532.4" textLength="48.8" clip-path="url(#terminal-line-21)">21&#160;&#160;</text><text class="terminal-r7" x="73.2" y="532.4" textLength="878.4" clip-path="url(#terminal-line-21)">level&#160;=&#160;info&#160;&#160;&#160;&#160;&#160;&#160;&#160;&#160;&#160;&#160;&#160;&#160;&#160;&#160;&#160;&#160;&#160;&#160;&#160;&#160;&#160;&#160;&#160;&#160;&#160;&#160;&#160;&#160;&#160;&#160;&#160;&#160;&#160;&#160;&#160;&#160;&#160;&#160;&#160;&#160;&#160;&#160;&#160;&#160;&#160;&#160;&#160;&#160;&#160;&#160;&#160;&#160;&#160;&#160;&#160;&#160;&#160;&#160;&#160;&#160;</text><text class="terminal-r2" x="963.8" y="532.4" textLength="12.2" clip-path="url(#terminal-line-21)">▎</text><text class="terminal-r3" x="976" y="532.4" textLength="12.2" clip-path="url(#terminal-line-21)">
</text><text class="terminal-r1" x="0" y="556.8" textLength="12.2" clip-path="url(#terminal-line-22)">▊</text><text class="terminal-r8" x="24.4" y="556.8" textLength="48.8" clip-path="url(#terminal-line-22)">22&#160;&#160;</text><text class="terminal-r7" x="73.2" y="556.8" textLength="878.4" clip-path="url(#terminal-line-22)">file&#160;=&#160;/var/log/samplefile.log&#160;&#160;&#160;&#160;&#160;&#160;&#160;&#160;&#160;&#160;&#160;&#160;&#160;&#160;&#160;&#160;&#160;&#160;&#160;&#160;&#160;&#160;&#160;&#160;&#160;&#160;&#160;&#160;&#160;&#160;&#160;&#160;&#160;&#160;&#160;&#160;&#160;&#160;&#160;&#160;&#160;&#160;</text><text class="terminal-r2" x="963.8" y="556.8" textLength="12.2" clip-path="url(#terminal-line-22)">▎</text><text class="terminal-r3" x="976" y="556.8" textLength="12.2" clip-path="url(#terminal-line-22)">
</text><text class="terminal-r1" x="0" y="581.2" textLength="12.2" clip-path="url(#terminal-line-23)">▊</text><text class="terminal-r8" x="24.4" y="581.2" textLength="48.8" clip-path="url(#terminal-line-23)">23&#160;&#160;</text><text class="terminal-r2" x="963.8" y="581.2" textLength="12.2" clip-path="url(#terminal-line-23)">▎</text><text class="terminal-r3" x="976" y="581.2" textLength="12.2" clip-path="url(#terminal-line-23)">
</text><text class="terminal-r1" x="0" y="605.6" textLength="12.2" clip-path="url(#terminal-line-24)">▊</text><text class="terminal-r8" x="24.4" y="605.6" textLength="48.8" clip-path="url(#terminal-line-24)">24&#160;&#160;</text><text class="terminal-r7" x="73.2" y="605.6" textLength="12.2" clip-path="url(#terminal-line-24)">[</text><text class="terminal-r9" x="85.4" y="605.6" textLength="97.6" clip-path="url(#terminal-line-24)">features</text><text class="terminal-r7" x="183" y="605.6" textLength="768.6" clip-path="url(#terminal-line-24)">]&#160;&#160;&#160;&#160;&#160;&#160;&#160;&#160;&#160;&#160;&#160;&#160;&#160;&#160;&#160;&#160;&#160;&#160;&#160;&#160;&#160;&#160;&#160;&#160;&#160;&#160;&#160;&#160;&#160;&#160;&#160;&#160;&#160;&#160;&#160;&#160;&#160;&#160;&#160;&#160;&#160;&#160;&#160;&#160;&#160;&#160;&#160;&#160;&#160;&#160;&#160;&#160;&#160;&#160;&#160;&#160;&#160;&#160;&#160;&#160;&#160;&#160;</text><text class="terminal-r2" x="963.8" y="605.6" textLength="12.2" clip-path="url(#terminal-line-24)">▎</text><text class="terminal-r3" x="976" y="605.6" textLength="12.2" clip-path="url(#terminal-line-24)">
</text><text class="terminal-r1" x="0" y="630" textLength="12.2" clip-path="url(#terminal-line-25)">▊</text><text class="terminal-r8" x="24.4" y="630" textLength="48.8" clip-path="url(#terminal-line-25)">25&#160;&#160;</text><text class="terminal-r7" x="73.2" y="630" textLength="878.4" clip-path="url(#terminal-line-25)">cache&#160;=&#160;true&#160;&#160;&#160;&#160;&#160;&#160;&#160;&#160;&#160;&#160;&#160;&#160;&#160;&#160;&#160;&#160;&#160;&#160;&#160;&#160;&#160;&#160;&#160;&#160;&#160;&#160;&#160;&#160;&#160;&#160;&#160;&#160;&#160;&#160;&#160;&#160;&#160;&#160;&#160;&#160;&#160;&#160;&#160;&#160;&#160;&#160;&#160;&#160;&#160;&#160;&#160;&#160;&#160;&#160;&#160;&#160;&#160;&#160;&#160;&#160;</text><text class="terminal-r2" x="963.8" y="630" textLength="12.2" clip-path="url(#terminal-line-25)">▎</text><text class="terminal-r3" x="976" y="630" textLength="12.2" clip-path="url(#terminal-line-25)">
</text><text class="terminal-r1" x="0" y="654.4" textLength="12.2" clip-path="url(#terminal-line-26)">▊</text><text class="terminal-r8" x="24.4" y="654.4" textLength="48.8" clip-path="url(#terminal-line-26)">26&#160;&#160;</text><text class="terminal-r7" x="73.2" y="654.4" textLength="878.4" clip-path="url(#terminal-line-26)">metrics&#160;=&#160;true&#160;&#160;&#160;&#160;&#160;&#160;&#160;&#160;&#160;&#160;&#160;&#160;&#160;&#160;&#160;&#160;&#160;&#160;&#160;&#160;&#160;&#160;&#160;&#160;&#160;&#160;&#160;&#160;&#160;&#160;&#160;&#160;&#160;&#160;&#160;&#160;&#160;&#160;&#160;&#160;&#160;&#160;&#160;&#160;&#160;&#160;&#160;&#160;&#160;&#160;&#160;&#160;&#160;&#160;&#160;&#160;&#160;&#160;</text><text class="terminal-r2" x="963.8" y="654.4" textLength="12.2" clip-path="url(#terminal-line-26)">▎</text><text class="terminal-r3" x="976" y="654.4" textLength="12.2" clip-path="url(#terminal-line-26)">
</text><text class="terminal-r1" x="0" y="678.8" textLength="12.2" clip-path="url(#terminal-line-27)">▊</text><text class="terminal-r8" x="24.4" y="678.8" textLength="48.8" clip-path="url(#terminal-line-27)">27&#160;&#160;</text><text class="terminal-r7" x="73.2" y="678.8" textLength="878.4" clip-path="url(#terminal-line-27)">experimental&#160;=&#160;false&#160;&#160;&#160;&#160;&#160;&#160;&#160;&#160;&#160;&#160;&#160;&#160;&#160;&#160;&#160;&#160;&#160;&#160;&#160;&#160;&#160;&#160;&#160;&#160;&#160;&#160;&#160;&#160;&#160;&#160;&#160;&#160;&#160;&#160;&#160;&#160;&#160;&#160;&#160;&#160;&#160;&#160;&#160;&#160;&#160;&#160;&#160;&#160;&#160;&#160;&#160;&#160;</text><text class="terminal-r2" x="963.8" y="678.8" textLength="12.2" clip-path="url(#terminal-line-27)">▎</text><text class="terminal-r3" x="976" y="678.8" textLength="12.2" clip-path="url(#terminal-line-27)">
</text><text class="terminal-r1" x="0" y="703.2" textLength="12.2" clip-path="url(#terminal-line-28)">▊</text><text class="terminal-r8" x="24.4" y="703.2" textLength="48.8" clip-path="url(#terminal-line-28)">28&#160;&#160;</text><text class="terminal-r2" x="963.8" y="703.2" textLength="12.2" clip-path="url(#terminal-line-28)">▎</text><text class="terminal-r3" x="976" y="703.2" textLength="12.2" clip-path="url(#terminal-line-28)">
</text><text class="terminal-r1" x="0" y="727.6" textLength="12.2" clip-path="url(#terminal-line-29)">▊</text><text class="terminal-r2" x="963.8" y="727.6" textLength="12.2" clip-path="url(#terminal-line-29)">▎</text><text class="terminal-r3" x="976" y="727.6" textLength="12.2" clip-path="url(#terminal-line-29)">
</text><text class="terminal-r1" x="0" y="752" textLength="12.2" clip-path="url(#terminal-line-30)">▊</text><text class="terminal-r2" x="12.2" y="752" textLength="951.6" clip-path="url(#terminal-line-30)">▁▁▁▁▁▁▁▁▁▁▁▁▁▁▁▁▁▁▁▁▁▁▁▁▁▁▁▁▁▁▁▁▁▁▁▁▁▁▁▁▁▁▁▁▁▁▁▁▁▁▁▁▁▁▁▁▁▁▁▁▁▁▁▁▁▁▁▁▁▁▁▁▁▁▁▁▁▁</text><text class="terminal-r2" x="963.8" y="752" textLength="12.2" clip-path="url(#terminal-line-30)">▎</text>
    </g>
    </g>
</svg>
