<?xml version="1.0" encoding="utf-8"?>
<!-- Generator: Adobe Illustrator 26.5.0, SVG Export Plug-In . SVG Version: 6.00 Build 0)  -->
<svg version="1.1" id="Layer_1" xmlns="http://www.w3.org/2000/svg" xmlns:xlink="http://www.w3.org/1999/xlink" x="0px" y="0px"
	 viewBox="0 0 1079 833.4" style="enable-background:new 0 0 1079 833.4;" xml:space="preserve">
<style type="text/css">
	.st0{fill-rule:evenodd;clip-rule:evenodd;fill:#FFFFFF;}
</style>
<path class="st0" d="M618,0h461l-77.4,174.1l-141.3,79.5h-96l-233,474.4L390.7,833.4H237.5l33.6-504.2H75.1L0,160.3l112.9-84.7
	h370.7L618,0z M470.3,102.3l-11.2,48.9H56.6l65.2-48.9H470.3L470.3,102.3z M37.1,178h415.8L308.4,806.7h-42.3l33.6-504.2H92.4
	L37.1,178L37.1,178z M335.8,806.7l161.9-704.3h405.7l-55.3,124.5H612.5L377.3,806.7H335.8L335.8,806.7z M920.5,75.6H538.1l87-48.9
	h382.5L920.5,75.6z"/>
</svg>
