<svg width="2933" height="2261" viewBox="0 0 2933 2261" fill="none" xmlns="http://www.w3.org/2000/svg">
<path fill-rule="evenodd" clip-rule="evenodd" d="M2927.81 0H1677.1L1312.35 205.173H306.689L0.359375 434.921L204.029 893.177H735.972L644.784 2261H1060.36L1441.72 1974.97L2073.92 688.003H2334.4L2717.9 472.286L2927.81 0ZM1245.82 410.347L1276.32 277.656H330.85L153.929 410.347H1245.82ZM1229.16 482.83H100.972L251.134 820.694H813.449L722.26 2188.52H837.043L1229.16 482.83ZM1350.7 277.656L911.417 2188.52H1023.87L1662.19 615.52H2301.36L2451.52 277.656H1350.7ZM1460.19 205.173H2497.79L2733.69 72.4829H1696.09L1460.19 205.173Z" fill="white"/>
</svg>
